<mxfile host="Electron" agent="Mozilla/5.0 (Windows NT 10.0; Win64; x64) AppleWebKit/537.36 (KHTML, like Gecko) draw.io/26.2.2 Chrome/134.0.6998.178 Electron/35.1.2 Safari/537.36" version="26.2.2" pages="7">
  <diagram name="Home Page" id="2cc2dc42-3aac-f2a9-1cec-7a8b7cbee084">
    <mxGraphModel dx="1428" dy="841" grid="1" gridSize="10" guides="1" tooltips="1" connect="1" arrows="1" fold="1" page="1" pageScale="1" pageWidth="1100" pageHeight="850" background="none" math="0" shadow="0">
      <root>
        <mxCell id="0" />
        <mxCell id="1" parent="0" />
        <mxCell id="7026571954dc6520-1" value="" style="strokeWidth=1;shadow=0;dashed=0;align=center;html=1;shape=mxgraph.mockup.containers.browserWindow;rSize=0;strokeColor=#666666;mainText=,;recursiveResize=0;rounded=0;labelBackgroundColor=none;fontFamily=Verdana;fontSize=12" parent="1" vertex="1">
          <mxGeometry x="30" y="20" width="1050" height="1680" as="geometry" />
        </mxCell>
        <mxCell id="7026571954dc6520-22" value="" style="verticalLabelPosition=bottom;shadow=0;dashed=0;align=center;html=1;verticalAlign=top;strokeWidth=1;shape=mxgraph.mockup.graphics.simpleIcon;strokeColor=#999999;fillColor=#ffffff;rounded=0;labelBackgroundColor=none;fontFamily=Verdana;fontSize=12;fontColor=#000000;" parent="7026571954dc6520-1" vertex="1">
          <mxGeometry y="170" width="1050" height="250" as="geometry" />
        </mxCell>
        <mxCell id="7026571954dc6520-2" value="Home Page" style="strokeWidth=1;shadow=0;dashed=0;align=center;html=1;shape=mxgraph.mockup.containers.anchor;fontSize=17;fontColor=#666666;align=left;" parent="7026571954dc6520-1" vertex="1">
          <mxGeometry x="60" y="12" width="110" height="26" as="geometry" />
        </mxCell>
        <mxCell id="7026571954dc6520-3" value="https://www.default.com" style="strokeWidth=1;shadow=0;dashed=0;align=center;html=1;shape=mxgraph.mockup.containers.anchor;rSize=0;fontSize=17;fontColor=#666666;align=left;" parent="7026571954dc6520-1" vertex="1">
          <mxGeometry x="130" y="60" width="250" height="26" as="geometry" />
        </mxCell>
        <mxCell id="7026571954dc6520-4" value="College Slogen" style="text;html=1;points=[];align=left;verticalAlign=top;spacingTop=-4;fontSize=30;fontFamily=Verdana" parent="7026571954dc6520-1" vertex="1">
          <mxGeometry x="130" y="270" width="340" height="50" as="geometry" />
        </mxCell>
        <mxCell id="7026571954dc6520-6" value="Achievement 1" style="text;html=1;points=[];align=left;verticalAlign=top;spacingTop=-4;fontSize=15;fontFamily=Verdana" parent="7026571954dc6520-1" vertex="1">
          <mxGeometry x="630" y="229" width="170" height="30" as="geometry" />
        </mxCell>
        <mxCell id="7026571954dc6520-7" value="Some text about achievement, with auto slider that will depict all achievement after specific interval. User can click on it to view details.&lt;br&gt;This can also be stats of student stories (alimini) who were enrolled in this college" style="text;html=1;points=[];align=left;verticalAlign=top;spacingTop=-4;fontSize=12;fontFamily=Verdana;whiteSpace=wrap;" parent="7026571954dc6520-1" vertex="1">
          <mxGeometry x="630" y="259" width="320" height="80" as="geometry" />
        </mxCell>
        <mxCell id="E_TJqiWzmNSkEYbu73C4-1" value="" style="html=1;shadow=0;dashed=0;fontSize=16;align=left;spacing=15;" parent="7026571954dc6520-1" vertex="1">
          <mxGeometry y="110" width="1050" height="60" as="geometry" />
        </mxCell>
        <mxCell id="E_TJqiWzmNSkEYbu73C4-2" value="" style="swimlane;shape=mxgraph.bootstrap.anchor;strokeColor=none;fillColor=none;fontColor=#000000;fontStyle=0;childLayout=stackLayout;horizontal=0;startSize=0;horizontalStack=1;resizeParent=1;resizeParentMax=0;resizeLast=0;collapsible=0;marginBottom=0;whiteSpace=wrap;html=1;resizeWidth=0;" parent="E_TJqiWzmNSkEYbu73C4-1" vertex="1">
          <mxGeometry y="10" width="350" height="40" as="geometry" />
        </mxCell>
        <mxCell id="E_TJqiWzmNSkEYbu73C4-3" value="LMS" style="text;strokeColor=none;align=left;verticalAlign=middle;spacingLeft=15;spacingRight=10;points=[[0,0.5],[1,0.5]];portConstraint=eastwest;rotatable=0;whiteSpace=wrap;html=1;fillColor=none;fontColor=#9A9DA0;fontSize=16;fontStyle=1" parent="E_TJqiWzmNSkEYbu73C4-2" vertex="1">
          <mxGeometry width="80" height="40" as="geometry" />
        </mxCell>
        <mxCell id="E_TJqiWzmNSkEYbu73C4-4" value="Home" style="text;strokeColor=#666666;align=center;verticalAlign=middle;spacingLeft=10;spacingRight=10;points=[[0,0.5],[1,0.5]];portConstraint=eastwest;rotatable=0;whiteSpace=wrap;html=1;fillColor=#f5f5f5;fontSize=14;gradientColor=#b3b3b3;" parent="E_TJqiWzmNSkEYbu73C4-2" vertex="1">
          <mxGeometry x="80" width="60" height="40" as="geometry" />
        </mxCell>
        <mxCell id="E_TJqiWzmNSkEYbu73C4-5" value="Courses" style="text;strokeColor=none;align=center;verticalAlign=middle;spacingLeft=10;spacingRight=10;points=[[0,0.5],[1,0.5]];portConstraint=eastwest;rotatable=0;whiteSpace=wrap;html=1;fillColor=none;fontColor=#9A9DA0;fontSize=14;" parent="E_TJqiWzmNSkEYbu73C4-2" vertex="1">
          <mxGeometry x="140" width="80" height="40" as="geometry" />
        </mxCell>
        <mxCell id="E_TJqiWzmNSkEYbu73C4-6" value="Pricing" style="text;strokeColor=none;align=left;verticalAlign=middle;spacingLeft=5;spacingRight=10;points=[[0,0.5],[1,0.5]];portConstraint=eastwest;rotatable=0;whiteSpace=wrap;html=1;fillColor=none;fontColor=#9A9DA0;fontSize=14;" parent="E_TJqiWzmNSkEYbu73C4-2" vertex="1">
          <mxGeometry x="220" width="70" height="40" as="geometry" />
        </mxCell>
        <mxCell id="E_TJqiWzmNSkEYbu73C4-7" value="About" style="text;strokeColor=none;align=center;verticalAlign=middle;spacingLeft=10;spacingRight=10;points=[[0,0.5],[1,0.5]];portConstraint=eastwest;rotatable=0;whiteSpace=wrap;html=1;fillColor=none;fontColor=#9A9DA0;fontSize=14;" parent="E_TJqiWzmNSkEYbu73C4-2" vertex="1">
          <mxGeometry x="290" width="60" height="40" as="geometry" />
        </mxCell>
        <mxCell id="E_TJqiWzmNSkEYbu73C4-8" value="Search" style="html=1;shadow=0;dashed=0;shape=mxgraph.bootstrap.rrect;rSize=5;fontSize=14;fontColor=#1CA5B8;strokeColor=#1CA5B8;fillColor=none;" parent="E_TJqiWzmNSkEYbu73C4-1" vertex="1">
          <mxGeometry x="1" width="70" height="40" relative="1" as="geometry">
            <mxPoint x="-80" y="10" as="offset" />
          </mxGeometry>
        </mxCell>
        <mxCell id="E_TJqiWzmNSkEYbu73C4-9" value="Search" style="html=1;shadow=0;dashed=0;shape=mxgraph.bootstrap.rrect;rSize=5;fontSize=14;fontColor=#6C767D;strokeColor=#CED4DA;fillColor=#ffffff;align=left;spacing=10;" parent="E_TJqiWzmNSkEYbu73C4-1" vertex="1">
          <mxGeometry x="1" width="180" height="40" relative="1" as="geometry">
            <mxPoint x="-270" y="10" as="offset" />
          </mxGeometry>
        </mxCell>
        <mxCell id="E_TJqiWzmNSkEYbu73C4-10" value="" style="rounded=0;whiteSpace=wrap;html=1;" parent="7026571954dc6520-1" vertex="1">
          <mxGeometry x="200" y="370" width="210" height="160" as="geometry" />
        </mxCell>
        <mxCell id="E_TJqiWzmNSkEYbu73C4-13" value="" style="verticalLabelPosition=bottom;shadow=0;dashed=0;align=center;html=1;verticalAlign=top;strokeWidth=1;shape=mxgraph.mockup.graphics.simpleIcon;strokeColor=#999999;fillColor=#ffffff;rounded=0;labelBackgroundColor=none;fontFamily=Verdana;fontSize=12;fontColor=#000000;" parent="7026571954dc6520-1" vertex="1">
          <mxGeometry x="200" y="370" width="210" height="50" as="geometry" />
        </mxCell>
        <mxCell id="E_TJqiWzmNSkEYbu73C4-14" value="&lt;b&gt;Feature Course 1&lt;/b&gt;" style="text;html=1;points=[];align=left;verticalAlign=top;spacingTop=-4;fontSize=15;fontFamily=Verdana" parent="7026571954dc6520-1" vertex="1">
          <mxGeometry x="203" y="422" width="170" height="30" as="geometry" />
        </mxCell>
        <mxCell id="E_TJqiWzmNSkEYbu73C4-15" value="Some text for this feature course as a description, or any catching words for enrollment" style="text;html=1;points=[];align=left;verticalAlign=top;spacingTop=-4;fontSize=12;fontFamily=Verdana;whiteSpace=wrap;" parent="7026571954dc6520-1" vertex="1">
          <mxGeometry x="203" y="450" width="197" height="50" as="geometry" />
        </mxCell>
        <mxCell id="E_TJqiWzmNSkEYbu73C4-18" value="&lt;b&gt;&lt;font style=&quot;font-size: 12px;&quot;&gt;view detail&lt;/font&gt;&lt;/b&gt;" style="strokeWidth=1;shadow=0;dashed=0;align=center;html=1;shape=mxgraph.mockup.buttons.button;strokeColor=#666666;mainText=;buttonStyle=round;fontSize=17;fontStyle=0;fillColor=none;whiteSpace=wrap;rounded=0;labelBackgroundColor=none;" parent="7026571954dc6520-1" vertex="1">
          <mxGeometry x="206" y="503" width="197" height="20" as="geometry" />
        </mxCell>
        <mxCell id="E_TJqiWzmNSkEYbu73C4-20" value="" style="rounded=0;whiteSpace=wrap;html=1;" parent="7026571954dc6520-1" vertex="1">
          <mxGeometry x="420" y="370" width="210" height="160" as="geometry" />
        </mxCell>
        <mxCell id="E_TJqiWzmNSkEYbu73C4-21" value="" style="verticalLabelPosition=bottom;shadow=0;dashed=0;align=center;html=1;verticalAlign=top;strokeWidth=1;shape=mxgraph.mockup.graphics.simpleIcon;strokeColor=#999999;fillColor=#ffffff;rounded=0;labelBackgroundColor=none;fontFamily=Verdana;fontSize=12;fontColor=#000000;" parent="7026571954dc6520-1" vertex="1">
          <mxGeometry x="420" y="370" width="210" height="50" as="geometry" />
        </mxCell>
        <mxCell id="E_TJqiWzmNSkEYbu73C4-22" value="&lt;b&gt;Feature Course 2&lt;/b&gt;" style="text;html=1;points=[];align=left;verticalAlign=top;spacingTop=-4;fontSize=15;fontFamily=Verdana" parent="7026571954dc6520-1" vertex="1">
          <mxGeometry x="423" y="422" width="170" height="30" as="geometry" />
        </mxCell>
        <mxCell id="E_TJqiWzmNSkEYbu73C4-23" value="Some text for this feature course as a description, or any catching words for enrollment" style="text;html=1;points=[];align=left;verticalAlign=top;spacingTop=-4;fontSize=12;fontFamily=Verdana;whiteSpace=wrap;" parent="7026571954dc6520-1" vertex="1">
          <mxGeometry x="423" y="450" width="197" height="50" as="geometry" />
        </mxCell>
        <mxCell id="E_TJqiWzmNSkEYbu73C4-24" value="&lt;b&gt;&lt;font style=&quot;font-size: 12px;&quot;&gt;view detail&lt;/font&gt;&lt;/b&gt;" style="strokeWidth=1;shadow=0;dashed=0;align=center;html=1;shape=mxgraph.mockup.buttons.button;strokeColor=#666666;mainText=;buttonStyle=round;fontSize=17;fontStyle=0;fillColor=none;whiteSpace=wrap;rounded=0;labelBackgroundColor=none;" parent="7026571954dc6520-1" vertex="1">
          <mxGeometry x="426" y="503" width="197" height="20" as="geometry" />
        </mxCell>
        <mxCell id="E_TJqiWzmNSkEYbu73C4-25" value="" style="rounded=0;whiteSpace=wrap;html=1;" parent="7026571954dc6520-1" vertex="1">
          <mxGeometry x="640" y="370" width="210" height="160" as="geometry" />
        </mxCell>
        <mxCell id="E_TJqiWzmNSkEYbu73C4-26" value="" style="verticalLabelPosition=bottom;shadow=0;dashed=0;align=center;html=1;verticalAlign=top;strokeWidth=1;shape=mxgraph.mockup.graphics.simpleIcon;strokeColor=#999999;fillColor=#ffffff;rounded=0;labelBackgroundColor=none;fontFamily=Verdana;fontSize=12;fontColor=#000000;" parent="7026571954dc6520-1" vertex="1">
          <mxGeometry x="640" y="370" width="210" height="50" as="geometry" />
        </mxCell>
        <mxCell id="E_TJqiWzmNSkEYbu73C4-27" value="&lt;b&gt;Feature Course 3&lt;/b&gt;" style="text;html=1;points=[];align=left;verticalAlign=top;spacingTop=-4;fontSize=15;fontFamily=Verdana" parent="7026571954dc6520-1" vertex="1">
          <mxGeometry x="643" y="422" width="170" height="30" as="geometry" />
        </mxCell>
        <mxCell id="E_TJqiWzmNSkEYbu73C4-28" value="Some text for this feature course as a description, or any catching words for enrollment" style="text;html=1;points=[];align=left;verticalAlign=top;spacingTop=-4;fontSize=12;fontFamily=Verdana;whiteSpace=wrap;" parent="7026571954dc6520-1" vertex="1">
          <mxGeometry x="643" y="450" width="197" height="50" as="geometry" />
        </mxCell>
        <mxCell id="E_TJqiWzmNSkEYbu73C4-29" value="&lt;b&gt;&lt;font style=&quot;font-size: 12px;&quot;&gt;view detail&lt;/font&gt;&lt;/b&gt;" style="strokeWidth=1;shadow=0;dashed=0;align=center;html=1;shape=mxgraph.mockup.buttons.button;strokeColor=#666666;mainText=;buttonStyle=round;fontSize=17;fontStyle=0;fillColor=none;whiteSpace=wrap;rounded=0;labelBackgroundColor=none;" parent="7026571954dc6520-1" vertex="1">
          <mxGeometry x="646" y="503" width="197" height="20" as="geometry" />
        </mxCell>
        <mxCell id="E_TJqiWzmNSkEYbu73C4-30" value="" style="verticalLabelPosition=bottom;shadow=0;dashed=0;align=center;html=1;verticalAlign=top;strokeWidth=1;shape=mxgraph.mockup.graphics.simpleIcon;strokeColor=#999999;fillColor=#ffffff;rounded=0;labelBackgroundColor=none;fontFamily=Verdana;fontSize=12;fontColor=#000000;" parent="7026571954dc6520-1" vertex="1">
          <mxGeometry x="100" y="580" width="250" height="230" as="geometry" />
        </mxCell>
        <mxCell id="E_TJqiWzmNSkEYbu73C4-32" value="&lt;h1 style=&quot;margin-top: 0px;&quot;&gt;&lt;span style=&quot;background-color: rgb(255, 255, 255); color: rgb(18, 15, 45);&quot;&gt;&lt;font style=&quot;font-size: 20px;&quot;&gt;First Choice For Education Anywhere&lt;/font&gt;&lt;/span&gt;&lt;/h1&gt;&lt;pre style=&quot;margin-top: 0px;&quot;&gt;&lt;span style=&quot;color: rgb(107, 106, 117); font-family: &amp;quot;Open Sans&amp;quot;, sans-serif; font-size: 16px; font-weight: 400; background-color: rgb(255, 255, 255); line-height: 70%;&quot;&gt;Tempor erat elitr at rebum at at clita aliquyam consetetur. Diam dolor diam ipsum et, &lt;/span&gt;&lt;/pre&gt;&lt;pre style=&quot;margin-top: 0px;&quot;&gt;&lt;span style=&quot;color: rgb(107, 106, 117); font-family: &amp;quot;Open Sans&amp;quot;, sans-serif; font-size: 16px; font-weight: 400; background-color: rgb(255, 255, 255); line-height: 70%;&quot;&gt;tempor voluptua sit consetetur sit. Aliquyam diam amet diam et eos sadipscing labore. &lt;/span&gt;&lt;/pre&gt;&lt;pre style=&quot;margin-top: 0px;&quot;&gt;&lt;span style=&quot;color: rgb(107, 106, 117); font-family: &amp;quot;Open Sans&amp;quot;, sans-serif; font-size: 16px; font-weight: 400; background-color: rgb(255, 255, 255); line-height: 70%;&quot;&gt;Clita erat ipsum et lorem et sit, sed stet no labore lo&lt;/span&gt;&lt;span style=&quot;font-family: &amp;quot;Open Sans&amp;quot;, sans-serif; font-size: 16px; font-weight: 400; background-color: rgb(255, 255, 255); line-height: 70%; color: rgb(107, 106, 117);&quot;&gt;&lt;font style=&quot;color: rgb(107, 106, 117);&quot;&gt;rem sit&lt;/font&gt;&lt;/span&gt;&lt;span style=&quot;color: rgb(107, 106, 117); font-family: &amp;quot;Open Sans&amp;quot;, sans-serif; font-size: 16px; font-weight: 400; background-color: rgb(255, 255, 255); line-height: 70%;&quot;&gt;. &lt;br&gt;&lt;/span&gt;&lt;/pre&gt;" style="text;html=1;whiteSpace=wrap;overflow=hidden;rounded=0;fontFamily=Verdana;" parent="7026571954dc6520-1" vertex="1">
          <mxGeometry x="360" y="580" width="640" height="130" as="geometry" />
        </mxCell>
        <mxCell id="E_TJqiWzmNSkEYbu73C4-35" value="&lt;font style=&quot;font-size: 36px;&quot;&gt;&lt;font face=&quot;Tahoma&quot;&gt;30&lt;/font&gt;&amp;nbsp;&lt;/font&gt;&lt;div&gt;&lt;font style=&quot;font-size: 16px;&quot;&gt;Available Courses&lt;/font&gt;&lt;/div&gt;" style="rounded=0;whiteSpace=wrap;html=1;fillColor=#1ba1e2;strokeColor=#006EAF;fontColor=#ffffff;" parent="7026571954dc6520-1" vertex="1">
          <mxGeometry x="360" y="710" width="140" height="100" as="geometry" />
        </mxCell>
        <mxCell id="E_TJqiWzmNSkEYbu73C4-36" value="&lt;font style=&quot;font-size: 36px;&quot;&gt;&lt;font face=&quot;Tahoma&quot;&gt;5000+&lt;/font&gt;&amp;nbsp;&lt;/font&gt;&lt;div&gt;&lt;font style=&quot;font-size: 16px;&quot;&gt;Happy Students&lt;/font&gt;&lt;/div&gt;" style="rounded=0;whiteSpace=wrap;html=1;fillColor=#60a917;strokeColor=#2D7600;fontColor=#ffffff;" parent="7026571954dc6520-1" vertex="1">
          <mxGeometry x="500" y="710" width="140" height="100" as="geometry" />
        </mxCell>
        <mxCell id="E_TJqiWzmNSkEYbu73C4-37" value="&lt;font style=&quot;font-size: 36px;&quot;&gt;&lt;font face=&quot;Tahoma&quot;&gt;123&lt;/font&gt;&amp;nbsp;&lt;/font&gt;&lt;div&gt;&lt;font style=&quot;font-size: 16px;&quot;&gt;Skilled Instructors&lt;/font&gt;&lt;/div&gt;" style="rounded=0;whiteSpace=wrap;html=1;fillColor=#a20025;strokeColor=#6F0000;fontColor=#ffffff;" parent="7026571954dc6520-1" vertex="1">
          <mxGeometry x="640" y="710" width="140" height="100" as="geometry" />
        </mxCell>
        <mxCell id="E_TJqiWzmNSkEYbu73C4-38" value="&lt;font style=&quot;font-size: 36px;&quot;&gt;&lt;font face=&quot;Tahoma&quot;&gt;100+&lt;/font&gt;&amp;nbsp;&lt;/font&gt;&lt;div&gt;&lt;font style=&quot;font-size: 16px;&quot;&gt;Online Courses&lt;/font&gt;&lt;/div&gt;" style="rounded=0;whiteSpace=wrap;html=1;fillColor=#f0a30a;strokeColor=#BD7000;fontColor=#000000;" parent="7026571954dc6520-1" vertex="1">
          <mxGeometry x="780" y="710" width="140" height="100" as="geometry" />
        </mxCell>
        <mxCell id="E_TJqiWzmNSkEYbu73C4-39" value="&lt;h1 style=&quot;margin-top: 0px;&quot;&gt;&lt;span style=&quot;background-color: rgb(255, 255, 255); color: rgb(18, 15, 45);&quot;&gt;&lt;font style=&quot;font-size: 20px;&quot;&gt;Why Choose Us?&lt;/font&gt;&lt;/span&gt;&lt;/h1&gt;&lt;pre style=&quot;margin-top: 0px;&quot;&gt;&lt;font style=&quot;color: rgb(107, 106, 117); font-size: 16px;&quot; face=&quot;Verdana&quot;&gt;Aliquyam accusam clita nonumy ipsum sit sea clita ipsum clita, ipsum dolores amet voluptua duo dolores &lt;/font&gt;&lt;/pre&gt;&lt;pre style=&quot;margin-top: 0px;&quot;&gt;&lt;font style=&quot;color: rgb(107, 106, 117); font-size: 16px;&quot; face=&quot;Verdana&quot;&gt;et sit ipsum rebum, sadipscing et erat eirmod diam kasd labore clita est. Diam sanctus gubergren sit &lt;/font&gt;&lt;/pre&gt;&lt;pre style=&quot;margin-top: 0px;&quot;&gt;&lt;font style=&quot;color: rgb(107, 106, 117); font-size: 16px;&quot; face=&quot;Verdana&quot;&gt;rebum clita amet.&lt;span style=&quot;background-color: rgb(255, 255, 255); white-space: normal;&quot;&gt;&amp;nbsp;&lt;/span&gt;&lt;/font&gt;&lt;/pre&gt;" style="text;html=1;whiteSpace=wrap;overflow=hidden;rounded=0;fontFamily=Verdana;" parent="7026571954dc6520-1" vertex="1">
          <mxGeometry x="100" y="860" width="850" height="130" as="geometry" />
        </mxCell>
        <mxCell id="E_TJqiWzmNSkEYbu73C4-40" value="" style="verticalLabelPosition=bottom;shadow=0;dashed=0;align=center;html=1;verticalAlign=top;strokeWidth=1;shape=mxgraph.mockup.graphics.simpleIcon;strokeColor=#999999;fillColor=#ffffff;rounded=0;labelBackgroundColor=none;fontFamily=Verdana;fontSize=12;fontColor=#000000;" parent="7026571954dc6520-1" vertex="1">
          <mxGeometry x="100" y="1010" width="80" height="70" as="geometry" />
        </mxCell>
        <mxCell id="E_TJqiWzmNSkEYbu73C4-41" value="&lt;b&gt;Skilled Instructors&lt;/b&gt;" style="text;html=1;points=[];align=left;verticalAlign=top;spacingTop=-4;fontSize=15;fontFamily=Verdana" parent="7026571954dc6520-1" vertex="1">
          <mxGeometry x="190" y="1010" width="170" height="30" as="geometry" />
        </mxCell>
        <mxCell id="E_TJqiWzmNSkEYbu73C4-42" value="&lt;h1 style=&quot;margin-top: 0px;&quot;&gt;&lt;span style=&quot;color: rgb(107, 106, 117); font-size: 16px; background-color: transparent; font-weight: normal;&quot;&gt;Aliquyam accusam clita nonumy ipsum sit sea clita ipsum clita, ipsum dolores amet voluptua duo dolores.&lt;/span&gt;&lt;/h1&gt;" style="text;html=1;whiteSpace=wrap;overflow=hidden;rounded=0;fontFamily=Verdana;" parent="7026571954dc6520-1" vertex="1">
          <mxGeometry x="190" y="1022" width="760" height="60" as="geometry" />
        </mxCell>
        <mxCell id="E_TJqiWzmNSkEYbu73C4-43" value="" style="verticalLabelPosition=bottom;shadow=0;dashed=0;align=center;html=1;verticalAlign=top;strokeWidth=1;shape=mxgraph.mockup.graphics.simpleIcon;strokeColor=#999999;fillColor=#ffffff;rounded=0;labelBackgroundColor=none;fontFamily=Verdana;fontSize=12;fontColor=#000000;" parent="7026571954dc6520-1" vertex="1">
          <mxGeometry x="100" y="1100" width="80" height="70" as="geometry" />
        </mxCell>
        <mxCell id="E_TJqiWzmNSkEYbu73C4-44" value="&lt;b&gt;International Certification&lt;/b&gt;" style="text;html=1;points=[];align=left;verticalAlign=top;spacingTop=-4;fontSize=15;fontFamily=Verdana" parent="7026571954dc6520-1" vertex="1">
          <mxGeometry x="190" y="1100" width="250" height="30" as="geometry" />
        </mxCell>
        <mxCell id="E_TJqiWzmNSkEYbu73C4-45" value="&lt;h1 style=&quot;margin-top: 0px;&quot;&gt;&lt;span style=&quot;color: rgb(107, 106, 117); font-size: 16px; background-color: transparent; font-weight: normal;&quot;&gt;Aliquyam accusam clita nonumy ipsum sit sea clita ipsum clita, ipsum dolores amet voluptua duo dolores.&lt;/span&gt;&lt;/h1&gt;" style="text;html=1;whiteSpace=wrap;overflow=hidden;rounded=0;fontFamily=Verdana;" parent="7026571954dc6520-1" vertex="1">
          <mxGeometry x="190" y="1112" width="760" height="60" as="geometry" />
        </mxCell>
        <mxCell id="E_TJqiWzmNSkEYbu73C4-46" value="" style="verticalLabelPosition=bottom;shadow=0;dashed=0;align=center;html=1;verticalAlign=top;strokeWidth=1;shape=mxgraph.mockup.graphics.simpleIcon;strokeColor=#999999;fillColor=#ffffff;rounded=0;labelBackgroundColor=none;fontFamily=Verdana;fontSize=12;fontColor=#000000;" parent="7026571954dc6520-1" vertex="1">
          <mxGeometry x="100" y="1190" width="80" height="70" as="geometry" />
        </mxCell>
        <mxCell id="E_TJqiWzmNSkEYbu73C4-47" value="&lt;b&gt;Online Classes&lt;/b&gt;" style="text;html=1;points=[];align=left;verticalAlign=top;spacingTop=-4;fontSize=15;fontFamily=Verdana" parent="7026571954dc6520-1" vertex="1">
          <mxGeometry x="190" y="1190" width="170" height="30" as="geometry" />
        </mxCell>
        <mxCell id="E_TJqiWzmNSkEYbu73C4-48" value="&lt;h1 style=&quot;margin-top: 0px;&quot;&gt;&lt;span style=&quot;color: rgb(107, 106, 117); font-size: 16px; background-color: transparent; font-weight: normal;&quot;&gt;Aliquyam accusam clita nonumy ipsum sit sea clita ipsum clita, ipsum dolores amet voluptua duo dolores.&lt;/span&gt;&lt;/h1&gt;" style="text;html=1;whiteSpace=wrap;overflow=hidden;rounded=0;fontFamily=Verdana;" parent="7026571954dc6520-1" vertex="1">
          <mxGeometry x="190" y="1202" width="760" height="60" as="geometry" />
        </mxCell>
        <mxCell id="E_TJqiWzmNSkEYbu73C4-49" value="&lt;h1 style=&quot;margin-top: 0px;&quot;&gt;&lt;span style=&quot;background-color: rgb(255, 255, 255); color: rgb(18, 15, 45);&quot;&gt;&lt;font style=&quot;font-size: 20px;&quot;&gt;Meet Our Instructors&lt;/font&gt;&lt;/span&gt;&lt;/h1&gt;" style="text;html=1;whiteSpace=wrap;overflow=hidden;rounded=0;fontFamily=Verdana;align=center;" parent="7026571954dc6520-1" vertex="1">
          <mxGeometry x="96.5" y="1310" width="850" height="40" as="geometry" />
        </mxCell>
        <mxCell id="E_TJqiWzmNSkEYbu73C4-50" value="" style="whiteSpace=wrap;html=1;aspect=fixed;" parent="7026571954dc6520-1" vertex="1">
          <mxGeometry x="100" y="1370" width="280" height="280" as="geometry" />
        </mxCell>
        <mxCell id="E_TJqiWzmNSkEYbu73C4-51" value="" style="whiteSpace=wrap;html=1;aspect=fixed;" parent="7026571954dc6520-1" vertex="1">
          <mxGeometry x="385" y="1370" width="280" height="280" as="geometry" />
        </mxCell>
        <mxCell id="E_TJqiWzmNSkEYbu73C4-52" value="" style="whiteSpace=wrap;html=1;aspect=fixed;" parent="7026571954dc6520-1" vertex="1">
          <mxGeometry x="670" y="1370" width="280" height="280" as="geometry" />
        </mxCell>
        <mxCell id="E_TJqiWzmNSkEYbu73C4-56" value="" style="verticalLabelPosition=bottom;shadow=0;dashed=0;align=center;html=1;verticalAlign=top;strokeWidth=1;shape=mxgraph.mockup.graphics.simpleIcon;strokeColor=#999999;fillColor=#ffffff;rounded=0;labelBackgroundColor=none;fontFamily=Verdana;fontSize=12;fontColor=#000000;" parent="7026571954dc6520-1" vertex="1">
          <mxGeometry x="100" y="1370" width="280" height="200" as="geometry" />
        </mxCell>
        <mxCell id="E_TJqiWzmNSkEYbu73C4-57" value="" style="verticalLabelPosition=bottom;shadow=0;dashed=0;align=center;html=1;verticalAlign=top;strokeWidth=1;shape=mxgraph.mockup.graphics.simpleIcon;strokeColor=#999999;fillColor=#ffffff;rounded=0;labelBackgroundColor=none;fontFamily=Verdana;fontSize=12;fontColor=#000000;" parent="7026571954dc6520-1" vertex="1">
          <mxGeometry x="385" y="1370" width="280" height="200" as="geometry" />
        </mxCell>
        <mxCell id="E_TJqiWzmNSkEYbu73C4-58" value="" style="verticalLabelPosition=bottom;shadow=0;dashed=0;align=center;html=1;verticalAlign=top;strokeWidth=1;shape=mxgraph.mockup.graphics.simpleIcon;strokeColor=#999999;fillColor=#ffffff;rounded=0;labelBackgroundColor=none;fontFamily=Verdana;fontSize=12;fontColor=#000000;" parent="7026571954dc6520-1" vertex="1">
          <mxGeometry x="670" y="1370" width="280" height="200" as="geometry" />
        </mxCell>
        <mxCell id="E_TJqiWzmNSkEYbu73C4-54" value="&lt;font face=&quot;Tahoma&quot;&gt;&amp;gt;&lt;/font&gt;" style="rounded=0;whiteSpace=wrap;html=1;fillColor=#1ba1e2;fontColor=#ffffff;strokeColor=#006EAF;fontStyle=1" parent="7026571954dc6520-1" vertex="1">
          <mxGeometry x="940" y="1474" width="30" height="45" as="geometry" />
        </mxCell>
        <mxCell id="E_TJqiWzmNSkEYbu73C4-55" value="&lt;font face=&quot;Tahoma&quot;&gt;&amp;lt;&lt;/font&gt;" style="rounded=0;whiteSpace=wrap;html=1;fillColor=#1ba1e2;fontColor=#ffffff;strokeColor=#006EAF;fontStyle=1" parent="7026571954dc6520-1" vertex="1">
          <mxGeometry x="80" y="1474" width="30" height="45" as="geometry" />
        </mxCell>
        <mxCell id="E_TJqiWzmNSkEYbu73C4-59" value="&lt;b&gt;Instructor Name&lt;/b&gt;" style="text;html=1;points=[];align=center;verticalAlign=top;spacingTop=-4;fontSize=15;fontFamily=Verdana" parent="7026571954dc6520-1" vertex="1">
          <mxGeometry x="100" y="1570" width="270" height="30" as="geometry" />
        </mxCell>
        <mxCell id="E_TJqiWzmNSkEYbu73C4-60" value="&lt;b&gt;Instructor Name&lt;/b&gt;" style="text;html=1;points=[];align=center;verticalAlign=top;spacingTop=-4;fontSize=15;fontFamily=Verdana" parent="7026571954dc6520-1" vertex="1">
          <mxGeometry x="385" y="1570" width="270" height="30" as="geometry" />
        </mxCell>
        <mxCell id="E_TJqiWzmNSkEYbu73C4-61" value="&lt;b&gt;Instructor Name&lt;/b&gt;" style="text;html=1;points=[];align=center;verticalAlign=top;spacingTop=-4;fontSize=15;fontFamily=Verdana" parent="7026571954dc6520-1" vertex="1">
          <mxGeometry x="670" y="1570" width="270" height="30" as="geometry" />
        </mxCell>
        <mxCell id="E_TJqiWzmNSkEYbu73C4-62" value="&lt;h1 style=&quot;margin-top: 0px;&quot;&gt;&lt;span style=&quot;color: rgb(107, 106, 117); font-size: 16px; background-color: transparent; font-weight: normal; line-height: 10%;&quot;&gt;Instructor Speciality&lt;/span&gt;&lt;/h1&gt;" style="text;html=1;whiteSpace=wrap;overflow=hidden;rounded=0;fontFamily=Verdana;align=center;" parent="7026571954dc6520-1" vertex="1">
          <mxGeometry x="100" y="1579" width="270" height="40" as="geometry" />
        </mxCell>
        <mxCell id="E_TJqiWzmNSkEYbu73C4-63" value="&lt;h1 style=&quot;margin-top: 0px;&quot;&gt;&lt;span style=&quot;color: rgb(107, 106, 117); font-size: 16px; background-color: transparent; font-weight: normal; line-height: 10%;&quot;&gt;Instructor Speciality&lt;/span&gt;&lt;/h1&gt;" style="text;html=1;whiteSpace=wrap;overflow=hidden;rounded=0;fontFamily=Verdana;align=center;" parent="7026571954dc6520-1" vertex="1">
          <mxGeometry x="385" y="1579" width="270" height="40" as="geometry" />
        </mxCell>
        <mxCell id="E_TJqiWzmNSkEYbu73C4-64" value="&lt;h1 style=&quot;margin-top: 0px;&quot;&gt;&lt;span style=&quot;color: rgb(107, 106, 117); font-size: 16px; background-color: transparent; font-weight: normal; line-height: 10%;&quot;&gt;Instructor Speciality&lt;/span&gt;&lt;/h1&gt;" style="text;html=1;whiteSpace=wrap;overflow=hidden;rounded=0;fontFamily=Verdana;align=center;" parent="7026571954dc6520-1" vertex="1">
          <mxGeometry x="670" y="1579" width="270" height="40" as="geometry" />
        </mxCell>
        <mxCell id="E_TJqiWzmNSkEYbu73C4-66" value="" style="dashed=0;outlineConnect=0;html=1;align=center;labelPosition=center;verticalLabelPosition=bottom;verticalAlign=top;shape=mxgraph.webicons.facebook;fillColor=#6294E4;gradientColor=#1A2665" parent="7026571954dc6520-1" vertex="1">
          <mxGeometry x="196" y="1616" width="30" height="30" as="geometry" />
        </mxCell>
        <mxCell id="E_TJqiWzmNSkEYbu73C4-67" value="" style="dashed=0;outlineConnect=0;html=1;align=center;labelPosition=center;verticalLabelPosition=bottom;verticalAlign=top;shape=mxgraph.webicons.linkedin;fillColor=#0095DB;gradientColor=#006391" parent="7026571954dc6520-1" vertex="1">
          <mxGeometry x="236" y="1616" width="30" height="30" as="geometry" />
        </mxCell>
        <mxCell id="E_TJqiWzmNSkEYbu73C4-68" value="" style="dashed=0;outlineConnect=0;html=1;align=center;labelPosition=center;verticalLabelPosition=bottom;verticalAlign=top;shape=mxgraph.weblogos.youtube_2;fillColor=#FF2626;gradientColor=#B5171F" parent="7026571954dc6520-1" vertex="1">
          <mxGeometry x="276" y="1616" width="30" height="30" as="geometry" />
        </mxCell>
        <mxCell id="E_TJqiWzmNSkEYbu73C4-69" value="" style="dashed=0;outlineConnect=0;html=1;align=center;labelPosition=center;verticalLabelPosition=bottom;verticalAlign=top;shape=mxgraph.webicons.twitter;fillColor=#49EAF7;gradientColor=#137BD0" parent="7026571954dc6520-1" vertex="1">
          <mxGeometry x="156" y="1616" width="30" height="30" as="geometry" />
        </mxCell>
        <mxCell id="E_TJqiWzmNSkEYbu73C4-70" value="" style="dashed=0;outlineConnect=0;html=1;align=center;labelPosition=center;verticalLabelPosition=bottom;verticalAlign=top;shape=mxgraph.webicons.facebook;fillColor=#6294E4;gradientColor=#1A2665" parent="7026571954dc6520-1" vertex="1">
          <mxGeometry x="485" y="1616" width="30" height="30" as="geometry" />
        </mxCell>
        <mxCell id="E_TJqiWzmNSkEYbu73C4-71" value="" style="dashed=0;outlineConnect=0;html=1;align=center;labelPosition=center;verticalLabelPosition=bottom;verticalAlign=top;shape=mxgraph.webicons.linkedin;fillColor=#0095DB;gradientColor=#006391" parent="7026571954dc6520-1" vertex="1">
          <mxGeometry x="525" y="1616" width="30" height="30" as="geometry" />
        </mxCell>
        <mxCell id="E_TJqiWzmNSkEYbu73C4-72" value="" style="dashed=0;outlineConnect=0;html=1;align=center;labelPosition=center;verticalLabelPosition=bottom;verticalAlign=top;shape=mxgraph.weblogos.youtube_2;fillColor=#FF2626;gradientColor=#B5171F" parent="7026571954dc6520-1" vertex="1">
          <mxGeometry x="565" y="1616" width="30" height="30" as="geometry" />
        </mxCell>
        <mxCell id="E_TJqiWzmNSkEYbu73C4-73" value="" style="dashed=0;outlineConnect=0;html=1;align=center;labelPosition=center;verticalLabelPosition=bottom;verticalAlign=top;shape=mxgraph.webicons.twitter;fillColor=#49EAF7;gradientColor=#137BD0" parent="7026571954dc6520-1" vertex="1">
          <mxGeometry x="445" y="1616" width="30" height="30" as="geometry" />
        </mxCell>
        <mxCell id="E_TJqiWzmNSkEYbu73C4-74" value="" style="dashed=0;outlineConnect=0;html=1;align=center;labelPosition=center;verticalLabelPosition=bottom;verticalAlign=top;shape=mxgraph.webicons.facebook;fillColor=#6294E4;gradientColor=#1A2665" parent="7026571954dc6520-1" vertex="1">
          <mxGeometry x="770" y="1616" width="30" height="30" as="geometry" />
        </mxCell>
        <mxCell id="E_TJqiWzmNSkEYbu73C4-75" value="" style="dashed=0;outlineConnect=0;html=1;align=center;labelPosition=center;verticalLabelPosition=bottom;verticalAlign=top;shape=mxgraph.webicons.linkedin;fillColor=#0095DB;gradientColor=#006391" parent="7026571954dc6520-1" vertex="1">
          <mxGeometry x="810" y="1616" width="30" height="30" as="geometry" />
        </mxCell>
        <mxCell id="E_TJqiWzmNSkEYbu73C4-76" value="" style="dashed=0;outlineConnect=0;html=1;align=center;labelPosition=center;verticalLabelPosition=bottom;verticalAlign=top;shape=mxgraph.weblogos.youtube_2;fillColor=#FF2626;gradientColor=#B5171F" parent="7026571954dc6520-1" vertex="1">
          <mxGeometry x="850" y="1616" width="30" height="30" as="geometry" />
        </mxCell>
        <mxCell id="E_TJqiWzmNSkEYbu73C4-77" value="" style="dashed=0;outlineConnect=0;html=1;align=center;labelPosition=center;verticalLabelPosition=bottom;verticalAlign=top;shape=mxgraph.webicons.twitter;fillColor=#49EAF7;gradientColor=#137BD0" parent="7026571954dc6520-1" vertex="1">
          <mxGeometry x="730" y="1616" width="30" height="30" as="geometry" />
        </mxCell>
      </root>
    </mxGraphModel>
  </diagram>
  <diagram name="Login" id="IDTiuniGMMOUfyWHXz3h">
    <mxGraphModel dx="1428" dy="841" grid="1" gridSize="10" guides="1" tooltips="1" connect="1" arrows="1" fold="1" page="1" pageScale="1" pageWidth="1100" pageHeight="850" background="none" math="0" shadow="0">
      <root>
        <mxCell id="qP8m37FSdHObqaSFOgQu-0" />
        <mxCell id="qP8m37FSdHObqaSFOgQu-1" parent="qP8m37FSdHObqaSFOgQu-0" />
        <mxCell id="qP8m37FSdHObqaSFOgQu-2" value="" style="strokeWidth=1;shadow=0;dashed=0;align=center;html=1;shape=mxgraph.mockup.containers.browserWindow;rSize=0;strokeColor=#666666;mainText=,;recursiveResize=0;rounded=0;labelBackgroundColor=none;fontFamily=Verdana;fontSize=12" parent="qP8m37FSdHObqaSFOgQu-1" vertex="1">
          <mxGeometry x="30" y="20" width="1050" height="820" as="geometry" />
        </mxCell>
        <mxCell id="qP8m37FSdHObqaSFOgQu-4" value="Login" style="strokeWidth=1;shadow=0;dashed=0;align=center;html=1;shape=mxgraph.mockup.containers.anchor;fontSize=17;fontColor=#666666;align=left;" parent="qP8m37FSdHObqaSFOgQu-2" vertex="1">
          <mxGeometry x="60" y="12" width="110" height="26" as="geometry" />
        </mxCell>
        <mxCell id="qP8m37FSdHObqaSFOgQu-5" value="https://www.default.com" style="strokeWidth=1;shadow=0;dashed=0;align=center;html=1;shape=mxgraph.mockup.containers.anchor;rSize=0;fontSize=17;fontColor=#666666;align=left;" parent="qP8m37FSdHObqaSFOgQu-2" vertex="1">
          <mxGeometry x="130" y="60" width="250" height="26" as="geometry" />
        </mxCell>
        <mxCell id="21hm75iPjgF-RK_cx-ra-0" value="Welcome to Sys College" style="text;html=1;points=[];align=left;verticalAlign=top;spacingTop=-4;fontSize=30;fontFamily=Verdana" vertex="1" parent="qP8m37FSdHObqaSFOgQu-2">
          <mxGeometry x="30" y="170" width="420" height="50" as="geometry" />
        </mxCell>
        <mxCell id="21hm75iPjgF-RK_cx-ra-1" value="Log in" style="text;html=1;points=[];align=left;verticalAlign=top;spacingTop=-4;fontSize=26;fontFamily=Verdana" vertex="1" parent="qP8m37FSdHObqaSFOgQu-2">
          <mxGeometry x="20" y="450" width="420" height="40" as="geometry" />
        </mxCell>
        <mxCell id="21hm75iPjgF-RK_cx-ra-2" value="Don&#39;t have an account? &lt;font&gt;&lt;font style=&quot;color: rgb(77, 153, 0);&quot;&gt;Register &lt;/font&gt;&lt;font style=&quot;color: rgb(0, 164, 0);&quot;&gt;account&lt;/font&gt;&lt;font color=&quot;#00fb00&quot;&gt;.&lt;/font&gt;&lt;/font&gt;" style="text;html=1;points=[];align=left;verticalAlign=top;spacingTop=-4;fontSize=16;fontFamily=Verdana" vertex="1" parent="qP8m37FSdHObqaSFOgQu-2">
          <mxGeometry x="20" y="482" width="420" height="30" as="geometry" />
        </mxCell>
        <mxCell id="21hm75iPjgF-RK_cx-ra-3" value="&lt;font style=&quot;font-size: 16px;&quot;&gt;User Name&lt;/font&gt;" style="text;html=1;points=[];align=left;verticalAlign=top;spacingTop=-4;fontSize=26;fontFamily=Verdana" vertex="1" parent="qP8m37FSdHObqaSFOgQu-2">
          <mxGeometry x="20" y="532" width="420" height="30" as="geometry" />
        </mxCell>
        <mxCell id="21hm75iPjgF-RK_cx-ra-5" value="Enter User Name" style="text;fontColor=#808080;fontSize=16;verticalAlign=middle;strokeColor=none;fillColor=none;whiteSpace=wrap;html=1;" vertex="1" parent="qP8m37FSdHObqaSFOgQu-2">
          <mxGeometry x="20" y="562" width="346" height="30" as="geometry" />
        </mxCell>
        <mxCell id="21hm75iPjgF-RK_cx-ra-6" value="" style="dashed=0;shape=line;strokeWidth=1;noLabel=1;strokeColor=#cccccc;opacity=50;" vertex="1" parent="qP8m37FSdHObqaSFOgQu-2">
          <mxGeometry x="20" y="587" width="346" height="10" as="geometry" />
        </mxCell>
        <mxCell id="21hm75iPjgF-RK_cx-ra-7" value="&lt;font style=&quot;font-size: 16px;&quot;&gt;Password&lt;/font&gt;" style="text;html=1;points=[];align=left;verticalAlign=top;spacingTop=-4;fontSize=26;fontFamily=Verdana" vertex="1" parent="qP8m37FSdHObqaSFOgQu-2">
          <mxGeometry x="20" y="592" width="420" height="30" as="geometry" />
        </mxCell>
        <mxCell id="21hm75iPjgF-RK_cx-ra-9" value="************" style="text;fontColor=#808080;fontSize=16;verticalAlign=middle;strokeColor=none;fillColor=none;whiteSpace=wrap;html=1;" vertex="1" parent="qP8m37FSdHObqaSFOgQu-2">
          <mxGeometry x="20" y="622" width="346" height="30" as="geometry" />
        </mxCell>
        <mxCell id="21hm75iPjgF-RK_cx-ra-10" value="" style="dashed=0;shape=line;strokeWidth=1;noLabel=1;strokeColor=#cccccc;opacity=50;" vertex="1" parent="qP8m37FSdHObqaSFOgQu-2">
          <mxGeometry x="20" y="647" width="346" height="10" as="geometry" />
        </mxCell>
        <mxCell id="21hm75iPjgF-RK_cx-ra-11" value="&lt;font style=&quot;color: rgb(77, 153, 0);&quot;&gt;&lt;font&gt;Forget Password?&lt;/font&gt;&lt;/font&gt;" style="text;html=1;points=[];align=right;verticalAlign=top;spacingTop=-4;fontSize=16;fontFamily=Verdana" vertex="1" parent="qP8m37FSdHObqaSFOgQu-2">
          <mxGeometry x="186" y="657" width="180" height="30" as="geometry" />
        </mxCell>
        <mxCell id="21hm75iPjgF-RK_cx-ra-12" value="LOG IN" style="whiteSpace=wrap;html=1;dashed=0;align=center;fontSize=14;shape=rect;fillColor=#4D9900;strokeColor=none;fontStyle=1;shadow=1;fontColor=#ffffff;fontFamily=Verdana;" vertex="1" parent="qP8m37FSdHObqaSFOgQu-2">
          <mxGeometry x="20" y="700" width="350" height="36" as="geometry" />
        </mxCell>
        <mxCell id="SMvWzp-42kMCuo-kqZ3T-0" value="" style="verticalLabelPosition=bottom;shadow=0;dashed=0;align=center;html=1;verticalAlign=top;strokeWidth=1;shape=mxgraph.mockup.graphics.simpleIcon;strokeColor=#999999;fillColor=#ffffff;rounded=0;labelBackgroundColor=none;fontFamily=Verdana;fontSize=12;fontColor=#000000;" vertex="1" parent="qP8m37FSdHObqaSFOgQu-1">
          <mxGeometry x="490" y="130" width="590" height="710" as="geometry" />
        </mxCell>
      </root>
    </mxGraphModel>
  </diagram>
  <diagram name="Register" id="pCNaJnR8xmy94wjHARDs">
    <mxGraphModel dx="1428" dy="841" grid="1" gridSize="10" guides="1" tooltips="1" connect="1" arrows="1" fold="1" page="1" pageScale="1" pageWidth="1100" pageHeight="850" background="none" math="0" shadow="0">
      <root>
        <mxCell id="8Hk-sZnAKD3I9ppgXrJD-0" />
        <mxCell id="8Hk-sZnAKD3I9ppgXrJD-1" parent="8Hk-sZnAKD3I9ppgXrJD-0" />
        <mxCell id="8Hk-sZnAKD3I9ppgXrJD-2" value="" style="strokeWidth=1;shadow=0;dashed=0;align=center;html=1;shape=mxgraph.mockup.containers.browserWindow;rSize=0;strokeColor=#666666;mainText=,;recursiveResize=0;rounded=0;labelBackgroundColor=none;fontFamily=Verdana;fontSize=12" vertex="1" parent="8Hk-sZnAKD3I9ppgXrJD-1">
          <mxGeometry x="30" y="20" width="1050" height="820" as="geometry" />
        </mxCell>
        <mxCell id="8Hk-sZnAKD3I9ppgXrJD-3" value="Register" style="strokeWidth=1;shadow=0;dashed=0;align=center;html=1;shape=mxgraph.mockup.containers.anchor;fontSize=17;fontColor=#666666;align=left;" vertex="1" parent="8Hk-sZnAKD3I9ppgXrJD-2">
          <mxGeometry x="60" y="12" width="110" height="26" as="geometry" />
        </mxCell>
        <mxCell id="8Hk-sZnAKD3I9ppgXrJD-4" value="https://www.default.com" style="strokeWidth=1;shadow=0;dashed=0;align=center;html=1;shape=mxgraph.mockup.containers.anchor;rSize=0;fontSize=17;fontColor=#666666;align=left;" vertex="1" parent="8Hk-sZnAKD3I9ppgXrJD-2">
          <mxGeometry x="130" y="60" width="250" height="26" as="geometry" />
        </mxCell>
        <mxCell id="8Hk-sZnAKD3I9ppgXrJD-5" value="Create Your Account&amp;nbsp;&lt;div&gt;to&amp;nbsp;&lt;/div&gt;&lt;div&gt;Start Learning&lt;/div&gt;" style="text;html=1;points=[];align=center;verticalAlign=top;spacingTop=-4;fontSize=30;fontFamily=Verdana" vertex="1" parent="8Hk-sZnAKD3I9ppgXrJD-2">
          <mxGeometry x="30" y="170" width="420" height="110" as="geometry" />
        </mxCell>
        <mxCell id="8Hk-sZnAKD3I9ppgXrJD-6" value="&lt;div style=&quot;font-size: 16px;&quot;&gt;&lt;span style=&quot;background-color: transparent; color: light-dark(rgb(0, 0, 0), rgb(255, 255, 255));&quot;&gt;One account,&amp;nbsp;&lt;/span&gt;&lt;span style=&quot;background-color: transparent; color: light-dark(rgb(0, 0, 0), rgb(255, 255, 255));&quot;&gt;&lt;font style=&quot;color: light-dark(rgb(77, 153, 0), rgb(255, 255, 255));&quot;&gt;&lt;b&gt;&lt;i&gt;Endless knowledge&lt;/i&gt;&lt;/b&gt;&lt;/font&gt;&lt;/span&gt;&lt;/div&gt;" style="text;html=1;points=[];align=left;verticalAlign=top;spacingTop=-4;fontSize=26;fontFamily=Verdana" vertex="1" parent="8Hk-sZnAKD3I9ppgXrJD-2">
          <mxGeometry x="93.5" y="406" width="293" height="21" as="geometry" />
        </mxCell>
        <mxCell id="8Hk-sZnAKD3I9ppgXrJD-15" value="Register" style="whiteSpace=wrap;html=1;dashed=0;align=center;fontSize=14;shape=rect;fillColor=#4D9900;strokeColor=none;fontStyle=1;shadow=1;fontColor=#ffffff;fontFamily=Verdana;" vertex="1" parent="8Hk-sZnAKD3I9ppgXrJD-2">
          <mxGeometry x="13.5" y="670" width="436.5" height="36" as="geometry" />
        </mxCell>
        <mxCell id="wIcK3HSbcPUCHCFmjVPX-0" value="Join Sys College LMS — Where Learning is Smarter,&amp;nbsp;&lt;div&gt;Faster, and Always Within Reach.&amp;nbsp;&lt;br&gt;&lt;/div&gt;" style="text;html=1;points=[];align=left;verticalAlign=top;spacingTop=-4;fontSize=16;fontFamily=Verdana" vertex="1" parent="8Hk-sZnAKD3I9ppgXrJD-2">
          <mxGeometry x="20" y="300" width="420" height="60" as="geometry" />
        </mxCell>
        <mxCell id="wIcK3HSbcPUCHCFmjVPX-2" value="" style="dashed=0;shape=line;strokeWidth=1;noLabel=1;strokeColor=#cccccc;opacity=50;fontSize=14;" vertex="1" parent="8Hk-sZnAKD3I9ppgXrJD-2">
          <mxGeometry x="22" y="414" width="68" height="10" as="geometry" />
        </mxCell>
        <mxCell id="wIcK3HSbcPUCHCFmjVPX-3" value="First Name" style="text;fontSize=16;verticalAlign=middle;strokeColor=none;fillColor=none;whiteSpace=wrap;html=1;fontColor=#777777;" vertex="1" parent="8Hk-sZnAKD3I9ppgXrJD-2">
          <mxGeometry x="17" y="460" width="210" height="30" as="geometry" />
        </mxCell>
        <mxCell id="wIcK3HSbcPUCHCFmjVPX-4" value="" style="dashed=0;shape=line;strokeWidth=1;noLabel=1;strokeColor=#eeeeee;" vertex="1" parent="8Hk-sZnAKD3I9ppgXrJD-2">
          <mxGeometry x="17" y="485" width="210" height="10" as="geometry" />
        </mxCell>
        <mxCell id="wIcK3HSbcPUCHCFmjVPX-5" value="Last Name" style="text;fontSize=16;verticalAlign=middle;strokeColor=none;fillColor=none;whiteSpace=wrap;html=1;fontColor=#777777;" vertex="1" parent="8Hk-sZnAKD3I9ppgXrJD-2">
          <mxGeometry x="240" y="460" width="210" height="30" as="geometry" />
        </mxCell>
        <mxCell id="wIcK3HSbcPUCHCFmjVPX-6" value="" style="dashed=0;shape=line;strokeWidth=1;noLabel=1;strokeColor=#eeeeee;" vertex="1" parent="8Hk-sZnAKD3I9ppgXrJD-2">
          <mxGeometry x="240" y="485" width="210" height="10" as="geometry" />
        </mxCell>
        <mxCell id="wIcK3HSbcPUCHCFmjVPX-7" value="Sys College Email Address" style="text;fontSize=16;verticalAlign=middle;strokeColor=none;fillColor=none;whiteSpace=wrap;html=1;fontColor=#777777;" vertex="1" parent="8Hk-sZnAKD3I9ppgXrJD-2">
          <mxGeometry x="17" y="500" width="423" height="30" as="geometry" />
        </mxCell>
        <mxCell id="wIcK3HSbcPUCHCFmjVPX-8" value="" style="dashed=0;shape=line;strokeWidth=1;noLabel=1;strokeColor=#eeeeee;" vertex="1" parent="8Hk-sZnAKD3I9ppgXrJD-2">
          <mxGeometry x="17" y="525" width="433" height="10" as="geometry" />
        </mxCell>
        <mxCell id="wIcK3HSbcPUCHCFmjVPX-9" value="Password" style="text;fontSize=16;verticalAlign=middle;strokeColor=none;fillColor=none;whiteSpace=wrap;html=1;fontColor=#777777;" vertex="1" parent="8Hk-sZnAKD3I9ppgXrJD-2">
          <mxGeometry x="13.5" y="540" width="210" height="30" as="geometry" />
        </mxCell>
        <mxCell id="wIcK3HSbcPUCHCFmjVPX-10" value="" style="dashed=0;shape=line;strokeWidth=1;noLabel=1;strokeColor=#eeeeee;" vertex="1" parent="8Hk-sZnAKD3I9ppgXrJD-2">
          <mxGeometry x="13.5" y="565" width="210" height="10" as="geometry" />
        </mxCell>
        <mxCell id="wIcK3HSbcPUCHCFmjVPX-11" value="Confirm Password" style="text;fontSize=16;verticalAlign=middle;strokeColor=none;fillColor=none;whiteSpace=wrap;html=1;fontColor=#777777;" vertex="1" parent="8Hk-sZnAKD3I9ppgXrJD-2">
          <mxGeometry x="236.5" y="540" width="210" height="30" as="geometry" />
        </mxCell>
        <mxCell id="wIcK3HSbcPUCHCFmjVPX-12" value="" style="dashed=0;shape=line;strokeWidth=1;noLabel=1;strokeColor=#eeeeee;" vertex="1" parent="8Hk-sZnAKD3I9ppgXrJD-2">
          <mxGeometry x="236.5" y="565" width="210" height="10" as="geometry" />
        </mxCell>
        <mxCell id="wIcK3HSbcPUCHCFmjVPX-20" value="" style="shape=rect;strokeColor=none;fillColor=none;" vertex="1" parent="8Hk-sZnAKD3I9ppgXrJD-2">
          <mxGeometry x="14" y="580" width="433" height="35" as="geometry" />
        </mxCell>
        <mxCell id="wIcK3HSbcPUCHCFmjVPX-21" value="" style="dashed=0;shape=mxgraph.gmdl.telephone;strokeColor=none;fillColor=#cccccc;" vertex="1" parent="wIcK3HSbcPUCHCFmjVPX-20">
          <mxGeometry y="0.5" width="16" height="20" relative="1" as="geometry">
            <mxPoint y="-10" as="offset" />
          </mxGeometry>
        </mxCell>
        <mxCell id="wIcK3HSbcPUCHCFmjVPX-22" value="Phone" style="text;fontColor=#777777;fontSize=16;verticalAlign=middle;strokeColor=none;fillColor=none;whiteSpace=wrap;html=1;" vertex="1" parent="wIcK3HSbcPUCHCFmjVPX-20">
          <mxGeometry x="68.36842105263158" width="212.7017543859649" height="30" as="geometry" />
        </mxCell>
        <mxCell id="wIcK3HSbcPUCHCFmjVPX-23" value="" style="dashed=0;shape=line;strokeWidth=1;noLabel=1;strokeColor=#555555;" vertex="1" parent="wIcK3HSbcPUCHCFmjVPX-20">
          <mxGeometry x="68.36842105263158" y="25" width="212.7017543859649" height="10" as="geometry" />
        </mxCell>
        <mxCell id="wIcK3HSbcPUCHCFmjVPX-24" value="Mobile" style="text;fontColor=#777777;fontSize=16;verticalAlign=middle;strokeColor=none;fillColor=none;opacity=50;whiteSpace=wrap;html=1;" vertex="1" parent="wIcK3HSbcPUCHCFmjVPX-20">
          <mxGeometry x="319.0526315789474" width="113.94736842105263" height="30" as="geometry" />
        </mxCell>
        <mxCell id="wIcK3HSbcPUCHCFmjVPX-25" value="" style="dashed=0;shape=triangle;noLabel=1;strokeColor=none;fillColor=#cccccc;direction=south;" vertex="1" parent="wIcK3HSbcPUCHCFmjVPX-24">
          <mxGeometry x="1" y="0.5" width="10" height="5" relative="1" as="geometry">
            <mxPoint x="-14" y="-3" as="offset" />
          </mxGeometry>
        </mxCell>
        <mxCell id="wIcK3HSbcPUCHCFmjVPX-26" value="" style="dashed=0;shape=line;strokeWidth=1;noLabel=1;strokeColor=#555555;" vertex="1" parent="wIcK3HSbcPUCHCFmjVPX-20">
          <mxGeometry x="319.0526315789474" y="25" width="113.94736842105263" height="10" as="geometry" />
        </mxCell>
        <mxCell id="wIcK3HSbcPUCHCFmjVPX-27" value="" style="dashed=0;labelPosition=right;align=left;shape=mxgraph.gmdl.checkbox;strokeColor=none;fillColor=#676767;strokeWidth=2;aspect=fixed;sketch=0;html=1;" vertex="1" parent="8Hk-sZnAKD3I9ppgXrJD-2">
          <mxGeometry x="17" y="640" width="16" height="16" as="geometry" />
        </mxCell>
        <mxCell id="wIcK3HSbcPUCHCFmjVPX-28" value="&lt;div style=&quot;font-size: 16px;&quot;&gt;&lt;font&gt;&lt;font color=&quot;#777777&quot;&gt;I agree to the &lt;/font&gt;&lt;b style=&quot;&quot;&gt;&lt;i style=&quot;&quot;&gt;&lt;u style=&quot;&quot;&gt;&lt;font style=&quot;color: rgb(51, 51, 255);&quot;&gt;Terms of Use &lt;/font&gt;&lt;/u&gt;&lt;/i&gt;&lt;/b&gt;&lt;font color=&quot;#777777&quot;&gt;and &lt;/font&gt;&lt;font style=&quot;color: rgb(51, 51, 255);&quot;&gt;&lt;b&gt;&lt;i&gt;&lt;u&gt;Privacy Policy&lt;/u&gt;&lt;/i&gt;&lt;/b&gt;&lt;/font&gt;&lt;/font&gt;&lt;/div&gt;" style="text;html=1;points=[];align=left;verticalAlign=top;spacingTop=-4;fontSize=26;fontFamily=Verdana" vertex="1" parent="8Hk-sZnAKD3I9ppgXrJD-2">
          <mxGeometry x="40" y="635" width="420" height="20" as="geometry" />
        </mxCell>
        <mxCell id="wIcK3HSbcPUCHCFmjVPX-29" value="" style="dashed=0;shape=line;strokeWidth=1;noLabel=1;strokeColor=#cccccc;opacity=50;fontSize=14;" vertex="1" parent="8Hk-sZnAKD3I9ppgXrJD-2">
          <mxGeometry x="386.5" y="417" width="68" height="10" as="geometry" />
        </mxCell>
        <mxCell id="8Hk-sZnAKD3I9ppgXrJD-16" value="" style="verticalLabelPosition=bottom;shadow=0;dashed=0;align=center;html=1;verticalAlign=top;strokeWidth=1;shape=mxgraph.mockup.graphics.simpleIcon;strokeColor=#999999;fillColor=#ffffff;rounded=0;labelBackgroundColor=none;fontFamily=Verdana;fontSize=12;fontColor=#000000;" vertex="1" parent="8Hk-sZnAKD3I9ppgXrJD-1">
          <mxGeometry x="490" y="130" width="590" height="710" as="geometry" />
        </mxCell>
      </root>
    </mxGraphModel>
  </diagram>
  <diagram name="Course Management" id="7mAMXjrWu212-X5NfGuD">
    <mxGraphModel dx="1428" dy="841" grid="1" gridSize="10" guides="1" tooltips="1" connect="1" arrows="1" fold="1" page="1" pageScale="1" pageWidth="1100" pageHeight="850" background="none" math="0" shadow="0">
      <root>
        <mxCell id="xpdC7RBl3pSv2nzIEJfl-0" />
        <mxCell id="xpdC7RBl3pSv2nzIEJfl-1" parent="xpdC7RBl3pSv2nzIEJfl-0" />
        <mxCell id="xpdC7RBl3pSv2nzIEJfl-2" value="" style="strokeWidth=1;shadow=0;dashed=0;align=center;html=1;shape=mxgraph.mockup.containers.browserWindow;rSize=0;strokeColor=#666666;mainText=,;recursiveResize=0;rounded=0;labelBackgroundColor=none;fontFamily=Verdana;fontSize=12" parent="xpdC7RBl3pSv2nzIEJfl-1" vertex="1">
          <mxGeometry x="30" y="20" width="1050" height="1020" as="geometry" />
        </mxCell>
        <mxCell id="xpdC7RBl3pSv2nzIEJfl-3" value="Course Management" style="strokeWidth=1;shadow=0;dashed=0;align=center;html=1;shape=mxgraph.mockup.containers.anchor;fontSize=17;fontColor=#666666;align=left;" parent="xpdC7RBl3pSv2nzIEJfl-2" vertex="1">
          <mxGeometry x="60" y="12" width="170" height="26" as="geometry" />
        </mxCell>
        <mxCell id="xpdC7RBl3pSv2nzIEJfl-4" value="https://www.default.com" style="strokeWidth=1;shadow=0;dashed=0;align=center;html=1;shape=mxgraph.mockup.containers.anchor;rSize=0;fontSize=17;fontColor=#666666;align=left;" parent="xpdC7RBl3pSv2nzIEJfl-2" vertex="1">
          <mxGeometry x="130" y="60" width="250" height="26" as="geometry" />
        </mxCell>
        <mxCell id="xpdC7RBl3pSv2nzIEJfl-5" value="&lt;font style=&quot;font-size: 20px;&quot;&gt;Course Information&lt;/font&gt;" style="text;html=1;points=[];align=left;verticalAlign=middle;spacingTop=-4;fontSize=30;fontFamily=Verdana;fontColor=#777777;" parent="xpdC7RBl3pSv2nzIEJfl-2" vertex="1">
          <mxGeometry x="13.5" y="130" width="206.5" height="30" as="geometry" />
        </mxCell>
        <mxCell id="xpdC7RBl3pSv2nzIEJfl-12" value="Course Title" style="text;fontSize=16;verticalAlign=middle;strokeColor=none;fillColor=none;whiteSpace=wrap;html=1;fontColor=#777777;" parent="xpdC7RBl3pSv2nzIEJfl-2" vertex="1">
          <mxGeometry x="20" y="170" width="280" height="30" as="geometry" />
        </mxCell>
        <mxCell id="xpdC7RBl3pSv2nzIEJfl-13" value="" style="dashed=0;shape=line;strokeWidth=1;noLabel=1;strokeColor=#eeeeee;" parent="xpdC7RBl3pSv2nzIEJfl-2" vertex="1">
          <mxGeometry x="20" y="195" width="280" height="10" as="geometry" />
        </mxCell>
        <mxCell id="KKMostgsAliUa-eR8eAR-0" value="" style="dashed=0;shape=line;strokeWidth=1;noLabel=1;strokeColor=#cccccc;opacity=50;fontSize=14;" parent="xpdC7RBl3pSv2nzIEJfl-2" vertex="1">
          <mxGeometry x="220" y="146" width="390" height="10" as="geometry" />
        </mxCell>
        <mxCell id="KKMostgsAliUa-eR8eAR-1" value="Course Code" style="text;fontSize=16;verticalAlign=middle;strokeColor=none;fillColor=none;whiteSpace=wrap;html=1;fontColor=#777777;" parent="xpdC7RBl3pSv2nzIEJfl-2" vertex="1">
          <mxGeometry x="330" y="170" width="280" height="30" as="geometry" />
        </mxCell>
        <mxCell id="KKMostgsAliUa-eR8eAR-2" value="" style="dashed=0;shape=line;strokeWidth=1;noLabel=1;strokeColor=#eeeeee;" parent="xpdC7RBl3pSv2nzIEJfl-2" vertex="1">
          <mxGeometry x="330" y="195" width="280" height="10" as="geometry" />
        </mxCell>
        <mxCell id="KKMostgsAliUa-eR8eAR-3" value="&lt;font style=&quot;font-size: 16px;&quot;&gt;Department / Faculty&lt;/font&gt;" style="html=1;shadow=0;dashed=0;shape=mxgraph.bootstrap.rrect;rSize=5;strokeColor=#777777;strokeWidth=0;fillColor=#ffffff;fontColor=#777777;whiteSpace=wrap;align=left;verticalAlign=middle;fontStyle=0;fontSize=18;spacing=20;" parent="xpdC7RBl3pSv2nzIEJfl-2" vertex="1">
          <mxGeometry x="20" y="220" width="280" height="30" as="geometry" />
        </mxCell>
        <mxCell id="KKMostgsAliUa-eR8eAR-4" value="" style="shape=triangle;direction=south;fillColor=#495057;strokeColor=none;perimeter=none;" parent="KKMostgsAliUa-eR8eAR-3" vertex="1">
          <mxGeometry x="1" y="0.5" width="10" height="5" relative="1" as="geometry">
            <mxPoint x="-17" y="-2.5" as="offset" />
          </mxGeometry>
        </mxCell>
        <mxCell id="KKMostgsAliUa-eR8eAR-5" value="&lt;font style=&quot;font-size: 16px;&quot;&gt;Academic Term&lt;/font&gt;" style="html=1;shadow=0;dashed=0;shape=mxgraph.bootstrap.rrect;rSize=5;strokeColor=#777777;strokeWidth=0;fillColor=#ffffff;fontColor=#777777;whiteSpace=wrap;align=left;verticalAlign=middle;fontStyle=0;fontSize=18;spacing=20;" parent="xpdC7RBl3pSv2nzIEJfl-2" vertex="1">
          <mxGeometry x="330" y="220" width="280" height="30" as="geometry" />
        </mxCell>
        <mxCell id="KKMostgsAliUa-eR8eAR-6" value="" style="shape=triangle;direction=south;fillColor=#495057;strokeColor=none;perimeter=none;" parent="KKMostgsAliUa-eR8eAR-5" vertex="1">
          <mxGeometry x="1" y="0.5" width="10" height="5" relative="1" as="geometry">
            <mxPoint x="-17" y="-2.5" as="offset" />
          </mxGeometry>
        </mxCell>
        <mxCell id="KKMostgsAliUa-eR8eAR-7" value="Course Description" style="text;fontSize=16;verticalAlign=middle;strokeColor=none;fillColor=none;whiteSpace=wrap;html=1;fontColor=#777777;" parent="xpdC7RBl3pSv2nzIEJfl-2" vertex="1">
          <mxGeometry x="20" y="264" width="590" height="30" as="geometry" />
        </mxCell>
        <mxCell id="KKMostgsAliUa-eR8eAR-8" value="" style="dashed=0;shape=line;strokeWidth=1;noLabel=1;strokeColor=#eeeeee;" parent="xpdC7RBl3pSv2nzIEJfl-2" vertex="1">
          <mxGeometry x="20" y="289" width="590" height="10" as="geometry" />
        </mxCell>
        <mxCell id="KKMostgsAliUa-eR8eAR-13" value="Course Start Date" style="text;fontSize=16;verticalAlign=middle;strokeColor=none;fillColor=none;whiteSpace=wrap;html=1;fontColor=#777777;" parent="xpdC7RBl3pSv2nzIEJfl-2" vertex="1">
          <mxGeometry x="20" y="310" width="280" height="30" as="geometry" />
        </mxCell>
        <mxCell id="KKMostgsAliUa-eR8eAR-14" value="" style="dashed=0;shape=line;strokeWidth=1;noLabel=1;strokeColor=#eeeeee;" parent="xpdC7RBl3pSv2nzIEJfl-2" vertex="1">
          <mxGeometry x="20" y="335" width="280" height="10" as="geometry" />
        </mxCell>
        <mxCell id="KKMostgsAliUa-eR8eAR-12" value="" style="shape=mxgraph.gmdl.calendar;fillColor=#5A6881;strokeColor=none;sketch=0;hachureGap=4;pointerEvents=0;fontFamily=Architects Daughter;fontSource=https%3A%2F%2Ffonts.googleapis.com%2Fcss%3Ffamily%3DArchitects%2BDaughter;fontSize=20;" parent="xpdC7RBl3pSv2nzIEJfl-2" vertex="1">
          <mxGeometry x="1" y="0.5" width="18" height="18" relative="1" as="geometry">
            <mxPoint x="-780" y="-193" as="offset" />
          </mxGeometry>
        </mxCell>
        <mxCell id="KKMostgsAliUa-eR8eAR-15" value="Course End Date" style="text;fontSize=16;verticalAlign=middle;strokeColor=none;fillColor=none;whiteSpace=wrap;html=1;fontColor=#777777;" parent="xpdC7RBl3pSv2nzIEJfl-2" vertex="1">
          <mxGeometry x="330" y="310" width="280" height="30" as="geometry" />
        </mxCell>
        <mxCell id="KKMostgsAliUa-eR8eAR-16" value="" style="dashed=0;shape=line;strokeWidth=1;noLabel=1;strokeColor=#eeeeee;" parent="xpdC7RBl3pSv2nzIEJfl-2" vertex="1">
          <mxGeometry x="330" y="335" width="280" height="10" as="geometry" />
        </mxCell>
        <mxCell id="KKMostgsAliUa-eR8eAR-17" value="" style="shape=mxgraph.gmdl.calendar;fillColor=#5A6881;strokeColor=none;sketch=0;hachureGap=4;pointerEvents=0;fontFamily=Architects Daughter;fontSource=https%3A%2F%2Ffonts.googleapis.com%2Fcss%3Ffamily%3DArchitects%2BDaughter;fontSize=20;" parent="xpdC7RBl3pSv2nzIEJfl-2" vertex="1">
          <mxGeometry x="580" y="316" width="18" height="18" as="geometry" />
        </mxCell>
        <mxCell id="KKMostgsAliUa-eR8eAR-19" value="&lt;font style=&quot;font-size: 20px;&quot;&gt;Content Upload &amp;amp; Management&lt;/font&gt;" style="text;html=1;points=[];align=left;verticalAlign=middle;spacingTop=-4;fontSize=30;fontFamily=Verdana;fontColor=#777777;" parent="xpdC7RBl3pSv2nzIEJfl-2" vertex="1">
          <mxGeometry x="13.5" y="360" width="326.5" height="30" as="geometry" />
        </mxCell>
        <mxCell id="KKMostgsAliUa-eR8eAR-20" value="" style="dashed=0;shape=line;strokeWidth=1;noLabel=1;strokeColor=#cccccc;opacity=50;fontSize=14;" parent="xpdC7RBl3pSv2nzIEJfl-2" vertex="1">
          <mxGeometry x="350" y="376" width="260" height="10" as="geometry" />
        </mxCell>
        <mxCell id="KKMostgsAliUa-eR8eAR-21" value="&lt;h1 style=&quot;margin-top: 0px;&quot;&gt;&lt;font style=&quot;font-size: 18px;&quot;&gt;Related Courses&lt;/font&gt;&lt;/h1&gt;&lt;p&gt;&lt;font style=&quot;font-size: 16px;&quot;&gt;&lt;span style=&quot;background-color: transparent; color: light-dark(rgb(119, 119, 119), rgb(135, 135, 135));&quot;&gt;Course Title - Course 1&lt;/span&gt;&lt;/font&gt;&lt;/p&gt;&lt;p&gt;&lt;font style=&quot;font-size: 16px;&quot;&gt;&lt;span style=&quot;background-color: transparent; color: light-dark(rgb(119, 119, 119), rgb(135, 135, 135));&quot;&gt;Course Title - Course 2&lt;/span&gt;&lt;/font&gt;&lt;/p&gt;&lt;p&gt;&lt;font style=&quot;font-size: 16px;&quot;&gt;&lt;span style=&quot;background-color: transparent; color: light-dark(rgb(119, 119, 119), rgb(135, 135, 135));&quot;&gt;Course Title - Course 3&lt;/span&gt;&lt;br&gt;&lt;/font&gt;&lt;/p&gt;&lt;p&gt;&lt;font style=&quot;font-size: 16px;&quot;&gt;&lt;span style=&quot;background-color: transparent; color: light-dark(rgb(119, 119, 119), rgb(135, 135, 135));&quot;&gt;Course Title - Course 4&lt;/span&gt;&lt;/font&gt;&lt;/p&gt;&lt;p&gt;&lt;font style=&quot;font-size: 16px;&quot;&gt;&lt;span style=&quot;background-color: transparent; color: light-dark(rgb(119, 119, 119), rgb(135, 135, 135));&quot;&gt;&lt;br&gt;&lt;/span&gt;&lt;/font&gt;&lt;/p&gt;" style="text;html=1;whiteSpace=wrap;overflow=hidden;rounded=0;fontColor=#777777;" parent="xpdC7RBl3pSv2nzIEJfl-2" vertex="1">
          <mxGeometry x="680" y="120" width="350" height="220" as="geometry" />
        </mxCell>
        <mxCell id="KKMostgsAliUa-eR8eAR-22" value="" style="sketch=0;pointerEvents=1;shadow=0;dashed=0;html=1;strokeColor=none;fillColor=#505050;labelPosition=center;verticalLabelPosition=bottom;verticalAlign=top;outlineConnect=0;align=center;shape=mxgraph.office.concepts.writing_pencil;" parent="xpdC7RBl3pSv2nzIEJfl-2" vertex="1">
          <mxGeometry x="990" y="170" width="17" height="15" as="geometry" />
        </mxCell>
        <mxCell id="KKMostgsAliUa-eR8eAR-23" value="" style="sketch=0;pointerEvents=1;shadow=0;dashed=0;html=1;strokeColor=none;fillColor=#505050;labelPosition=center;verticalLabelPosition=bottom;verticalAlign=top;outlineConnect=0;align=center;shape=mxgraph.office.concepts.writing_pencil;" parent="xpdC7RBl3pSv2nzIEJfl-2" vertex="1">
          <mxGeometry x="990" y="200" width="17" height="15" as="geometry" />
        </mxCell>
        <mxCell id="KKMostgsAliUa-eR8eAR-24" value="" style="sketch=0;pointerEvents=1;shadow=0;dashed=0;html=1;strokeColor=none;fillColor=#505050;labelPosition=center;verticalLabelPosition=bottom;verticalAlign=top;outlineConnect=0;align=center;shape=mxgraph.office.concepts.writing_pencil;" parent="xpdC7RBl3pSv2nzIEJfl-2" vertex="1">
          <mxGeometry x="990" y="227.5" width="17" height="15" as="geometry" />
        </mxCell>
        <mxCell id="KKMostgsAliUa-eR8eAR-25" value="" style="sketch=0;pointerEvents=1;shadow=0;dashed=0;html=1;strokeColor=none;fillColor=#505050;labelPosition=center;verticalLabelPosition=bottom;verticalAlign=top;outlineConnect=0;align=center;shape=mxgraph.office.concepts.writing_pencil;" parent="xpdC7RBl3pSv2nzIEJfl-2" vertex="1">
          <mxGeometry x="990" y="264" width="17" height="15" as="geometry" />
        </mxCell>
        <mxCell id="KKMostgsAliUa-eR8eAR-26" value="" style="verticalLabelPosition=bottom;verticalAlign=top;html=1;shadow=0;dashed=0;strokeWidth=1;shape=mxgraph.ios.iDeleteApp;fillColor=#cccccc;fillColor2=#000000;strokeColor=#ffffff;sketch=0;" parent="xpdC7RBl3pSv2nzIEJfl-2" vertex="1">
          <mxGeometry x="1020" y="168" width="17" height="17" as="geometry" />
        </mxCell>
        <mxCell id="KKMostgsAliUa-eR8eAR-27" value="" style="verticalLabelPosition=bottom;verticalAlign=top;html=1;shadow=0;dashed=0;strokeWidth=1;shape=mxgraph.ios.iDeleteApp;fillColor=#cccccc;fillColor2=#000000;strokeColor=#ffffff;sketch=0;" parent="xpdC7RBl3pSv2nzIEJfl-2" vertex="1">
          <mxGeometry x="1020" y="198" width="17" height="17" as="geometry" />
        </mxCell>
        <mxCell id="KKMostgsAliUa-eR8eAR-28" value="" style="verticalLabelPosition=bottom;verticalAlign=top;html=1;shadow=0;dashed=0;strokeWidth=1;shape=mxgraph.ios.iDeleteApp;fillColor=#cccccc;fillColor2=#000000;strokeColor=#ffffff;sketch=0;" parent="xpdC7RBl3pSv2nzIEJfl-2" vertex="1">
          <mxGeometry x="1020" y="227.5" width="17" height="17" as="geometry" />
        </mxCell>
        <mxCell id="KKMostgsAliUa-eR8eAR-29" value="" style="verticalLabelPosition=bottom;verticalAlign=top;html=1;shadow=0;dashed=0;strokeWidth=1;shape=mxgraph.ios.iDeleteApp;fillColor=#cccccc;fillColor2=#000000;strokeColor=#ffffff;sketch=0;" parent="xpdC7RBl3pSv2nzIEJfl-2" vertex="1">
          <mxGeometry x="1020" y="262" width="17" height="17" as="geometry" />
        </mxCell>
        <mxCell id="KKMostgsAliUa-eR8eAR-30" value="" style="dashed=0;shape=line;strokeWidth=1;noLabel=1;strokeColor=#cccccc;opacity=50;fontSize=14;" parent="xpdC7RBl3pSv2nzIEJfl-2" vertex="1">
          <mxGeometry x="680" y="191" width="357" height="1" as="geometry" />
        </mxCell>
        <mxCell id="KKMostgsAliUa-eR8eAR-31" value="" style="dashed=0;shape=line;strokeWidth=1;noLabel=1;strokeColor=#cccccc;opacity=50;fontSize=14;" parent="xpdC7RBl3pSv2nzIEJfl-2" vertex="1">
          <mxGeometry x="680" y="221" width="357" height="1" as="geometry" />
        </mxCell>
        <mxCell id="KKMostgsAliUa-eR8eAR-32" value="" style="dashed=0;shape=line;strokeWidth=1;noLabel=1;strokeColor=#cccccc;opacity=50;fontSize=14;" parent="xpdC7RBl3pSv2nzIEJfl-2" vertex="1">
          <mxGeometry x="680" y="252" width="357" height="1" as="geometry" />
        </mxCell>
        <mxCell id="KKMostgsAliUa-eR8eAR-86" value="" style="dashed=0;shape=line;strokeWidth=1;noLabel=1;strokeColor=#cccccc;opacity=50;fontSize=14;" parent="xpdC7RBl3pSv2nzIEJfl-2" vertex="1">
          <mxGeometry x="680" y="289" width="357" height="1" as="geometry" />
        </mxCell>
        <mxCell id="KKMostgsAliUa-eR8eAR-93" value="&lt;h1 style=&quot;margin-top: 0px;&quot;&gt;&lt;font style=&quot;font-size: 18px;&quot;&gt;Modules / Sections in course&lt;/font&gt;&lt;/h1&gt;&lt;p&gt;&lt;font style=&quot;font-size: 16px;&quot;&gt;&lt;span style=&quot;background-color: transparent; color: light-dark(rgb(119, 119, 119), rgb(135, 135, 135));&quot;&gt;Module 1 - Week 1 - Week 4&lt;/span&gt;&lt;/font&gt;&lt;/p&gt;&lt;p&gt;&lt;span style=&quot;font-size: 16px;&quot;&gt;Module 2 - Week 5 - Week 6&lt;/span&gt;&lt;/p&gt;&lt;p&gt;&lt;font style=&quot;font-size: 16px;&quot;&gt;Module 3 - Week 7 - Week 10&lt;/font&gt;&lt;/p&gt;&lt;p&gt;&lt;font style=&quot;font-size: 16px;&quot;&gt;&lt;span style=&quot;background-color: transparent; color: light-dark(rgb(119, 119, 119), rgb(135, 135, 135));&quot;&gt;&lt;br&gt;&lt;/span&gt;&lt;/font&gt;&lt;/p&gt;" style="text;html=1;whiteSpace=wrap;overflow=hidden;rounded=0;fontColor=#777777;" parent="xpdC7RBl3pSv2nzIEJfl-2" vertex="1">
          <mxGeometry x="680" y="350" width="350" height="140" as="geometry" />
        </mxCell>
        <mxCell id="KKMostgsAliUa-eR8eAR-94" value="" style="dashed=0;shape=line;strokeWidth=1;noLabel=1;strokeColor=#cccccc;opacity=50;fontSize=14;" parent="xpdC7RBl3pSv2nzIEJfl-2" vertex="1">
          <mxGeometry x="680" y="423" width="357" height="1" as="geometry" />
        </mxCell>
        <mxCell id="KKMostgsAliUa-eR8eAR-95" value="" style="dashed=0;shape=line;strokeWidth=1;noLabel=1;strokeColor=#cccccc;opacity=50;fontSize=14;" parent="xpdC7RBl3pSv2nzIEJfl-2" vertex="1">
          <mxGeometry x="680" y="453" width="357" height="1" as="geometry" />
        </mxCell>
        <mxCell id="KKMostgsAliUa-eR8eAR-96" value="" style="dashed=0;shape=line;strokeWidth=1;noLabel=1;strokeColor=#cccccc;opacity=50;fontSize=14;" parent="xpdC7RBl3pSv2nzIEJfl-2" vertex="1">
          <mxGeometry x="680" y="484" width="357" height="1" as="geometry" />
        </mxCell>
        <mxCell id="KKMostgsAliUa-eR8eAR-97" value="" style="sketch=0;pointerEvents=1;shadow=0;dashed=0;html=1;strokeColor=none;fillColor=#505050;labelPosition=center;verticalLabelPosition=bottom;verticalAlign=top;outlineConnect=0;align=center;shape=mxgraph.office.concepts.writing_pencil;" parent="xpdC7RBl3pSv2nzIEJfl-2" vertex="1">
          <mxGeometry x="990" y="404.5" width="17" height="15" as="geometry" />
        </mxCell>
        <mxCell id="KKMostgsAliUa-eR8eAR-98" value="" style="sketch=0;pointerEvents=1;shadow=0;dashed=0;html=1;strokeColor=none;fillColor=#505050;labelPosition=center;verticalLabelPosition=bottom;verticalAlign=top;outlineConnect=0;align=center;shape=mxgraph.office.concepts.writing_pencil;" parent="xpdC7RBl3pSv2nzIEJfl-2" vertex="1">
          <mxGeometry x="990" y="434.5" width="17" height="15" as="geometry" />
        </mxCell>
        <mxCell id="KKMostgsAliUa-eR8eAR-99" value="" style="sketch=0;pointerEvents=1;shadow=0;dashed=0;html=1;strokeColor=none;fillColor=#505050;labelPosition=center;verticalLabelPosition=bottom;verticalAlign=top;outlineConnect=0;align=center;shape=mxgraph.office.concepts.writing_pencil;" parent="xpdC7RBl3pSv2nzIEJfl-2" vertex="1">
          <mxGeometry x="990" y="462" width="17" height="15" as="geometry" />
        </mxCell>
        <mxCell id="KKMostgsAliUa-eR8eAR-100" value="" style="verticalLabelPosition=bottom;verticalAlign=top;html=1;shadow=0;dashed=0;strokeWidth=1;shape=mxgraph.ios.iDeleteApp;fillColor=#cccccc;fillColor2=#000000;strokeColor=#ffffff;sketch=0;" parent="xpdC7RBl3pSv2nzIEJfl-2" vertex="1">
          <mxGeometry x="1020" y="402.5" width="17" height="17" as="geometry" />
        </mxCell>
        <mxCell id="KKMostgsAliUa-eR8eAR-101" value="" style="verticalLabelPosition=bottom;verticalAlign=top;html=1;shadow=0;dashed=0;strokeWidth=1;shape=mxgraph.ios.iDeleteApp;fillColor=#cccccc;fillColor2=#000000;strokeColor=#ffffff;sketch=0;" parent="xpdC7RBl3pSv2nzIEJfl-2" vertex="1">
          <mxGeometry x="1020" y="432.5" width="17" height="17" as="geometry" />
        </mxCell>
        <mxCell id="KKMostgsAliUa-eR8eAR-102" value="" style="verticalLabelPosition=bottom;verticalAlign=top;html=1;shadow=0;dashed=0;strokeWidth=1;shape=mxgraph.ios.iDeleteApp;fillColor=#cccccc;fillColor2=#000000;strokeColor=#ffffff;sketch=0;" parent="xpdC7RBl3pSv2nzIEJfl-2" vertex="1">
          <mxGeometry x="1020" y="462" width="17" height="17" as="geometry" />
        </mxCell>
        <mxCell id="KKMostgsAliUa-eR8eAR-103" value="Module Title" style="text;fontSize=16;verticalAlign=middle;strokeColor=none;fillColor=none;whiteSpace=wrap;html=1;fontColor=#777777;" parent="xpdC7RBl3pSv2nzIEJfl-2" vertex="1">
          <mxGeometry x="20" y="394.5" width="550" height="30" as="geometry" />
        </mxCell>
        <mxCell id="KKMostgsAliUa-eR8eAR-104" value="" style="dashed=0;shape=line;strokeWidth=1;noLabel=1;strokeColor=#eeeeee;" parent="xpdC7RBl3pSv2nzIEJfl-2" vertex="1">
          <mxGeometry x="20" y="419.5" width="550" height="10" as="geometry" />
        </mxCell>
        <mxCell id="KKMostgsAliUa-eR8eAR-108" value="" style="verticalLabelPosition=bottom;verticalAlign=top;html=1;shadow=0;dashed=0;strokeWidth=1;shape=mxgraph.ios.iAddIcon;fillColor=#7AdF78;fillColor2=#1A9917;strokeColor=#ffffff;sketch=0;" parent="xpdC7RBl3pSv2nzIEJfl-2" vertex="1">
          <mxGeometry x="585" y="397" width="25" height="25" as="geometry" />
        </mxCell>
        <mxCell id="KKMostgsAliUa-eR8eAR-109" value="Assignment Title" style="text;fontSize=16;verticalAlign=middle;strokeColor=none;fillColor=none;whiteSpace=wrap;html=1;fontColor=#777777;" parent="xpdC7RBl3pSv2nzIEJfl-2" vertex="1">
          <mxGeometry x="20" y="479" width="280" height="30" as="geometry" />
        </mxCell>
        <mxCell id="KKMostgsAliUa-eR8eAR-110" value="" style="dashed=0;shape=line;strokeWidth=1;noLabel=1;strokeColor=#eeeeee;" parent="xpdC7RBl3pSv2nzIEJfl-2" vertex="1">
          <mxGeometry x="20" y="504" width="280" height="10" as="geometry" />
        </mxCell>
        <mxCell id="KKMostgsAliUa-eR8eAR-111" value="Assignment Description" style="text;fontSize=16;verticalAlign=middle;strokeColor=none;fillColor=none;whiteSpace=wrap;html=1;fontColor=#777777;" parent="xpdC7RBl3pSv2nzIEJfl-2" vertex="1">
          <mxGeometry x="330" y="479" width="280" height="30" as="geometry" />
        </mxCell>
        <mxCell id="KKMostgsAliUa-eR8eAR-112" value="" style="dashed=0;shape=line;strokeWidth=1;noLabel=1;strokeColor=#eeeeee;" parent="xpdC7RBl3pSv2nzIEJfl-2" vertex="1">
          <mxGeometry x="330" y="504" width="280" height="10" as="geometry" />
        </mxCell>
        <mxCell id="KKMostgsAliUa-eR8eAR-113" value="&lt;font style=&quot;font-size: 16px;&quot;&gt;Assignment Module&lt;/font&gt;" style="html=1;shadow=0;dashed=0;shape=mxgraph.bootstrap.rrect;rSize=5;strokeColor=#777777;strokeWidth=0;fillColor=#ffffff;fontColor=#777777;whiteSpace=wrap;align=left;verticalAlign=middle;fontStyle=0;fontSize=18;spacing=20;" parent="xpdC7RBl3pSv2nzIEJfl-2" vertex="1">
          <mxGeometry x="20" y="438.5" width="350" height="30" as="geometry" />
        </mxCell>
        <mxCell id="KKMostgsAliUa-eR8eAR-114" value="" style="shape=triangle;direction=south;fillColor=#495057;strokeColor=none;perimeter=none;" parent="KKMostgsAliUa-eR8eAR-113" vertex="1">
          <mxGeometry x="1" y="0.5" width="10" height="5" relative="1" as="geometry">
            <mxPoint x="-17" y="-2.5" as="offset" />
          </mxGeometry>
        </mxCell>
        <mxCell id="KKMostgsAliUa-eR8eAR-115" value="&lt;font style=&quot;color: rgb(119, 119, 119);&quot;&gt;&lt;b&gt;Can not find Module? Add new module to update module list for selected course&lt;/b&gt;&lt;/font&gt;" style="text;html=1;align=left;verticalAlign=middle;whiteSpace=wrap;rounded=0;" parent="xpdC7RBl3pSv2nzIEJfl-2" vertex="1">
          <mxGeometry x="373" y="439" width="240" height="30" as="geometry" />
        </mxCell>
        <mxCell id="KKMostgsAliUa-eR8eAR-116" value="&lt;font style=&quot;font-size: 16px;&quot;&gt;Assignment Type (individual / Group / Quiz)&lt;/font&gt;" style="html=1;shadow=0;dashed=0;shape=mxgraph.bootstrap.rrect;rSize=5;strokeColor=#777777;strokeWidth=0;fillColor=#ffffff;fontColor=#777777;whiteSpace=wrap;align=left;verticalAlign=middle;fontStyle=0;fontSize=18;spacing=20;" parent="xpdC7RBl3pSv2nzIEJfl-2" vertex="1">
          <mxGeometry x="20" y="560" width="590" height="30" as="geometry" />
        </mxCell>
        <mxCell id="KKMostgsAliUa-eR8eAR-117" value="" style="shape=triangle;direction=south;fillColor=#495057;strokeColor=none;perimeter=none;" parent="KKMostgsAliUa-eR8eAR-116" vertex="1">
          <mxGeometry x="1" y="0.5" width="10" height="5" relative="1" as="geometry">
            <mxPoint x="-17" y="-2.5" as="offset" />
          </mxGeometry>
        </mxCell>
        <mxCell id="KKMostgsAliUa-eR8eAR-120" value="Assignment Start Date" style="text;fontSize=16;verticalAlign=middle;strokeColor=none;fillColor=none;whiteSpace=wrap;html=1;fontColor=#777777;" parent="xpdC7RBl3pSv2nzIEJfl-2" vertex="1">
          <mxGeometry x="20" y="520" width="280" height="30" as="geometry" />
        </mxCell>
        <mxCell id="KKMostgsAliUa-eR8eAR-121" value="" style="dashed=0;shape=line;strokeWidth=1;noLabel=1;strokeColor=#eeeeee;" parent="xpdC7RBl3pSv2nzIEJfl-2" vertex="1">
          <mxGeometry x="20" y="545" width="280" height="10" as="geometry" />
        </mxCell>
        <mxCell id="KKMostgsAliUa-eR8eAR-122" value="" style="shape=mxgraph.gmdl.calendar;fillColor=#5A6881;strokeColor=none;sketch=0;hachureGap=4;pointerEvents=0;fontFamily=Architects Daughter;fontSource=https%3A%2F%2Ffonts.googleapis.com%2Fcss%3Ffamily%3DArchitects%2BDaughter;fontSize=20;" parent="xpdC7RBl3pSv2nzIEJfl-2" vertex="1">
          <mxGeometry x="270" y="526" width="18" height="18" as="geometry" />
        </mxCell>
        <mxCell id="KKMostgsAliUa-eR8eAR-123" value="Assignment&amp;nbsp;End Date" style="text;fontSize=16;verticalAlign=middle;strokeColor=none;fillColor=none;whiteSpace=wrap;html=1;fontColor=#777777;" parent="xpdC7RBl3pSv2nzIEJfl-2" vertex="1">
          <mxGeometry x="330" y="520" width="280" height="30" as="geometry" />
        </mxCell>
        <mxCell id="KKMostgsAliUa-eR8eAR-124" value="" style="dashed=0;shape=line;strokeWidth=1;noLabel=1;strokeColor=#eeeeee;" parent="xpdC7RBl3pSv2nzIEJfl-2" vertex="1">
          <mxGeometry x="330" y="545" width="280" height="10" as="geometry" />
        </mxCell>
        <mxCell id="KKMostgsAliUa-eR8eAR-125" value="" style="shape=mxgraph.gmdl.calendar;fillColor=#5A6881;strokeColor=none;sketch=0;hachureGap=4;pointerEvents=0;fontFamily=Architects Daughter;fontSource=https%3A%2F%2Ffonts.googleapis.com%2Fcss%3Ffamily%3DArchitects%2BDaughter;fontSize=20;" parent="xpdC7RBl3pSv2nzIEJfl-2" vertex="1">
          <mxGeometry x="580" y="526" width="18" height="18" as="geometry" />
        </mxCell>
        <mxCell id="KKMostgsAliUa-eR8eAR-126" value="&lt;font style=&quot;font-size: 16px;&quot;&gt;Max Upload Size for Assignment (MBs)&lt;/font&gt;" style="html=1;shadow=0;dashed=0;shape=mxgraph.bootstrap.rrect;rSize=5;strokeColor=#777777;strokeWidth=0;fillColor=#ffffff;fontColor=#777777;whiteSpace=wrap;align=left;verticalAlign=middle;fontStyle=0;fontSize=18;spacing=20;" parent="xpdC7RBl3pSv2nzIEJfl-2" vertex="1">
          <mxGeometry x="20" y="600" width="590" height="30" as="geometry" />
        </mxCell>
        <mxCell id="KKMostgsAliUa-eR8eAR-127" value="" style="shape=triangle;direction=south;fillColor=#495057;strokeColor=none;perimeter=none;" parent="KKMostgsAliUa-eR8eAR-126" vertex="1">
          <mxGeometry x="1" y="0.5" width="10" height="5" relative="1" as="geometry">
            <mxPoint x="-17" y="-2.5" as="offset" />
          </mxGeometry>
        </mxCell>
        <mxCell id="KKMostgsAliUa-eR8eAR-128" value="&lt;font style=&quot;font-size: 16px;&quot;&gt;Allowed file type for Assignment (Docx / PDF / PPTx / ZIP)&lt;/font&gt;" style="html=1;shadow=0;dashed=0;shape=mxgraph.bootstrap.rrect;rSize=5;strokeColor=#777777;strokeWidth=0;fillColor=#ffffff;fontColor=#777777;whiteSpace=wrap;align=left;verticalAlign=middle;fontStyle=0;fontSize=18;spacing=20;" parent="xpdC7RBl3pSv2nzIEJfl-2" vertex="1">
          <mxGeometry x="20" y="640" width="590" height="30" as="geometry" />
        </mxCell>
        <mxCell id="KKMostgsAliUa-eR8eAR-129" value="" style="shape=triangle;direction=south;fillColor=#495057;strokeColor=none;perimeter=none;" parent="KKMostgsAliUa-eR8eAR-128" vertex="1">
          <mxGeometry x="1" y="0.5" width="10" height="5" relative="1" as="geometry">
            <mxPoint x="-17" y="-2.5" as="offset" />
          </mxGeometry>
        </mxCell>
        <mxCell id="hJl6qchvrtmznTvasTqu-0" value="" style="fillColor=#777777;strokeColor=none;rounded=1;arcSize=50;sketch=0;hachureGap=4;pointerEvents=0;fontFamily=Architects Daughter;fontSource=https%3A%2F%2Ffonts.googleapis.com%2Fcss%3Ffamily%3DArchitects%2BDaughter;fontSize=20;" parent="xpdC7RBl3pSv2nzIEJfl-2" vertex="1">
          <mxGeometry x="240" y="876" width="60" height="16" as="geometry" />
        </mxCell>
        <mxCell id="hJl6qchvrtmznTvasTqu-1" value="" style="shape=ellipse;strokeColor=none;fillColor=#ffffff;sketch=0;hachureGap=4;pointerEvents=0;fontFamily=Architects Daughter;fontSource=https%3A%2F%2Ffonts.googleapis.com%2Fcss%3Ffamily%3DArchitects%2BDaughter;fontSize=20;" parent="hJl6qchvrtmznTvasTqu-0" vertex="1">
          <mxGeometry x="1" y="0.5" width="12" height="12" relative="1" as="geometry">
            <mxPoint x="-14" y="-6" as="offset" />
          </mxGeometry>
        </mxCell>
        <mxCell id="hJl6qchvrtmznTvasTqu-2" value="" style="html=1;shadow=0;dashed=0;shape=mxgraph.atlassian.check;strokeColor=#ffffff;sketch=1;hachureGap=4;pointerEvents=0;fontFamily=Architects Daughter;fontSource=https%3A%2F%2Ffonts.googleapis.com%2Fcss%3Ffamily%3DArchitects%2BDaughter;fontSize=20;" parent="hJl6qchvrtmznTvasTqu-0" vertex="1">
          <mxGeometry y="0.5" width="6" height="5" relative="1" as="geometry">
            <mxPoint x="4" y="-3" as="offset" />
          </mxGeometry>
        </mxCell>
        <mxCell id="hJl6qchvrtmznTvasTqu-3" value="Multiple Attempts" style="text;html=1;align=left;verticalAlign=middle;whiteSpace=wrap;rounded=0;fontColor=#777777;fontSize=16;" parent="xpdC7RBl3pSv2nzIEJfl-2" vertex="1">
          <mxGeometry x="20" y="869" width="130" height="30" as="geometry" />
        </mxCell>
        <mxCell id="hJl6qchvrtmznTvasTqu-4" value="" style="fillColor=#777777;strokeColor=none;rounded=1;arcSize=50;sketch=0;hachureGap=4;pointerEvents=0;fontFamily=Architects Daughter;fontSource=https%3A%2F%2Ffonts.googleapis.com%2Fcss%3Ffamily%3DArchitects%2BDaughter;fontSize=20;" parent="xpdC7RBl3pSv2nzIEJfl-2" vertex="1">
          <mxGeometry x="553" y="873" width="60" height="16" as="geometry" />
        </mxCell>
        <mxCell id="hJl6qchvrtmznTvasTqu-5" value="" style="shape=ellipse;strokeColor=none;fillColor=#ffffff;sketch=0;hachureGap=4;pointerEvents=0;fontFamily=Architects Daughter;fontSource=https%3A%2F%2Ffonts.googleapis.com%2Fcss%3Ffamily%3DArchitects%2BDaughter;fontSize=20;" parent="hJl6qchvrtmznTvasTqu-4" vertex="1">
          <mxGeometry x="1" y="0.5" width="12" height="12" relative="1" as="geometry">
            <mxPoint x="-14" y="-6" as="offset" />
          </mxGeometry>
        </mxCell>
        <mxCell id="hJl6qchvrtmznTvasTqu-6" value="" style="html=1;shadow=0;dashed=0;shape=mxgraph.atlassian.check;strokeColor=#ffffff;sketch=1;hachureGap=4;pointerEvents=0;fontFamily=Architects Daughter;fontSource=https%3A%2F%2Ffonts.googleapis.com%2Fcss%3Ffamily%3DArchitects%2BDaughter;fontSize=20;" parent="hJl6qchvrtmznTvasTqu-4" vertex="1">
          <mxGeometry y="0.5" width="6" height="5" relative="1" as="geometry">
            <mxPoint x="4" y="-3" as="offset" />
          </mxGeometry>
        </mxCell>
        <mxCell id="hJl6qchvrtmznTvasTqu-7" value="Plagiarism Check " style="text;html=1;align=left;verticalAlign=middle;whiteSpace=wrap;rounded=0;fontColor=#777777;fontSize=16;" parent="xpdC7RBl3pSv2nzIEJfl-2" vertex="1">
          <mxGeometry x="330" y="866" width="130" height="30" as="geometry" />
        </mxCell>
        <mxCell id="hJl6qchvrtmznTvasTqu-9" value="" style="fillColor=#777777;strokeColor=none;rounded=1;arcSize=50;sketch=0;hachureGap=4;pointerEvents=0;fontFamily=Architects Daughter;fontSource=https%3A%2F%2Ffonts.googleapis.com%2Fcss%3Ffamily%3DArchitects%2BDaughter;fontSize=20;" parent="xpdC7RBl3pSv2nzIEJfl-2" vertex="1">
          <mxGeometry x="240" y="906" width="60" height="16" as="geometry" />
        </mxCell>
        <mxCell id="hJl6qchvrtmznTvasTqu-10" value="" style="shape=ellipse;strokeColor=none;fillColor=#ffffff;sketch=0;hachureGap=4;pointerEvents=0;fontFamily=Architects Daughter;fontSource=https%3A%2F%2Ffonts.googleapis.com%2Fcss%3Ffamily%3DArchitects%2BDaughter;fontSize=20;" parent="hJl6qchvrtmznTvasTqu-9" vertex="1">
          <mxGeometry x="1" y="0.5" width="12" height="12" relative="1" as="geometry">
            <mxPoint x="-14" y="-6" as="offset" />
          </mxGeometry>
        </mxCell>
        <mxCell id="hJl6qchvrtmznTvasTqu-11" value="" style="html=1;shadow=0;dashed=0;shape=mxgraph.atlassian.check;strokeColor=#ffffff;sketch=1;hachureGap=4;pointerEvents=0;fontFamily=Architects Daughter;fontSource=https%3A%2F%2Ffonts.googleapis.com%2Fcss%3Ffamily%3DArchitects%2BDaughter;fontSize=20;" parent="hJl6qchvrtmznTvasTqu-9" vertex="1">
          <mxGeometry y="0.5" width="6" height="5" relative="1" as="geometry">
            <mxPoint x="4" y="-3" as="offset" />
          </mxGeometry>
        </mxCell>
        <mxCell id="hJl6qchvrtmznTvasTqu-12" value="Assigment Visibility" style="text;html=1;align=left;verticalAlign=middle;whiteSpace=wrap;rounded=0;fontColor=#777777;fontSize=16;" parent="xpdC7RBl3pSv2nzIEJfl-2" vertex="1">
          <mxGeometry x="20" y="899" width="150" height="30" as="geometry" />
        </mxCell>
        <mxCell id="hJl6qchvrtmznTvasTqu-13" value="&lt;h1 style=&quot;margin-top: 0px;&quot;&gt;&lt;font style=&quot;font-size: 18px;&quot;&gt;Assignments in selected Module / Section&lt;/font&gt;&lt;/h1&gt;&lt;p&gt;&lt;font style=&quot;font-size: 16px;&quot;&gt;&lt;span style=&quot;background-color: transparent; color: light-dark(rgb(119, 119, 119), rgb(135, 135, 135));&quot;&gt;Assignment&amp;nbsp; 1 - Research Essay&lt;/span&gt;&lt;/font&gt;&lt;/p&gt;&lt;p&gt;&lt;span style=&quot;font-size: 16px;&quot;&gt;Assignment&amp;nbsp; 2 - Environment&lt;/span&gt;&lt;/p&gt;&lt;p&gt;&lt;span style=&quot;font-size: 16px;&quot;&gt;Assignment&amp;nbsp; 3 - Business Analysis&lt;/span&gt;&lt;/p&gt;&lt;p&gt;&lt;font style=&quot;font-size: 16px;&quot;&gt;&lt;span style=&quot;background-color: transparent; color: light-dark(rgb(119, 119, 119), rgb(135, 135, 135));&quot;&gt;&lt;br&gt;&lt;/span&gt;&lt;/font&gt;&lt;/p&gt;" style="text;html=1;whiteSpace=wrap;overflow=hidden;rounded=0;fontColor=#777777;" parent="xpdC7RBl3pSv2nzIEJfl-2" vertex="1">
          <mxGeometry x="680" y="509" width="370" height="140" as="geometry" />
        </mxCell>
        <mxCell id="hJl6qchvrtmznTvasTqu-14" value="" style="dashed=0;shape=line;strokeWidth=1;noLabel=1;strokeColor=#cccccc;opacity=50;fontSize=14;" parent="xpdC7RBl3pSv2nzIEJfl-2" vertex="1">
          <mxGeometry x="680" y="581" width="357" height="1" as="geometry" />
        </mxCell>
        <mxCell id="hJl6qchvrtmznTvasTqu-15" value="" style="dashed=0;shape=line;strokeWidth=1;noLabel=1;strokeColor=#cccccc;opacity=50;fontSize=14;" parent="xpdC7RBl3pSv2nzIEJfl-2" vertex="1">
          <mxGeometry x="680" y="611" width="357" height="1" as="geometry" />
        </mxCell>
        <mxCell id="hJl6qchvrtmznTvasTqu-16" value="" style="dashed=0;shape=line;strokeWidth=1;noLabel=1;strokeColor=#cccccc;opacity=50;fontSize=14;" parent="xpdC7RBl3pSv2nzIEJfl-2" vertex="1">
          <mxGeometry x="680" y="642" width="357" height="1" as="geometry" />
        </mxCell>
        <mxCell id="hJl6qchvrtmznTvasTqu-17" value="" style="sketch=0;pointerEvents=1;shadow=0;dashed=0;html=1;strokeColor=none;fillColor=#505050;labelPosition=center;verticalLabelPosition=bottom;verticalAlign=top;outlineConnect=0;align=center;shape=mxgraph.office.concepts.writing_pencil;" parent="xpdC7RBl3pSv2nzIEJfl-2" vertex="1">
          <mxGeometry x="990" y="563" width="17" height="15" as="geometry" />
        </mxCell>
        <mxCell id="hJl6qchvrtmznTvasTqu-18" value="" style="sketch=0;pointerEvents=1;shadow=0;dashed=0;html=1;strokeColor=none;fillColor=#505050;labelPosition=center;verticalLabelPosition=bottom;verticalAlign=top;outlineConnect=0;align=center;shape=mxgraph.office.concepts.writing_pencil;" parent="xpdC7RBl3pSv2nzIEJfl-2" vertex="1">
          <mxGeometry x="990" y="593" width="17" height="15" as="geometry" />
        </mxCell>
        <mxCell id="hJl6qchvrtmznTvasTqu-19" value="" style="sketch=0;pointerEvents=1;shadow=0;dashed=0;html=1;strokeColor=none;fillColor=#505050;labelPosition=center;verticalLabelPosition=bottom;verticalAlign=top;outlineConnect=0;align=center;shape=mxgraph.office.concepts.writing_pencil;" parent="xpdC7RBl3pSv2nzIEJfl-2" vertex="1">
          <mxGeometry x="990" y="620.5" width="17" height="15" as="geometry" />
        </mxCell>
        <mxCell id="hJl6qchvrtmznTvasTqu-20" value="" style="verticalLabelPosition=bottom;verticalAlign=top;html=1;shadow=0;dashed=0;strokeWidth=1;shape=mxgraph.ios.iDeleteApp;fillColor=#cccccc;fillColor2=#000000;strokeColor=#ffffff;sketch=0;" parent="xpdC7RBl3pSv2nzIEJfl-2" vertex="1">
          <mxGeometry x="1020" y="561" width="17" height="17" as="geometry" />
        </mxCell>
        <mxCell id="hJl6qchvrtmznTvasTqu-21" value="" style="verticalLabelPosition=bottom;verticalAlign=top;html=1;shadow=0;dashed=0;strokeWidth=1;shape=mxgraph.ios.iDeleteApp;fillColor=#cccccc;fillColor2=#000000;strokeColor=#ffffff;sketch=0;" parent="xpdC7RBl3pSv2nzIEJfl-2" vertex="1">
          <mxGeometry x="1020" y="591" width="17" height="17" as="geometry" />
        </mxCell>
        <mxCell id="hJl6qchvrtmznTvasTqu-22" value="" style="verticalLabelPosition=bottom;verticalAlign=top;html=1;shadow=0;dashed=0;strokeWidth=1;shape=mxgraph.ios.iDeleteApp;fillColor=#cccccc;fillColor2=#000000;strokeColor=#ffffff;sketch=0;" parent="xpdC7RBl3pSv2nzIEJfl-2" vertex="1">
          <mxGeometry x="1020" y="620.5" width="17" height="17" as="geometry" />
        </mxCell>
        <mxCell id="hJl6qchvrtmznTvasTqu-23" value="" style="fillColor=#777777;strokeColor=none;rounded=1;arcSize=50;sketch=0;hachureGap=4;pointerEvents=0;fontFamily=Architects Daughter;fontSource=https%3A%2F%2Ffonts.googleapis.com%2Fcss%3Ffamily%3DArchitects%2BDaughter;fontSize=20;" parent="xpdC7RBl3pSv2nzIEJfl-2" vertex="1">
          <mxGeometry x="553" y="906" width="60" height="16" as="geometry" />
        </mxCell>
        <mxCell id="hJl6qchvrtmznTvasTqu-24" value="" style="shape=ellipse;strokeColor=none;fillColor=#ffffff;sketch=0;hachureGap=4;pointerEvents=0;fontFamily=Architects Daughter;fontSource=https%3A%2F%2Ffonts.googleapis.com%2Fcss%3Ffamily%3DArchitects%2BDaughter;fontSize=20;" parent="hJl6qchvrtmznTvasTqu-23" vertex="1">
          <mxGeometry x="1" y="0.5" width="12" height="12" relative="1" as="geometry">
            <mxPoint x="-14" y="-6" as="offset" />
          </mxGeometry>
        </mxCell>
        <mxCell id="hJl6qchvrtmznTvasTqu-25" value="" style="html=1;shadow=0;dashed=0;shape=mxgraph.atlassian.check;strokeColor=#ffffff;sketch=1;hachureGap=4;pointerEvents=0;fontFamily=Architects Daughter;fontSource=https%3A%2F%2Ffonts.googleapis.com%2Fcss%3Ffamily%3DArchitects%2BDaughter;fontSize=20;" parent="hJl6qchvrtmznTvasTqu-23" vertex="1">
          <mxGeometry y="0.5" width="6" height="5" relative="1" as="geometry">
            <mxPoint x="4" y="-3" as="offset" />
          </mxGeometry>
        </mxCell>
        <mxCell id="hJl6qchvrtmznTvasTqu-26" value="Allow Late Submission" style="text;html=1;align=left;verticalAlign=middle;whiteSpace=wrap;rounded=0;fontColor=#777777;fontSize=16;" parent="xpdC7RBl3pSv2nzIEJfl-2" vertex="1">
          <mxGeometry x="331" y="899" width="175" height="30" as="geometry" />
        </mxCell>
        <mxCell id="hJl6qchvrtmznTvasTqu-27" value="&lt;font style=&quot;font-size: 16px;&quot;&gt;Save Assignment&lt;/font&gt;" style="rounded=1;html=1;shadow=0;dashed=0;whiteSpace=wrap;fontSize=10;fillColor=#F4F4F4;align=center;strokeColor=#E6E6E6;fontColor=#000000;" parent="xpdC7RBl3pSv2nzIEJfl-2" vertex="1">
          <mxGeometry x="20" y="932" width="590" height="30" as="geometry" />
        </mxCell>
        <mxCell id="hJl6qchvrtmznTvasTqu-28" value="&lt;font style=&quot;font-size: 16px;&quot;&gt;Save Course&lt;/font&gt;" style="rounded=1;fillColor=#0057D8;strokeColor=none;html=1;whiteSpace=wrap;fontColor=#ffffff;align=center;verticalAlign=middle;fontStyle=0;fontSize=12;sketch=0;" parent="xpdC7RBl3pSv2nzIEJfl-2" vertex="1">
          <mxGeometry x="20" y="972" width="180" height="33" as="geometry" />
        </mxCell>
        <mxCell id="hJl6qchvrtmznTvasTqu-29" value="&lt;font style=&quot;font-size: 16px;&quot;&gt;Save Draft&lt;/font&gt;" style="rounded=1;fillColor=#f0a30a;strokeColor=#BD7000;html=1;whiteSpace=wrap;fontColor=#000000;align=center;verticalAlign=middle;fontStyle=0;fontSize=12;sketch=0;" parent="xpdC7RBl3pSv2nzIEJfl-2" vertex="1">
          <mxGeometry x="210" y="972" width="180" height="33" as="geometry" />
        </mxCell>
        <mxCell id="hJl6qchvrtmznTvasTqu-30" value="&lt;font style=&quot;font-size: 16px;&quot;&gt;Save and Publish&lt;/font&gt;" style="rounded=1;fillColor=#008a00;strokeColor=#005700;html=1;whiteSpace=wrap;fontColor=#ffffff;align=center;verticalAlign=middle;fontStyle=0;fontSize=12;sketch=0;" parent="xpdC7RBl3pSv2nzIEJfl-2" vertex="1">
          <mxGeometry x="400" y="972" width="213" height="33" as="geometry" />
        </mxCell>
        <mxCell id="EnCFxHyq8FjBLtla5pif-0" value="&lt;h1 style=&quot;margin-top: 0px;&quot;&gt;&lt;font style=&quot;font-size: 18px; color: rgb(119, 119, 119);&quot;&gt;Assignments Contents&lt;/font&gt;&lt;/h1&gt;&lt;p&gt;&lt;font style=&quot;font-size: 16px; color: rgb(119, 119, 119);&quot;&gt;&lt;span style=&quot;background-color: transparent;&quot;&gt;Module 1 - Assignment 1 Title - Assignment 1 Description&amp;nbsp; &amp;nbsp; &amp;nbsp; &amp;nbsp; &amp;nbsp; &amp;nbsp; (PDF)&amp;nbsp; &amp;nbsp; &amp;nbsp; &amp;nbsp;&lt;/span&gt;&lt;/font&gt;&lt;/p&gt;&lt;p&gt;&lt;span style=&quot;color: rgb(119, 119, 119); font-size: 16px;&quot;&gt;Module 1 - Assignment 2 Title - Assignment 2 Description&amp;nbsp; &amp;nbsp; &amp;nbsp; &amp;nbsp; &amp;nbsp; &amp;nbsp; (DOCX)&lt;/span&gt;&lt;/p&gt;&lt;p&gt;&lt;span style=&quot;color: rgb(119, 119, 119); font-size: 16px;&quot;&gt;Module 1 - Assignment 3 Title - Assignment 3 Description&amp;nbsp; &amp;nbsp; &amp;nbsp; &amp;nbsp; &amp;nbsp; &amp;nbsp; (MP4)&lt;/span&gt;&lt;/p&gt;" style="text;html=1;whiteSpace=wrap;overflow=hidden;rounded=0;fillColor=#f5f5f5;strokeColor=none;fontColor=#333333;" vertex="1" parent="xpdC7RBl3pSv2nzIEJfl-2">
          <mxGeometry x="20" y="717" width="590" height="140" as="geometry" />
        </mxCell>
        <mxCell id="r23x7Qc2iUY5r7CxlYEo-0" value="&lt;font style=&quot;font-size: 16px;&quot;&gt;Upload Assignment Files (PDF / DOCS / PPTX / MP4 .....)&lt;/font&gt;" style="rounded=1;html=1;shadow=0;dashed=0;whiteSpace=wrap;fontSize=10;fillColor=#F4F4F4;align=center;strokeColor=#E6E6E6;fontColor=#000000;" vertex="1" parent="xpdC7RBl3pSv2nzIEJfl-2">
          <mxGeometry x="20" y="680" width="590" height="30" as="geometry" />
        </mxCell>
        <mxCell id="r23x7Qc2iUY5r7CxlYEo-1" value="" style="sketch=0;pointerEvents=1;shadow=0;dashed=0;html=1;strokeColor=none;fillColor=#505050;labelPosition=center;verticalLabelPosition=bottom;verticalAlign=top;outlineConnect=0;align=center;shape=mxgraph.office.concepts.upload;" vertex="1" parent="xpdC7RBl3pSv2nzIEJfl-2">
          <mxGeometry x="576" y="684" width="20" height="20" as="geometry" />
        </mxCell>
        <mxCell id="idTIK5lgV911qY8dfyt_-0" value="" style="dashed=0;shape=line;strokeWidth=1;noLabel=1;strokeColor=#cccccc;opacity=50;fontSize=14;" vertex="1" parent="xpdC7RBl3pSv2nzIEJfl-2">
          <mxGeometry x="23" y="790" width="567" height="1" as="geometry" />
        </mxCell>
        <mxCell id="idTIK5lgV911qY8dfyt_-1" value="" style="dashed=0;shape=line;strokeWidth=1;noLabel=1;strokeColor=#cccccc;opacity=50;fontSize=14;" vertex="1" parent="xpdC7RBl3pSv2nzIEJfl-2">
          <mxGeometry x="20" y="820" width="567" height="1" as="geometry" />
        </mxCell>
        <mxCell id="idTIK5lgV911qY8dfyt_-2" value="" style="dashed=0;shape=line;strokeWidth=1;noLabel=1;strokeColor=#cccccc;opacity=50;fontSize=14;" vertex="1" parent="xpdC7RBl3pSv2nzIEJfl-2">
          <mxGeometry x="23" y="851" width="567" height="1" as="geometry" />
        </mxCell>
        <mxCell id="idTIK5lgV911qY8dfyt_-3" value="" style="verticalLabelPosition=bottom;verticalAlign=top;html=1;shadow=0;dashed=0;strokeWidth=1;shape=mxgraph.ios.iDeleteApp;fillColor=#cccccc;fillColor2=#000000;strokeColor=#ffffff;sketch=0;" vertex="1" parent="xpdC7RBl3pSv2nzIEJfl-2">
          <mxGeometry x="570" y="770" width="17" height="17" as="geometry" />
        </mxCell>
        <mxCell id="idTIK5lgV911qY8dfyt_-4" value="" style="verticalLabelPosition=bottom;verticalAlign=top;html=1;shadow=0;dashed=0;strokeWidth=1;shape=mxgraph.ios.iDeleteApp;fillColor=#cccccc;fillColor2=#000000;strokeColor=#ffffff;sketch=0;" vertex="1" parent="xpdC7RBl3pSv2nzIEJfl-2">
          <mxGeometry x="570" y="802" width="17" height="17" as="geometry" />
        </mxCell>
        <mxCell id="idTIK5lgV911qY8dfyt_-5" value="" style="verticalLabelPosition=bottom;verticalAlign=top;html=1;shadow=0;dashed=0;strokeWidth=1;shape=mxgraph.ios.iDeleteApp;fillColor=#cccccc;fillColor2=#000000;strokeColor=#ffffff;sketch=0;" vertex="1" parent="xpdC7RBl3pSv2nzIEJfl-2">
          <mxGeometry x="570" y="834" width="17" height="17" as="geometry" />
        </mxCell>
      </root>
    </mxGraphModel>
  </diagram>
  <diagram name="Student Enrollment" id="Cgw-ow3uk15kpwhtKZ23">
    <mxGraphModel dx="1428" dy="841" grid="1" gridSize="10" guides="1" tooltips="1" connect="1" arrows="1" fold="1" page="1" pageScale="1" pageWidth="1100" pageHeight="850" background="none" math="0" shadow="0">
      <root>
        <mxCell id="F3qY9Mem9hA_HSEjM1qW-0" />
        <mxCell id="F3qY9Mem9hA_HSEjM1qW-1" parent="F3qY9Mem9hA_HSEjM1qW-0" />
        <mxCell id="F3qY9Mem9hA_HSEjM1qW-2" value="" style="strokeWidth=1;shadow=0;dashed=0;align=center;html=1;shape=mxgraph.mockup.containers.browserWindow;rSize=0;strokeColor=#666666;mainText=,;recursiveResize=0;rounded=0;labelBackgroundColor=none;fontFamily=Verdana;fontSize=12" vertex="1" parent="F3qY9Mem9hA_HSEjM1qW-1">
          <mxGeometry x="25" y="20" width="1050" height="780" as="geometry" />
        </mxCell>
        <mxCell id="F3qY9Mem9hA_HSEjM1qW-3" value="Student Enrollment" style="strokeWidth=1;shadow=0;dashed=0;align=center;html=1;shape=mxgraph.mockup.containers.anchor;fontSize=17;fontColor=#666666;align=left;" vertex="1" parent="F3qY9Mem9hA_HSEjM1qW-2">
          <mxGeometry x="60" y="12" width="170" height="26" as="geometry" />
        </mxCell>
        <mxCell id="F3qY9Mem9hA_HSEjM1qW-4" value="https://www.default.com" style="strokeWidth=1;shadow=0;dashed=0;align=center;html=1;shape=mxgraph.mockup.containers.anchor;rSize=0;fontSize=17;fontColor=#666666;align=left;" vertex="1" parent="F3qY9Mem9hA_HSEjM1qW-2">
          <mxGeometry x="130" y="60" width="250" height="26" as="geometry" />
        </mxCell>
        <mxCell id="F3qY9Mem9hA_HSEjM1qW-5" value="&lt;font style=&quot;font-size: 20px;&quot;&gt;Student Information&lt;/font&gt;" style="text;html=1;points=[];align=left;verticalAlign=middle;spacingTop=-4;fontSize=30;fontFamily=Verdana;fontColor=#777777;" vertex="1" parent="F3qY9Mem9hA_HSEjM1qW-2">
          <mxGeometry x="13.5" y="130" width="206.5" height="30" as="geometry" />
        </mxCell>
        <mxCell id="F3qY9Mem9hA_HSEjM1qW-6" value="Student ID / Roll No" style="text;fontSize=16;verticalAlign=middle;strokeColor=none;fillColor=none;whiteSpace=wrap;html=1;fontColor=#777777;" vertex="1" parent="F3qY9Mem9hA_HSEjM1qW-2">
          <mxGeometry x="20" y="251" width="280" height="30" as="geometry" />
        </mxCell>
        <mxCell id="F3qY9Mem9hA_HSEjM1qW-7" value="" style="dashed=0;shape=line;strokeWidth=1;noLabel=1;strokeColor=#eeeeee;" vertex="1" parent="F3qY9Mem9hA_HSEjM1qW-2">
          <mxGeometry x="20" y="276" width="280" height="10" as="geometry" />
        </mxCell>
        <mxCell id="F3qY9Mem9hA_HSEjM1qW-8" value="" style="dashed=0;shape=line;strokeWidth=1;noLabel=1;strokeColor=#cccccc;opacity=50;fontSize=14;" vertex="1" parent="F3qY9Mem9hA_HSEjM1qW-2">
          <mxGeometry x="240" y="146" width="370" height="10" as="geometry" />
        </mxCell>
        <mxCell id="F3qY9Mem9hA_HSEjM1qW-9" value="Full Name" style="text;fontSize=16;verticalAlign=middle;strokeColor=none;fillColor=none;whiteSpace=wrap;html=1;fontColor=#777777;" vertex="1" parent="F3qY9Mem9hA_HSEjM1qW-2">
          <mxGeometry x="330" y="251" width="280" height="30" as="geometry" />
        </mxCell>
        <mxCell id="F3qY9Mem9hA_HSEjM1qW-10" value="" style="dashed=0;shape=line;strokeWidth=1;noLabel=1;strokeColor=#eeeeee;" vertex="1" parent="F3qY9Mem9hA_HSEjM1qW-2">
          <mxGeometry x="330" y="276" width="280" height="10" as="geometry" />
        </mxCell>
        <mxCell id="F3qY9Mem9hA_HSEjM1qW-11" value="&lt;font style=&quot;font-size: 16px;&quot;&gt;Department / Faculty&lt;/font&gt;" style="html=1;shadow=0;dashed=0;shape=mxgraph.bootstrap.rrect;rSize=5;strokeColor=#777777;strokeWidth=0;fillColor=#ffffff;fontColor=#777777;whiteSpace=wrap;align=left;verticalAlign=middle;fontStyle=0;fontSize=18;spacing=20;" vertex="1" parent="F3qY9Mem9hA_HSEjM1qW-2">
          <mxGeometry x="20" y="301" width="280" height="30" as="geometry" />
        </mxCell>
        <mxCell id="F3qY9Mem9hA_HSEjM1qW-12" value="" style="shape=triangle;direction=south;fillColor=#495057;strokeColor=none;perimeter=none;" vertex="1" parent="F3qY9Mem9hA_HSEjM1qW-11">
          <mxGeometry x="1" y="0.5" width="10" height="5" relative="1" as="geometry">
            <mxPoint x="-17" y="-2.5" as="offset" />
          </mxGeometry>
        </mxCell>
        <mxCell id="F3qY9Mem9hA_HSEjM1qW-13" value="&lt;font style=&quot;font-size: 16px;&quot;&gt;Academic Term&lt;/font&gt;" style="html=1;shadow=0;dashed=0;shape=mxgraph.bootstrap.rrect;rSize=5;strokeColor=#777777;strokeWidth=0;fillColor=#ffffff;fontColor=#777777;whiteSpace=wrap;align=left;verticalAlign=middle;fontStyle=0;fontSize=18;spacing=20;" vertex="1" parent="F3qY9Mem9hA_HSEjM1qW-2">
          <mxGeometry x="330" y="301" width="280" height="30" as="geometry" />
        </mxCell>
        <mxCell id="F3qY9Mem9hA_HSEjM1qW-14" value="" style="shape=triangle;direction=south;fillColor=#495057;strokeColor=none;perimeter=none;" vertex="1" parent="F3qY9Mem9hA_HSEjM1qW-13">
          <mxGeometry x="1" y="0.5" width="10" height="5" relative="1" as="geometry">
            <mxPoint x="-17" y="-2.5" as="offset" />
          </mxGeometry>
        </mxCell>
        <mxCell id="F3qY9Mem9hA_HSEjM1qW-15" value="Email Address" style="text;fontSize=16;verticalAlign=middle;strokeColor=none;fillColor=none;whiteSpace=wrap;html=1;fontColor=#777777;" vertex="1" parent="F3qY9Mem9hA_HSEjM1qW-2">
          <mxGeometry x="20" y="345" width="590" height="30" as="geometry" />
        </mxCell>
        <mxCell id="F3qY9Mem9hA_HSEjM1qW-16" value="" style="dashed=0;shape=line;strokeWidth=1;noLabel=1;strokeColor=#eeeeee;" vertex="1" parent="F3qY9Mem9hA_HSEjM1qW-2">
          <mxGeometry x="20" y="370" width="590" height="10" as="geometry" />
        </mxCell>
        <mxCell id="F3qY9Mem9hA_HSEjM1qW-25" value="&lt;h1 style=&quot;margin-top: 0px;&quot;&gt;&lt;font style=&quot;font-size: 18px;&quot;&gt;Recently Enrolled Students&lt;/font&gt;&lt;/h1&gt;&lt;div&gt;&lt;font style=&quot;font-size: 18px;&quot;&gt;&lt;br&gt;&lt;/font&gt;&lt;/div&gt;&lt;p&gt;&lt;font style=&quot;font-size: 16px;&quot;&gt;&lt;span style=&quot;background-color: transparent; color: light-dark(rgb(119, 119, 119), rgb(135, 135, 135));&quot;&gt;Student Full Name 1&lt;/span&gt;&lt;/font&gt;&lt;/p&gt;&lt;p&gt;&lt;font style=&quot;font-size: 16px;&quot;&gt;&lt;span style=&quot;background-color: transparent; color: light-dark(rgb(119, 119, 119), rgb(135, 135, 135));&quot;&gt;Student Full Name&lt;/span&gt;&lt;span style=&quot;background-color: transparent; color: light-dark(rgb(119, 119, 119), rgb(135, 135, 135));&quot;&gt;&amp;nbsp;2&lt;/span&gt;&lt;/font&gt;&lt;/p&gt;&lt;p&gt;&lt;font style=&quot;font-size: 16px;&quot;&gt;&lt;span style=&quot;background-color: transparent; color: light-dark(rgb(119, 119, 119), rgb(135, 135, 135));&quot;&gt;Student Full Name&lt;/span&gt;&lt;span style=&quot;background-color: transparent; color: light-dark(rgb(119, 119, 119), rgb(135, 135, 135));&quot;&gt;&amp;nbsp;3&lt;/span&gt;&lt;br&gt;&lt;/font&gt;&lt;/p&gt;&lt;p&gt;&lt;font style=&quot;font-size: 16px;&quot;&gt;&lt;span style=&quot;background-color: transparent; color: light-dark(rgb(119, 119, 119), rgb(135, 135, 135));&quot;&gt;Student Full Name&lt;/span&gt;&lt;span style=&quot;background-color: transparent; color: light-dark(rgb(119, 119, 119), rgb(135, 135, 135));&quot;&gt;&amp;nbsp;4&lt;/span&gt;&lt;/font&gt;&lt;/p&gt;&lt;p&gt;&lt;font style=&quot;font-size: 16px;&quot;&gt;Student Full Name 5&lt;/font&gt;&lt;/p&gt;&lt;p&gt;&lt;font style=&quot;font-size: 16px;&quot;&gt;&lt;span style=&quot;background-color: transparent; color: light-dark(rgb(119, 119, 119), rgb(135, 135, 135));&quot;&gt;Student Full Name&lt;/span&gt;&lt;span style=&quot;background-color: transparent; color: light-dark(rgb(119, 119, 119), rgb(135, 135, 135));&quot;&gt;&amp;nbsp;6&lt;/span&gt;&lt;/font&gt;&lt;/p&gt;&lt;p&gt;&lt;font style=&quot;font-size: 16px;&quot;&gt;&lt;span style=&quot;background-color: transparent; color: light-dark(rgb(119, 119, 119), rgb(135, 135, 135));&quot;&gt;Student Full Name&lt;/span&gt;&lt;span style=&quot;background-color: transparent; color: light-dark(rgb(119, 119, 119), rgb(135, 135, 135));&quot;&gt;&amp;nbsp;7&lt;/span&gt;&lt;br&gt;&lt;/font&gt;&lt;/p&gt;&lt;p&gt;&lt;font style=&quot;font-size: 16px;&quot;&gt;&lt;/font&gt;&lt;/p&gt;&lt;p&gt;&lt;font style=&quot;font-size: 16px;&quot;&gt;&lt;span style=&quot;background-color: transparent; color: light-dark(rgb(119, 119, 119), rgb(135, 135, 135));&quot;&gt;Student Full Name&lt;/span&gt;&lt;span style=&quot;background-color: transparent; color: light-dark(rgb(119, 119, 119), rgb(135, 135, 135));&quot;&gt;&amp;nbsp;8&lt;/span&gt;&lt;/font&gt;&lt;/p&gt;&lt;p&gt;&lt;font style=&quot;font-size: 16px;&quot;&gt;&lt;span style=&quot;background-color: transparent; color: light-dark(rgb(119, 119, 119), rgb(135, 135, 135));&quot;&gt;&lt;br&gt;&lt;/span&gt;&lt;/font&gt;&lt;/p&gt;" style="text;html=1;whiteSpace=wrap;overflow=hidden;rounded=0;fontColor=#777777;" vertex="1" parent="F3qY9Mem9hA_HSEjM1qW-2">
          <mxGeometry x="680" y="120" width="360" height="650" as="geometry" />
        </mxCell>
        <mxCell id="F3qY9Mem9hA_HSEjM1qW-26" value="" style="sketch=0;pointerEvents=1;shadow=0;dashed=0;html=1;strokeColor=none;fillColor=#505050;labelPosition=center;verticalLabelPosition=bottom;verticalAlign=top;outlineConnect=0;align=center;shape=mxgraph.office.concepts.writing_pencil;" vertex="1" parent="F3qY9Mem9hA_HSEjM1qW-2">
          <mxGeometry x="990" y="204" width="17" height="15" as="geometry" />
        </mxCell>
        <mxCell id="F3qY9Mem9hA_HSEjM1qW-27" value="" style="sketch=0;pointerEvents=1;shadow=0;dashed=0;html=1;strokeColor=none;fillColor=#505050;labelPosition=center;verticalLabelPosition=bottom;verticalAlign=top;outlineConnect=0;align=center;shape=mxgraph.office.concepts.writing_pencil;" vertex="1" parent="F3qY9Mem9hA_HSEjM1qW-2">
          <mxGeometry x="990" y="236" width="17" height="15" as="geometry" />
        </mxCell>
        <mxCell id="F3qY9Mem9hA_HSEjM1qW-28" value="" style="sketch=0;pointerEvents=1;shadow=0;dashed=0;html=1;strokeColor=none;fillColor=#505050;labelPosition=center;verticalLabelPosition=bottom;verticalAlign=top;outlineConnect=0;align=center;shape=mxgraph.office.concepts.writing_pencil;" vertex="1" parent="F3qY9Mem9hA_HSEjM1qW-2">
          <mxGeometry x="990" y="263.5" width="17" height="15" as="geometry" />
        </mxCell>
        <mxCell id="F3qY9Mem9hA_HSEjM1qW-29" value="" style="sketch=0;pointerEvents=1;shadow=0;dashed=0;html=1;strokeColor=none;fillColor=#505050;labelPosition=center;verticalLabelPosition=bottom;verticalAlign=top;outlineConnect=0;align=center;shape=mxgraph.office.concepts.writing_pencil;" vertex="1" parent="F3qY9Mem9hA_HSEjM1qW-2">
          <mxGeometry x="990" y="296" width="17" height="15" as="geometry" />
        </mxCell>
        <mxCell id="F3qY9Mem9hA_HSEjM1qW-30" value="" style="verticalLabelPosition=bottom;verticalAlign=top;html=1;shadow=0;dashed=0;strokeWidth=1;shape=mxgraph.ios.iDeleteApp;fillColor=#cccccc;fillColor2=#000000;strokeColor=#ffffff;sketch=0;" vertex="1" parent="F3qY9Mem9hA_HSEjM1qW-2">
          <mxGeometry x="1020" y="202" width="17" height="17" as="geometry" />
        </mxCell>
        <mxCell id="F3qY9Mem9hA_HSEjM1qW-31" value="" style="verticalLabelPosition=bottom;verticalAlign=top;html=1;shadow=0;dashed=0;strokeWidth=1;shape=mxgraph.ios.iDeleteApp;fillColor=#cccccc;fillColor2=#000000;strokeColor=#ffffff;sketch=0;" vertex="1" parent="F3qY9Mem9hA_HSEjM1qW-2">
          <mxGeometry x="1020" y="234" width="17" height="17" as="geometry" />
        </mxCell>
        <mxCell id="F3qY9Mem9hA_HSEjM1qW-32" value="" style="verticalLabelPosition=bottom;verticalAlign=top;html=1;shadow=0;dashed=0;strokeWidth=1;shape=mxgraph.ios.iDeleteApp;fillColor=#cccccc;fillColor2=#000000;strokeColor=#ffffff;sketch=0;" vertex="1" parent="F3qY9Mem9hA_HSEjM1qW-2">
          <mxGeometry x="1020" y="263.5" width="17" height="17" as="geometry" />
        </mxCell>
        <mxCell id="F3qY9Mem9hA_HSEjM1qW-33" value="" style="verticalLabelPosition=bottom;verticalAlign=top;html=1;shadow=0;dashed=0;strokeWidth=1;shape=mxgraph.ios.iDeleteApp;fillColor=#cccccc;fillColor2=#000000;strokeColor=#ffffff;sketch=0;" vertex="1" parent="F3qY9Mem9hA_HSEjM1qW-2">
          <mxGeometry x="1020" y="294" width="17" height="17" as="geometry" />
        </mxCell>
        <mxCell id="F3qY9Mem9hA_HSEjM1qW-34" value="" style="dashed=0;shape=line;strokeWidth=1;noLabel=1;strokeColor=#cccccc;opacity=50;fontSize=14;" vertex="1" parent="F3qY9Mem9hA_HSEjM1qW-2">
          <mxGeometry x="680" y="225" width="357" height="1" as="geometry" />
        </mxCell>
        <mxCell id="F3qY9Mem9hA_HSEjM1qW-35" value="" style="dashed=0;shape=line;strokeWidth=1;noLabel=1;strokeColor=#cccccc;opacity=50;fontSize=14;" vertex="1" parent="F3qY9Mem9hA_HSEjM1qW-2">
          <mxGeometry x="680" y="257" width="357" height="1" as="geometry" />
        </mxCell>
        <mxCell id="F3qY9Mem9hA_HSEjM1qW-36" value="" style="dashed=0;shape=line;strokeWidth=1;noLabel=1;strokeColor=#cccccc;opacity=50;fontSize=14;" vertex="1" parent="F3qY9Mem9hA_HSEjM1qW-2">
          <mxGeometry x="680" y="288" width="357" height="1" as="geometry" />
        </mxCell>
        <mxCell id="F3qY9Mem9hA_HSEjM1qW-37" value="" style="dashed=0;shape=line;strokeWidth=1;noLabel=1;strokeColor=#cccccc;opacity=50;fontSize=14;" vertex="1" parent="F3qY9Mem9hA_HSEjM1qW-2">
          <mxGeometry x="680" y="321" width="357" height="1" as="geometry" />
        </mxCell>
        <mxCell id="F3qY9Mem9hA_HSEjM1qW-55" value="&lt;font style=&quot;font-size: 16px;&quot;&gt;Academic Program (BBA / MBA..)&lt;/font&gt;" style="html=1;shadow=0;dashed=0;shape=mxgraph.bootstrap.rrect;rSize=5;strokeColor=#777777;strokeWidth=0;fillColor=#ffffff;fontColor=#777777;whiteSpace=wrap;align=left;verticalAlign=middle;fontStyle=0;fontSize=18;spacing=20;" vertex="1" parent="F3qY9Mem9hA_HSEjM1qW-2">
          <mxGeometry x="20" y="391" width="280" height="30" as="geometry" />
        </mxCell>
        <mxCell id="F3qY9Mem9hA_HSEjM1qW-56" value="" style="shape=triangle;direction=south;fillColor=#495057;strokeColor=none;perimeter=none;" vertex="1" parent="F3qY9Mem9hA_HSEjM1qW-55">
          <mxGeometry x="1" y="0.5" width="10" height="5" relative="1" as="geometry">
            <mxPoint x="-17" y="-2.5" as="offset" />
          </mxGeometry>
        </mxCell>
        <mxCell id="F3qY9Mem9hA_HSEjM1qW-96" value="&lt;font style=&quot;font-size: 16px;&quot;&gt;Upload Documents&lt;/font&gt;" style="rounded=1;html=1;shadow=0;dashed=0;whiteSpace=wrap;fontSize=10;fillColor=#F4F4F4;align=center;strokeColor=#E6E6E6;fontColor=#000000;" vertex="1" parent="F3qY9Mem9hA_HSEjM1qW-2">
          <mxGeometry x="20" y="509" width="590" height="30" as="geometry" />
        </mxCell>
        <mxCell id="F3qY9Mem9hA_HSEjM1qW-98" value="&lt;font style=&quot;font-size: 16px;&quot;&gt;Import from Student Information System (SIS)&lt;/font&gt;" style="rounded=1;fillColor=#f0a30a;strokeColor=#BD7000;html=1;whiteSpace=wrap;fontColor=#000000;align=center;verticalAlign=middle;fontStyle=0;fontSize=12;sketch=0;" vertex="1" parent="F3qY9Mem9hA_HSEjM1qW-2">
          <mxGeometry x="13.5" y="175" width="596.5" height="33" as="geometry" />
        </mxCell>
        <mxCell id="F3qY9Mem9hA_HSEjM1qW-99" value="&lt;font style=&quot;font-size: 16px;&quot;&gt;Enroll Student&lt;/font&gt;" style="rounded=1;fillColor=#008a00;strokeColor=#005700;html=1;whiteSpace=wrap;fontColor=#ffffff;align=center;verticalAlign=middle;fontStyle=0;fontSize=12;sketch=0;" vertex="1" parent="F3qY9Mem9hA_HSEjM1qW-2">
          <mxGeometry x="20" y="728" width="590" height="33" as="geometry" />
        </mxCell>
        <mxCell id="j8eCqcW9dTLpRj1eg6rH-0" value="&lt;font style=&quot;font-size: 16px;&quot;&gt;Semester (1st /2nd ....)&lt;/font&gt;" style="html=1;shadow=0;dashed=0;shape=mxgraph.bootstrap.rrect;rSize=5;strokeColor=#777777;strokeWidth=0;fillColor=#ffffff;fontColor=#777777;whiteSpace=wrap;align=left;verticalAlign=middle;fontStyle=0;fontSize=18;spacing=20;" vertex="1" parent="F3qY9Mem9hA_HSEjM1qW-2">
          <mxGeometry x="330" y="391" width="280" height="30" as="geometry" />
        </mxCell>
        <mxCell id="j8eCqcW9dTLpRj1eg6rH-1" value="" style="shape=triangle;direction=south;fillColor=#495057;strokeColor=none;perimeter=none;" vertex="1" parent="j8eCqcW9dTLpRj1eg6rH-0">
          <mxGeometry x="1" y="0.5" width="10" height="5" relative="1" as="geometry">
            <mxPoint x="-17" y="-2.5" as="offset" />
          </mxGeometry>
        </mxCell>
        <mxCell id="j8eCqcW9dTLpRj1eg6rH-91" value="Enrollment Type" style="text;fontSize=16;verticalAlign=middle;strokeColor=none;fillColor=none;whiteSpace=wrap;html=1;fontColor=#777777;" vertex="1" parent="F3qY9Mem9hA_HSEjM1qW-2">
          <mxGeometry x="20" y="434" width="130" height="30" as="geometry" />
        </mxCell>
        <mxCell id="j8eCqcW9dTLpRj1eg6rH-92" value="&lt;font style=&quot;color: rgb(119, 119, 119);&quot;&gt;Regular&lt;/font&gt;" style="shape=ellipse;fillColor=#eeeeee;strokeColor=#999999;gradientColor=#cccccc;html=1;align=left;spacingLeft=4;fontSize=17;fontColor=#666666;labelPosition=right;shadow=0;" vertex="1" parent="F3qY9Mem9hA_HSEjM1qW-2">
          <mxGeometry x="152.5" y="441.5" width="15" height="15" as="geometry" />
        </mxCell>
        <mxCell id="j8eCqcW9dTLpRj1eg6rH-95" value="&lt;font style=&quot;color: rgb(119, 119, 119);&quot;&gt;Repeat&lt;/font&gt;" style="shape=ellipse;fillColor=#eeeeee;strokeColor=#999999;gradientColor=#cccccc;html=1;align=left;spacingLeft=4;fontSize=17;fontColor=#666666;labelPosition=right;shadow=0;" vertex="1" parent="F3qY9Mem9hA_HSEjM1qW-2">
          <mxGeometry x="255" y="441.5" width="15" height="15" as="geometry" />
        </mxCell>
        <mxCell id="j8eCqcW9dTLpRj1eg6rH-96" value="&lt;font style=&quot;color: rgb(119, 119, 119);&quot;&gt;Transfer&lt;/font&gt;" style="shape=ellipse;fillColor=#eeeeee;strokeColor=#999999;gradientColor=#cccccc;html=1;align=left;spacingLeft=4;fontSize=17;fontColor=#666666;labelPosition=right;shadow=0;" vertex="1" parent="F3qY9Mem9hA_HSEjM1qW-2">
          <mxGeometry x="348" y="441.5" width="15" height="15" as="geometry" />
        </mxCell>
        <mxCell id="j8eCqcW9dTLpRj1eg6rH-97" value="Enrollment Status" style="text;fontSize=16;verticalAlign=middle;strokeColor=none;fillColor=none;whiteSpace=wrap;html=1;fontColor=#777777;" vertex="1" parent="F3qY9Mem9hA_HSEjM1qW-2">
          <mxGeometry x="20" y="470.5" width="130" height="30" as="geometry" />
        </mxCell>
        <mxCell id="j8eCqcW9dTLpRj1eg6rH-98" value="&lt;font style=&quot;color: rgb(119, 119, 119);&quot;&gt;Active&lt;/font&gt;" style="shape=ellipse;fillColor=#eeeeee;strokeColor=#999999;gradientColor=#cccccc;html=1;align=left;spacingLeft=4;fontSize=17;fontColor=#666666;labelPosition=right;shadow=0;" vertex="1" parent="F3qY9Mem9hA_HSEjM1qW-2">
          <mxGeometry x="152.5" y="478" width="15" height="15" as="geometry" />
        </mxCell>
        <mxCell id="j8eCqcW9dTLpRj1eg6rH-99" value="&lt;font style=&quot;color: rgb(119, 119, 119);&quot;&gt;Deferred&lt;/font&gt;" style="shape=ellipse;fillColor=#eeeeee;strokeColor=#999999;gradientColor=#cccccc;html=1;align=left;spacingLeft=4;fontSize=17;fontColor=#666666;labelPosition=right;shadow=0;" vertex="1" parent="F3qY9Mem9hA_HSEjM1qW-2">
          <mxGeometry x="255" y="478" width="15" height="15" as="geometry" />
        </mxCell>
        <mxCell id="j8eCqcW9dTLpRj1eg6rH-100" value="&lt;font style=&quot;color: rgb(119, 119, 119);&quot;&gt;Withdrawn&lt;/font&gt;" style="shape=ellipse;fillColor=#eeeeee;strokeColor=#999999;gradientColor=#cccccc;html=1;align=left;spacingLeft=4;fontSize=17;fontColor=#666666;labelPosition=right;shadow=0;" vertex="1" parent="F3qY9Mem9hA_HSEjM1qW-2">
          <mxGeometry x="348" y="478" width="15" height="15" as="geometry" />
        </mxCell>
        <mxCell id="j8eCqcW9dTLpRj1eg6rH-101" value="&lt;font style=&quot;font-size: 20px;&quot;&gt;OR&lt;/font&gt;" style="text;html=1;points=[];align=center;verticalAlign=middle;spacingTop=-4;fontSize=30;fontFamily=Verdana;fontColor=#777777;" vertex="1" parent="F3qY9Mem9hA_HSEjM1qW-2">
          <mxGeometry x="15" y="215" width="590" height="30" as="geometry" />
        </mxCell>
        <mxCell id="j8eCqcW9dTLpRj1eg6rH-102" value="" style="dashed=0;shape=line;strokeWidth=1;noLabel=1;strokeColor=#cccccc;opacity=50;fontSize=14;" vertex="1" parent="F3qY9Mem9hA_HSEjM1qW-2">
          <mxGeometry x="15" y="228" width="265" height="10" as="geometry" />
        </mxCell>
        <mxCell id="j8eCqcW9dTLpRj1eg6rH-103" value="" style="dashed=0;shape=line;strokeWidth=1;noLabel=1;strokeColor=#cccccc;opacity=50;fontSize=14;" vertex="1" parent="F3qY9Mem9hA_HSEjM1qW-2">
          <mxGeometry x="342" y="228" width="265" height="10" as="geometry" />
        </mxCell>
        <mxCell id="j8eCqcW9dTLpRj1eg6rH-104" value="" style="sketch=0;pointerEvents=1;shadow=0;dashed=0;html=1;strokeColor=none;fillColor=#505050;labelPosition=center;verticalLabelPosition=bottom;verticalAlign=top;outlineConnect=0;align=center;shape=mxgraph.office.concepts.upload;" vertex="1" parent="F3qY9Mem9hA_HSEjM1qW-2">
          <mxGeometry x="576" y="513" width="20" height="20" as="geometry" />
        </mxCell>
        <mxCell id="j8eCqcW9dTLpRj1eg6rH-107" value="&lt;h1 style=&quot;margin-top: 0px;&quot;&gt;&lt;font style=&quot;font-size: 18px; color: rgb(119, 119, 119);&quot;&gt;Uploaded Documents&lt;/font&gt;&lt;/h1&gt;&lt;p&gt;&lt;font style=&quot;font-size: 16px; color: rgb(119, 119, 119);&quot;&gt;&lt;span style=&quot;background-color: transparent;&quot;&gt;Previous School Leaving Certificate&lt;/span&gt;&lt;/font&gt;&lt;/p&gt;&lt;p&gt;&lt;span style=&quot;font-size: 16px;&quot;&gt;&lt;font style=&quot;color: rgb(119, 119, 119);&quot;&gt;Character Certificate&lt;/font&gt;&lt;/span&gt;&lt;/p&gt;&lt;p&gt;&lt;span style=&quot;font-size: 16px;&quot;&gt;&lt;font style=&quot;color: rgb(119, 119, 119);&quot;&gt;Degree / Transcript&lt;/font&gt;&lt;/span&gt;&lt;/p&gt;" style="text;html=1;whiteSpace=wrap;overflow=hidden;rounded=0;fillColor=#f5f5f5;strokeColor=none;fontColor=#333333;" vertex="1" parent="F3qY9Mem9hA_HSEjM1qW-2">
          <mxGeometry x="20" y="542" width="590" height="140" as="geometry" />
        </mxCell>
        <mxCell id="j8eCqcW9dTLpRj1eg6rH-108" value="" style="dashed=0;shape=line;strokeWidth=1;noLabel=1;strokeColor=#cccccc;opacity=50;fontSize=14;" vertex="1" parent="F3qY9Mem9hA_HSEjM1qW-2">
          <mxGeometry x="23" y="613" width="567" height="1" as="geometry" />
        </mxCell>
        <mxCell id="j8eCqcW9dTLpRj1eg6rH-109" value="" style="dashed=0;shape=line;strokeWidth=1;noLabel=1;strokeColor=#cccccc;opacity=50;fontSize=14;" vertex="1" parent="F3qY9Mem9hA_HSEjM1qW-2">
          <mxGeometry x="20" y="643" width="567" height="1" as="geometry" />
        </mxCell>
        <mxCell id="j8eCqcW9dTLpRj1eg6rH-110" value="" style="dashed=0;shape=line;strokeWidth=1;noLabel=1;strokeColor=#cccccc;opacity=50;fontSize=14;" vertex="1" parent="F3qY9Mem9hA_HSEjM1qW-2">
          <mxGeometry x="23" y="674" width="567" height="1" as="geometry" />
        </mxCell>
        <mxCell id="j8eCqcW9dTLpRj1eg6rH-111" value="" style="verticalLabelPosition=bottom;verticalAlign=top;html=1;shadow=0;dashed=0;strokeWidth=1;shape=mxgraph.ios.iDeleteApp;fillColor=#cccccc;fillColor2=#000000;strokeColor=#ffffff;sketch=0;" vertex="1" parent="F3qY9Mem9hA_HSEjM1qW-2">
          <mxGeometry x="570" y="593" width="17" height="17" as="geometry" />
        </mxCell>
        <mxCell id="j8eCqcW9dTLpRj1eg6rH-112" value="" style="verticalLabelPosition=bottom;verticalAlign=top;html=1;shadow=0;dashed=0;strokeWidth=1;shape=mxgraph.ios.iDeleteApp;fillColor=#cccccc;fillColor2=#000000;strokeColor=#ffffff;sketch=0;" vertex="1" parent="F3qY9Mem9hA_HSEjM1qW-2">
          <mxGeometry x="570" y="625" width="17" height="17" as="geometry" />
        </mxCell>
        <mxCell id="j8eCqcW9dTLpRj1eg6rH-113" value="" style="verticalLabelPosition=bottom;verticalAlign=top;html=1;shadow=0;dashed=0;strokeWidth=1;shape=mxgraph.ios.iDeleteApp;fillColor=#cccccc;fillColor2=#000000;strokeColor=#ffffff;sketch=0;" vertex="1" parent="F3qY9Mem9hA_HSEjM1qW-2">
          <mxGeometry x="570" y="657" width="17" height="17" as="geometry" />
        </mxCell>
        <mxCell id="j8eCqcW9dTLpRj1eg6rH-114" value="Search" style="strokeWidth=1;shadow=0;align=center;html=1;shape=mxgraph.mockup.forms.searchBox;strokeColor=#777777;mainText=;strokeColor2=#008cff;fontColor=#777777;fontSize=17;align=left;spacingLeft=3;whiteSpace=wrap;" vertex="1" parent="F3qY9Mem9hA_HSEjM1qW-2">
          <mxGeometry x="681" y="160" width="359" height="30" as="geometry" />
        </mxCell>
        <mxCell id="j8eCqcW9dTLpRj1eg6rH-115" value="" style="sketch=0;pointerEvents=1;shadow=0;dashed=0;html=1;strokeColor=none;fillColor=#505050;labelPosition=center;verticalLabelPosition=bottom;verticalAlign=top;outlineConnect=0;align=center;shape=mxgraph.office.concepts.writing_pencil;" vertex="1" parent="F3qY9Mem9hA_HSEjM1qW-2">
          <mxGeometry x="990" y="328" width="17" height="15" as="geometry" />
        </mxCell>
        <mxCell id="j8eCqcW9dTLpRj1eg6rH-116" value="" style="sketch=0;pointerEvents=1;shadow=0;dashed=0;html=1;strokeColor=none;fillColor=#505050;labelPosition=center;verticalLabelPosition=bottom;verticalAlign=top;outlineConnect=0;align=center;shape=mxgraph.office.concepts.writing_pencil;" vertex="1" parent="F3qY9Mem9hA_HSEjM1qW-2">
          <mxGeometry x="990" y="360" width="17" height="15" as="geometry" />
        </mxCell>
        <mxCell id="j8eCqcW9dTLpRj1eg6rH-117" value="" style="sketch=0;pointerEvents=1;shadow=0;dashed=0;html=1;strokeColor=none;fillColor=#505050;labelPosition=center;verticalLabelPosition=bottom;verticalAlign=top;outlineConnect=0;align=center;shape=mxgraph.office.concepts.writing_pencil;" vertex="1" parent="F3qY9Mem9hA_HSEjM1qW-2">
          <mxGeometry x="990" y="387.5" width="17" height="15" as="geometry" />
        </mxCell>
        <mxCell id="j8eCqcW9dTLpRj1eg6rH-118" value="" style="sketch=0;pointerEvents=1;shadow=0;dashed=0;html=1;strokeColor=none;fillColor=#505050;labelPosition=center;verticalLabelPosition=bottom;verticalAlign=top;outlineConnect=0;align=center;shape=mxgraph.office.concepts.writing_pencil;" vertex="1" parent="F3qY9Mem9hA_HSEjM1qW-2">
          <mxGeometry x="990" y="420" width="17" height="15" as="geometry" />
        </mxCell>
        <mxCell id="j8eCqcW9dTLpRj1eg6rH-119" value="" style="verticalLabelPosition=bottom;verticalAlign=top;html=1;shadow=0;dashed=0;strokeWidth=1;shape=mxgraph.ios.iDeleteApp;fillColor=#cccccc;fillColor2=#000000;strokeColor=#ffffff;sketch=0;" vertex="1" parent="F3qY9Mem9hA_HSEjM1qW-2">
          <mxGeometry x="1020" y="326" width="17" height="17" as="geometry" />
        </mxCell>
        <mxCell id="j8eCqcW9dTLpRj1eg6rH-120" value="" style="verticalLabelPosition=bottom;verticalAlign=top;html=1;shadow=0;dashed=0;strokeWidth=1;shape=mxgraph.ios.iDeleteApp;fillColor=#cccccc;fillColor2=#000000;strokeColor=#ffffff;sketch=0;" vertex="1" parent="F3qY9Mem9hA_HSEjM1qW-2">
          <mxGeometry x="1020" y="358" width="17" height="17" as="geometry" />
        </mxCell>
        <mxCell id="j8eCqcW9dTLpRj1eg6rH-121" value="" style="verticalLabelPosition=bottom;verticalAlign=top;html=1;shadow=0;dashed=0;strokeWidth=1;shape=mxgraph.ios.iDeleteApp;fillColor=#cccccc;fillColor2=#000000;strokeColor=#ffffff;sketch=0;" vertex="1" parent="F3qY9Mem9hA_HSEjM1qW-2">
          <mxGeometry x="1020" y="387.5" width="17" height="17" as="geometry" />
        </mxCell>
        <mxCell id="j8eCqcW9dTLpRj1eg6rH-122" value="" style="verticalLabelPosition=bottom;verticalAlign=top;html=1;shadow=0;dashed=0;strokeWidth=1;shape=mxgraph.ios.iDeleteApp;fillColor=#cccccc;fillColor2=#000000;strokeColor=#ffffff;sketch=0;" vertex="1" parent="F3qY9Mem9hA_HSEjM1qW-2">
          <mxGeometry x="1020" y="418" width="17" height="17" as="geometry" />
        </mxCell>
        <mxCell id="j8eCqcW9dTLpRj1eg6rH-123" value="" style="dashed=0;shape=line;strokeWidth=1;noLabel=1;strokeColor=#cccccc;opacity=50;fontSize=14;" vertex="1" parent="F3qY9Mem9hA_HSEjM1qW-2">
          <mxGeometry x="680" y="349" width="357" height="1" as="geometry" />
        </mxCell>
        <mxCell id="j8eCqcW9dTLpRj1eg6rH-124" value="" style="dashed=0;shape=line;strokeWidth=1;noLabel=1;strokeColor=#cccccc;opacity=50;fontSize=14;" vertex="1" parent="F3qY9Mem9hA_HSEjM1qW-2">
          <mxGeometry x="680" y="381" width="357" height="1" as="geometry" />
        </mxCell>
        <mxCell id="j8eCqcW9dTLpRj1eg6rH-125" value="" style="dashed=0;shape=line;strokeWidth=1;noLabel=1;strokeColor=#cccccc;opacity=50;fontSize=14;" vertex="1" parent="F3qY9Mem9hA_HSEjM1qW-2">
          <mxGeometry x="680" y="412" width="357" height="1" as="geometry" />
        </mxCell>
        <mxCell id="j8eCqcW9dTLpRj1eg6rH-126" value="" style="dashed=0;shape=line;strokeWidth=1;noLabel=1;strokeColor=#cccccc;opacity=50;fontSize=14;" vertex="1" parent="F3qY9Mem9hA_HSEjM1qW-2">
          <mxGeometry x="680" y="445" width="357" height="1" as="geometry" />
        </mxCell>
        <mxCell id="j8eCqcW9dTLpRj1eg6rH-127" value="" style="fillColor=#777777;strokeColor=none;rounded=1;arcSize=50;sketch=0;hachureGap=4;pointerEvents=0;fontFamily=Architects Daughter;fontSource=https%3A%2F%2Ffonts.googleapis.com%2Fcss%3Ffamily%3DArchitects%2BDaughter;fontSize=20;" vertex="1" parent="F3qY9Mem9hA_HSEjM1qW-2">
          <mxGeometry x="288" y="700" width="75" height="16" as="geometry" />
        </mxCell>
        <mxCell id="j8eCqcW9dTLpRj1eg6rH-128" value="" style="shape=ellipse;strokeColor=none;fillColor=#ffffff;sketch=0;hachureGap=4;pointerEvents=0;fontFamily=Architects Daughter;fontSource=https%3A%2F%2Ffonts.googleapis.com%2Fcss%3Ffamily%3DArchitects%2BDaughter;fontSize=20;" vertex="1" parent="j8eCqcW9dTLpRj1eg6rH-127">
          <mxGeometry x="1" y="0.5" width="12" height="12" relative="1" as="geometry">
            <mxPoint x="-14" y="-6" as="offset" />
          </mxGeometry>
        </mxCell>
        <mxCell id="j8eCqcW9dTLpRj1eg6rH-129" value="" style="html=1;shadow=0;dashed=0;shape=mxgraph.atlassian.check;strokeColor=#ffffff;sketch=1;hachureGap=4;pointerEvents=0;fontFamily=Architects Daughter;fontSource=https%3A%2F%2Ffonts.googleapis.com%2Fcss%3Ffamily%3DArchitects%2BDaughter;fontSize=20;" vertex="1" parent="j8eCqcW9dTLpRj1eg6rH-127">
          <mxGeometry y="0.5" width="6" height="5" relative="1" as="geometry">
            <mxPoint x="4" y="-3" as="offset" />
          </mxGeometry>
        </mxCell>
        <mxCell id="j8eCqcW9dTLpRj1eg6rH-130" value="Sync newly added student with SIS" style="text;fontSize=16;verticalAlign=middle;strokeColor=none;fillColor=none;whiteSpace=wrap;html=1;fontColor=#777777;" vertex="1" parent="F3qY9Mem9hA_HSEjM1qW-2">
          <mxGeometry x="20" y="693" width="260" height="30" as="geometry" />
        </mxCell>
      </root>
    </mxGraphModel>
  </diagram>
  <diagram name="Course Schedule" id="6y2_-KfIP46fjumsZQCo">
    <mxGraphModel dx="1428" dy="841" grid="1" gridSize="10" guides="1" tooltips="1" connect="1" arrows="1" fold="1" page="1" pageScale="1" pageWidth="1100" pageHeight="850" background="none" math="0" shadow="0">
      <root>
        <mxCell id="T2hXwhUKycL6EEmZBs5m-0" />
        <mxCell id="T2hXwhUKycL6EEmZBs5m-1" parent="T2hXwhUKycL6EEmZBs5m-0" />
        <mxCell id="T2hXwhUKycL6EEmZBs5m-2" value="" style="strokeWidth=1;shadow=0;dashed=0;align=center;html=1;shape=mxgraph.mockup.containers.browserWindow;rSize=0;strokeColor=#666666;mainText=,;recursiveResize=0;rounded=0;labelBackgroundColor=none;fontFamily=Verdana;fontSize=12" parent="T2hXwhUKycL6EEmZBs5m-1" vertex="1">
          <mxGeometry x="25" y="20" width="1050" height="780" as="geometry" />
        </mxCell>
        <mxCell id="T2hXwhUKycL6EEmZBs5m-3" value="Course Schedule" style="strokeWidth=1;shadow=0;dashed=0;align=center;html=1;shape=mxgraph.mockup.containers.anchor;fontSize=17;fontColor=#666666;align=left;" parent="T2hXwhUKycL6EEmZBs5m-2" vertex="1">
          <mxGeometry x="60" y="12" width="170" height="26" as="geometry" />
        </mxCell>
        <mxCell id="T2hXwhUKycL6EEmZBs5m-4" value="https://www.default.com" style="strokeWidth=1;shadow=0;dashed=0;align=center;html=1;shape=mxgraph.mockup.containers.anchor;rSize=0;fontSize=17;fontColor=#666666;align=left;" parent="T2hXwhUKycL6EEmZBs5m-2" vertex="1">
          <mxGeometry x="130" y="60" width="250" height="26" as="geometry" />
        </mxCell>
        <mxCell id="T2hXwhUKycL6EEmZBs5m-5" value="&lt;font style=&quot;font-size: 20px;&quot;&gt;Course Schedule&lt;/font&gt;" style="text;html=1;points=[];align=left;verticalAlign=middle;spacingTop=-4;fontSize=30;fontFamily=Verdana;fontColor=#777777;" parent="T2hXwhUKycL6EEmZBs5m-2" vertex="1">
          <mxGeometry x="13.5" y="130" width="206.5" height="30" as="geometry" />
        </mxCell>
        <mxCell id="T2hXwhUKycL6EEmZBs5m-8" value="" style="dashed=0;shape=line;strokeWidth=1;noLabel=1;strokeColor=#cccccc;opacity=50;fontSize=14;" parent="T2hXwhUKycL6EEmZBs5m-2" vertex="1">
          <mxGeometry x="190" y="146" width="420" height="10" as="geometry" />
        </mxCell>
        <mxCell id="T2hXwhUKycL6EEmZBs5m-11" value="&lt;font style=&quot;font-size: 16px;&quot;&gt;Select Course (ENG 101 / TBA 201 / ....)&lt;/font&gt;" style="html=1;shadow=0;dashed=0;shape=mxgraph.bootstrap.rrect;rSize=5;strokeColor=#777777;strokeWidth=0;fillColor=#ffffff;fontColor=#777777;whiteSpace=wrap;align=left;verticalAlign=middle;fontStyle=0;fontSize=18;spacing=20;" parent="T2hXwhUKycL6EEmZBs5m-2" vertex="1">
          <mxGeometry x="20" y="172.5" width="590" height="30" as="geometry" />
        </mxCell>
        <mxCell id="T2hXwhUKycL6EEmZBs5m-12" value="" style="shape=triangle;direction=south;fillColor=#495057;strokeColor=none;perimeter=none;" parent="T2hXwhUKycL6EEmZBs5m-11" vertex="1">
          <mxGeometry x="1" y="0.5" width="10" height="5" relative="1" as="geometry">
            <mxPoint x="-17" y="-2.5" as="offset" />
          </mxGeometry>
        </mxCell>
        <mxCell id="T2hXwhUKycL6EEmZBs5m-13" value="&lt;font style=&quot;font-size: 16px;&quot;&gt;Assign Faculty&lt;/font&gt;" style="html=1;shadow=0;dashed=0;shape=mxgraph.bootstrap.rrect;rSize=5;strokeColor=#777777;strokeWidth=0;fillColor=#ffffff;fontColor=#777777;whiteSpace=wrap;align=left;verticalAlign=middle;fontStyle=0;fontSize=18;spacing=20;" parent="T2hXwhUKycL6EEmZBs5m-2" vertex="1">
          <mxGeometry x="20" y="215" width="590" height="30" as="geometry" />
        </mxCell>
        <mxCell id="T2hXwhUKycL6EEmZBs5m-14" value="" style="shape=triangle;direction=south;fillColor=#495057;strokeColor=none;perimeter=none;" parent="T2hXwhUKycL6EEmZBs5m-13" vertex="1">
          <mxGeometry x="1" y="0.5" width="10" height="5" relative="1" as="geometry">
            <mxPoint x="-17" y="-2.5" as="offset" />
          </mxGeometry>
        </mxCell>
        <mxCell id="T2hXwhUKycL6EEmZBs5m-17" value="&lt;h1 style=&quot;margin-top: 0px;&quot;&gt;&lt;font style=&quot;font-size: 18px;&quot;&gt;Recent Schedules&lt;/font&gt;&lt;/h1&gt;&lt;div&gt;&lt;font style=&quot;font-size: 18px;&quot;&gt;&lt;br&gt;&lt;/font&gt;&lt;/div&gt;&lt;p&gt;&lt;font style=&quot;font-size: 16px;&quot;&gt;&lt;span style=&quot;background-color: transparent; color: light-dark(rgb(119, 119, 119), rgb(135, 135, 135));&quot;&gt;ENG 101 -&amp;nbsp; 09:00 AM - 09:30 AM&lt;/span&gt;&lt;/font&gt;&lt;/p&gt;&lt;p&gt;&lt;span style=&quot;font-size: 16px;&quot;&gt;TBA 201 -&amp;nbsp; 09:30 AM - 10:00 AM&lt;/span&gt;&lt;/p&gt;&lt;p&gt;&lt;font style=&quot;font-size: 16px;&quot;&gt;&lt;/font&gt;&lt;/p&gt;&lt;p&gt;&lt;font style=&quot;font-size: 16px;&quot;&gt;ENG 101 -&amp;nbsp; 09:00 AM - 09:30 AM&lt;/font&gt;&lt;/p&gt;&lt;p&gt;&lt;span style=&quot;font-size: 16px;&quot;&gt;TBA 201 -&amp;nbsp; 09:30 AM - 10:00 AM&lt;/span&gt;&lt;/p&gt;&lt;p&gt;&lt;font style=&quot;font-size: 16px;&quot;&gt;ENG 101 -&amp;nbsp; 09:00 AM - 09:30 AM&lt;/font&gt;&lt;/p&gt;&lt;p&gt;&lt;span style=&quot;font-size: 16px;&quot;&gt;TBA 201 -&amp;nbsp; 09:30 AM - 10:00 AM&lt;/span&gt;&lt;/p&gt;&lt;p&gt;&lt;font style=&quot;font-size: 16px;&quot;&gt;ENG 101 -&amp;nbsp; 09:00 AM - 09:30 AM&lt;/font&gt;&lt;/p&gt;&lt;p&gt;&lt;font style=&quot;font-size: 16px;&quot;&gt;&lt;/font&gt;&lt;/p&gt;&lt;p&gt;&lt;span style=&quot;font-size: 16px;&quot;&gt;TBA 201 -&amp;nbsp; 09:30 AM - 10:00 AM&lt;/span&gt;&lt;/p&gt;&lt;p&gt;&lt;font style=&quot;font-size: 16px;&quot;&gt;&lt;span style=&quot;background-color: transparent; color: light-dark(rgb(119, 119, 119), rgb(135, 135, 135));&quot;&gt;&lt;br&gt;&lt;/span&gt;&lt;/font&gt;&lt;/p&gt;" style="text;html=1;whiteSpace=wrap;overflow=hidden;rounded=0;fontColor=#777777;" parent="T2hXwhUKycL6EEmZBs5m-2" vertex="1">
          <mxGeometry x="680" y="120" width="360" height="650" as="geometry" />
        </mxCell>
        <mxCell id="T2hXwhUKycL6EEmZBs5m-18" value="" style="sketch=0;pointerEvents=1;shadow=0;dashed=0;html=1;strokeColor=none;fillColor=#505050;labelPosition=center;verticalLabelPosition=bottom;verticalAlign=top;outlineConnect=0;align=center;shape=mxgraph.office.concepts.writing_pencil;" parent="T2hXwhUKycL6EEmZBs5m-2" vertex="1">
          <mxGeometry x="990" y="204" width="17" height="15" as="geometry" />
        </mxCell>
        <mxCell id="T2hXwhUKycL6EEmZBs5m-19" value="" style="sketch=0;pointerEvents=1;shadow=0;dashed=0;html=1;strokeColor=none;fillColor=#505050;labelPosition=center;verticalLabelPosition=bottom;verticalAlign=top;outlineConnect=0;align=center;shape=mxgraph.office.concepts.writing_pencil;" parent="T2hXwhUKycL6EEmZBs5m-2" vertex="1">
          <mxGeometry x="990" y="236" width="17" height="15" as="geometry" />
        </mxCell>
        <mxCell id="T2hXwhUKycL6EEmZBs5m-20" value="" style="sketch=0;pointerEvents=1;shadow=0;dashed=0;html=1;strokeColor=none;fillColor=#505050;labelPosition=center;verticalLabelPosition=bottom;verticalAlign=top;outlineConnect=0;align=center;shape=mxgraph.office.concepts.writing_pencil;" parent="T2hXwhUKycL6EEmZBs5m-2" vertex="1">
          <mxGeometry x="990" y="263.5" width="17" height="15" as="geometry" />
        </mxCell>
        <mxCell id="T2hXwhUKycL6EEmZBs5m-21" value="" style="sketch=0;pointerEvents=1;shadow=0;dashed=0;html=1;strokeColor=none;fillColor=#505050;labelPosition=center;verticalLabelPosition=bottom;verticalAlign=top;outlineConnect=0;align=center;shape=mxgraph.office.concepts.writing_pencil;" parent="T2hXwhUKycL6EEmZBs5m-2" vertex="1">
          <mxGeometry x="990" y="296" width="17" height="15" as="geometry" />
        </mxCell>
        <mxCell id="T2hXwhUKycL6EEmZBs5m-22" value="" style="verticalLabelPosition=bottom;verticalAlign=top;html=1;shadow=0;dashed=0;strokeWidth=1;shape=mxgraph.ios.iDeleteApp;fillColor=#cccccc;fillColor2=#000000;strokeColor=#ffffff;sketch=0;" parent="T2hXwhUKycL6EEmZBs5m-2" vertex="1">
          <mxGeometry x="1020" y="202" width="17" height="17" as="geometry" />
        </mxCell>
        <mxCell id="T2hXwhUKycL6EEmZBs5m-23" value="" style="verticalLabelPosition=bottom;verticalAlign=top;html=1;shadow=0;dashed=0;strokeWidth=1;shape=mxgraph.ios.iDeleteApp;fillColor=#cccccc;fillColor2=#000000;strokeColor=#ffffff;sketch=0;" parent="T2hXwhUKycL6EEmZBs5m-2" vertex="1">
          <mxGeometry x="1020" y="234" width="17" height="17" as="geometry" />
        </mxCell>
        <mxCell id="T2hXwhUKycL6EEmZBs5m-24" value="" style="verticalLabelPosition=bottom;verticalAlign=top;html=1;shadow=0;dashed=0;strokeWidth=1;shape=mxgraph.ios.iDeleteApp;fillColor=#cccccc;fillColor2=#000000;strokeColor=#ffffff;sketch=0;" parent="T2hXwhUKycL6EEmZBs5m-2" vertex="1">
          <mxGeometry x="1020" y="263.5" width="17" height="17" as="geometry" />
        </mxCell>
        <mxCell id="T2hXwhUKycL6EEmZBs5m-25" value="" style="verticalLabelPosition=bottom;verticalAlign=top;html=1;shadow=0;dashed=0;strokeWidth=1;shape=mxgraph.ios.iDeleteApp;fillColor=#cccccc;fillColor2=#000000;strokeColor=#ffffff;sketch=0;" parent="T2hXwhUKycL6EEmZBs5m-2" vertex="1">
          <mxGeometry x="1020" y="294" width="17" height="17" as="geometry" />
        </mxCell>
        <mxCell id="T2hXwhUKycL6EEmZBs5m-26" value="" style="dashed=0;shape=line;strokeWidth=1;noLabel=1;strokeColor=#cccccc;opacity=50;fontSize=14;" parent="T2hXwhUKycL6EEmZBs5m-2" vertex="1">
          <mxGeometry x="680" y="225" width="357" height="1" as="geometry" />
        </mxCell>
        <mxCell id="T2hXwhUKycL6EEmZBs5m-27" value="" style="dashed=0;shape=line;strokeWidth=1;noLabel=1;strokeColor=#cccccc;opacity=50;fontSize=14;" parent="T2hXwhUKycL6EEmZBs5m-2" vertex="1">
          <mxGeometry x="680" y="257" width="357" height="1" as="geometry" />
        </mxCell>
        <mxCell id="T2hXwhUKycL6EEmZBs5m-28" value="" style="dashed=0;shape=line;strokeWidth=1;noLabel=1;strokeColor=#cccccc;opacity=50;fontSize=14;" parent="T2hXwhUKycL6EEmZBs5m-2" vertex="1">
          <mxGeometry x="680" y="288" width="357" height="1" as="geometry" />
        </mxCell>
        <mxCell id="T2hXwhUKycL6EEmZBs5m-29" value="" style="dashed=0;shape=line;strokeWidth=1;noLabel=1;strokeColor=#cccccc;opacity=50;fontSize=14;" parent="T2hXwhUKycL6EEmZBs5m-2" vertex="1">
          <mxGeometry x="680" y="321" width="357" height="1" as="geometry" />
        </mxCell>
        <mxCell id="T2hXwhUKycL6EEmZBs5m-33" value="&lt;font style=&quot;font-size: 16px;&quot;&gt;Check for Conflicts&lt;/font&gt;" style="rounded=1;fillColor=#f0a30a;strokeColor=#BD7000;html=1;whiteSpace=wrap;fontColor=#000000;align=center;verticalAlign=middle;fontStyle=0;fontSize=12;sketch=0;" parent="T2hXwhUKycL6EEmZBs5m-2" vertex="1">
          <mxGeometry x="20" y="420" width="590" height="33" as="geometry" />
        </mxCell>
        <mxCell id="T2hXwhUKycL6EEmZBs5m-34" value="&lt;font style=&quot;font-size: 16px;&quot;&gt;Create Schedule&lt;/font&gt;" style="rounded=1;fillColor=#008a00;strokeColor=#005700;html=1;whiteSpace=wrap;fontColor=#ffffff;align=center;verticalAlign=middle;fontStyle=0;fontSize=12;sketch=0;" parent="T2hXwhUKycL6EEmZBs5m-2" vertex="1">
          <mxGeometry x="20" y="460" width="590" height="33" as="geometry" />
        </mxCell>
        <mxCell id="T2hXwhUKycL6EEmZBs5m-56" value="Search" style="strokeWidth=1;shadow=0;align=center;html=1;shape=mxgraph.mockup.forms.searchBox;strokeColor=#777777;mainText=;strokeColor2=#008cff;fontColor=#777777;fontSize=17;align=left;spacingLeft=3;whiteSpace=wrap;" parent="T2hXwhUKycL6EEmZBs5m-2" vertex="1">
          <mxGeometry x="681" y="160" width="359" height="30" as="geometry" />
        </mxCell>
        <mxCell id="T2hXwhUKycL6EEmZBs5m-57" value="" style="sketch=0;pointerEvents=1;shadow=0;dashed=0;html=1;strokeColor=none;fillColor=#505050;labelPosition=center;verticalLabelPosition=bottom;verticalAlign=top;outlineConnect=0;align=center;shape=mxgraph.office.concepts.writing_pencil;" parent="T2hXwhUKycL6EEmZBs5m-2" vertex="1">
          <mxGeometry x="990" y="328" width="17" height="15" as="geometry" />
        </mxCell>
        <mxCell id="T2hXwhUKycL6EEmZBs5m-58" value="" style="sketch=0;pointerEvents=1;shadow=0;dashed=0;html=1;strokeColor=none;fillColor=#505050;labelPosition=center;verticalLabelPosition=bottom;verticalAlign=top;outlineConnect=0;align=center;shape=mxgraph.office.concepts.writing_pencil;" parent="T2hXwhUKycL6EEmZBs5m-2" vertex="1">
          <mxGeometry x="990" y="360" width="17" height="15" as="geometry" />
        </mxCell>
        <mxCell id="T2hXwhUKycL6EEmZBs5m-59" value="" style="sketch=0;pointerEvents=1;shadow=0;dashed=0;html=1;strokeColor=none;fillColor=#505050;labelPosition=center;verticalLabelPosition=bottom;verticalAlign=top;outlineConnect=0;align=center;shape=mxgraph.office.concepts.writing_pencil;" parent="T2hXwhUKycL6EEmZBs5m-2" vertex="1">
          <mxGeometry x="990" y="387.5" width="17" height="15" as="geometry" />
        </mxCell>
        <mxCell id="T2hXwhUKycL6EEmZBs5m-60" value="" style="sketch=0;pointerEvents=1;shadow=0;dashed=0;html=1;strokeColor=none;fillColor=#505050;labelPosition=center;verticalLabelPosition=bottom;verticalAlign=top;outlineConnect=0;align=center;shape=mxgraph.office.concepts.writing_pencil;" parent="T2hXwhUKycL6EEmZBs5m-2" vertex="1">
          <mxGeometry x="990" y="420" width="17" height="15" as="geometry" />
        </mxCell>
        <mxCell id="T2hXwhUKycL6EEmZBs5m-61" value="" style="verticalLabelPosition=bottom;verticalAlign=top;html=1;shadow=0;dashed=0;strokeWidth=1;shape=mxgraph.ios.iDeleteApp;fillColor=#cccccc;fillColor2=#000000;strokeColor=#ffffff;sketch=0;" parent="T2hXwhUKycL6EEmZBs5m-2" vertex="1">
          <mxGeometry x="1020" y="326" width="17" height="17" as="geometry" />
        </mxCell>
        <mxCell id="T2hXwhUKycL6EEmZBs5m-62" value="" style="verticalLabelPosition=bottom;verticalAlign=top;html=1;shadow=0;dashed=0;strokeWidth=1;shape=mxgraph.ios.iDeleteApp;fillColor=#cccccc;fillColor2=#000000;strokeColor=#ffffff;sketch=0;" parent="T2hXwhUKycL6EEmZBs5m-2" vertex="1">
          <mxGeometry x="1020" y="358" width="17" height="17" as="geometry" />
        </mxCell>
        <mxCell id="T2hXwhUKycL6EEmZBs5m-63" value="" style="verticalLabelPosition=bottom;verticalAlign=top;html=1;shadow=0;dashed=0;strokeWidth=1;shape=mxgraph.ios.iDeleteApp;fillColor=#cccccc;fillColor2=#000000;strokeColor=#ffffff;sketch=0;" parent="T2hXwhUKycL6EEmZBs5m-2" vertex="1">
          <mxGeometry x="1020" y="387.5" width="17" height="17" as="geometry" />
        </mxCell>
        <mxCell id="T2hXwhUKycL6EEmZBs5m-64" value="" style="verticalLabelPosition=bottom;verticalAlign=top;html=1;shadow=0;dashed=0;strokeWidth=1;shape=mxgraph.ios.iDeleteApp;fillColor=#cccccc;fillColor2=#000000;strokeColor=#ffffff;sketch=0;" parent="T2hXwhUKycL6EEmZBs5m-2" vertex="1">
          <mxGeometry x="1020" y="418" width="17" height="17" as="geometry" />
        </mxCell>
        <mxCell id="T2hXwhUKycL6EEmZBs5m-65" value="" style="dashed=0;shape=line;strokeWidth=1;noLabel=1;strokeColor=#cccccc;opacity=50;fontSize=14;" parent="T2hXwhUKycL6EEmZBs5m-2" vertex="1">
          <mxGeometry x="680" y="349" width="357" height="1" as="geometry" />
        </mxCell>
        <mxCell id="T2hXwhUKycL6EEmZBs5m-66" value="" style="dashed=0;shape=line;strokeWidth=1;noLabel=1;strokeColor=#cccccc;opacity=50;fontSize=14;" parent="T2hXwhUKycL6EEmZBs5m-2" vertex="1">
          <mxGeometry x="680" y="381" width="357" height="1" as="geometry" />
        </mxCell>
        <mxCell id="T2hXwhUKycL6EEmZBs5m-67" value="" style="dashed=0;shape=line;strokeWidth=1;noLabel=1;strokeColor=#cccccc;opacity=50;fontSize=14;" parent="T2hXwhUKycL6EEmZBs5m-2" vertex="1">
          <mxGeometry x="680" y="412" width="357" height="1" as="geometry" />
        </mxCell>
        <mxCell id="T2hXwhUKycL6EEmZBs5m-68" value="" style="dashed=0;shape=line;strokeWidth=1;noLabel=1;strokeColor=#cccccc;opacity=50;fontSize=14;" parent="T2hXwhUKycL6EEmZBs5m-2" vertex="1">
          <mxGeometry x="680" y="445" width="357" height="1" as="geometry" />
        </mxCell>
        <mxCell id="TFoWfpEMJWpwdCEflxB--0" value="Course Start Date" style="text;fontSize=16;verticalAlign=middle;strokeColor=none;fillColor=none;whiteSpace=wrap;html=1;fontColor=#777777;" parent="T2hXwhUKycL6EEmZBs5m-2" vertex="1">
          <mxGeometry x="20" y="256" width="280" height="30" as="geometry" />
        </mxCell>
        <mxCell id="TFoWfpEMJWpwdCEflxB--1" value="" style="dashed=0;shape=line;strokeWidth=1;noLabel=1;strokeColor=#eeeeee;" parent="T2hXwhUKycL6EEmZBs5m-2" vertex="1">
          <mxGeometry x="20" y="281" width="280" height="10" as="geometry" />
        </mxCell>
        <mxCell id="TFoWfpEMJWpwdCEflxB--2" value="" style="shape=mxgraph.gmdl.calendar;fillColor=#5A6881;strokeColor=none;sketch=0;hachureGap=4;pointerEvents=0;fontFamily=Architects Daughter;fontSource=https%3A%2F%2Ffonts.googleapis.com%2Fcss%3Ffamily%3DArchitects%2BDaughter;fontSize=20;" parent="T2hXwhUKycL6EEmZBs5m-2" vertex="1">
          <mxGeometry x="270" y="262" width="18" height="18" as="geometry" />
        </mxCell>
        <mxCell id="TFoWfpEMJWpwdCEflxB--3" value="Course End Date" style="text;fontSize=16;verticalAlign=middle;strokeColor=none;fillColor=none;whiteSpace=wrap;html=1;fontColor=#777777;" parent="T2hXwhUKycL6EEmZBs5m-2" vertex="1">
          <mxGeometry x="330" y="256" width="280" height="30" as="geometry" />
        </mxCell>
        <mxCell id="TFoWfpEMJWpwdCEflxB--4" value="" style="dashed=0;shape=line;strokeWidth=1;noLabel=1;strokeColor=#eeeeee;" parent="T2hXwhUKycL6EEmZBs5m-2" vertex="1">
          <mxGeometry x="330" y="281" width="280" height="10" as="geometry" />
        </mxCell>
        <mxCell id="TFoWfpEMJWpwdCEflxB--5" value="" style="shape=mxgraph.gmdl.calendar;fillColor=#5A6881;strokeColor=none;sketch=0;hachureGap=4;pointerEvents=0;fontFamily=Architects Daughter;fontSource=https%3A%2F%2Ffonts.googleapis.com%2Fcss%3Ffamily%3DArchitects%2BDaughter;fontSize=20;" parent="T2hXwhUKycL6EEmZBs5m-2" vertex="1">
          <mxGeometry x="580" y="262" width="18" height="18" as="geometry" />
        </mxCell>
        <mxCell id="QF5cHpw0z7j5zHjeyXLH-0" value="Day(s) of week" style="text;fontSize=16;verticalAlign=middle;strokeColor=none;fillColor=none;whiteSpace=wrap;html=1;fontColor=#777777;" parent="T2hXwhUKycL6EEmZBs5m-2" vertex="1">
          <mxGeometry x="20" y="338.5" width="120" height="30" as="geometry" />
        </mxCell>
        <mxCell id="QF5cHpw0z7j5zHjeyXLH-3" value="&lt;font style=&quot;color: rgb(119, 119, 119);&quot; face=&quot;Helvetica&quot;&gt;Monday&lt;/font&gt;" style="dashed=0;labelPosition=right;align=left;shape=mxgraph.gmdl.checkbox;strokeColor=none;fillColor=#676767;strokeWidth=2;aspect=fixed;sketch=0;html=1;fontSize=16;" parent="T2hXwhUKycL6EEmZBs5m-2" vertex="1">
          <mxGeometry x="152" y="346" width="16" height="16" as="geometry" />
        </mxCell>
        <mxCell id="QF5cHpw0z7j5zHjeyXLH-6" value="&lt;font style=&quot;color: rgb(119, 119, 119);&quot; face=&quot;Helvetica&quot;&gt;Tuesday&lt;/font&gt;" style="dashed=0;labelPosition=right;align=left;shape=mxgraph.gmdl.checkbox;strokeColor=none;fillColor=#676767;strokeWidth=2;aspect=fixed;sketch=0;html=1;fontSize=16;" parent="T2hXwhUKycL6EEmZBs5m-2" vertex="1">
          <mxGeometry x="237" y="346" width="16" height="16" as="geometry" />
        </mxCell>
        <mxCell id="QF5cHpw0z7j5zHjeyXLH-7" value="&lt;font style=&quot;color: rgb(119, 119, 119);&quot; face=&quot;Helvetica&quot;&gt;Wednesday&lt;/font&gt;" style="dashed=0;labelPosition=right;align=left;shape=mxgraph.gmdl.checkbox;strokeColor=none;fillColor=#676767;strokeWidth=2;aspect=fixed;sketch=0;html=1;fontSize=16;" parent="T2hXwhUKycL6EEmZBs5m-2" vertex="1">
          <mxGeometry x="323.5" y="345.5" width="16" height="16" as="geometry" />
        </mxCell>
        <mxCell id="QF5cHpw0z7j5zHjeyXLH-11" value="&lt;font style=&quot;color: rgb(119, 119, 119);&quot; face=&quot;Helvetica&quot;&gt;Thursday&lt;/font&gt;" style="dashed=0;labelPosition=right;align=left;shape=mxgraph.gmdl.checkbox;strokeColor=none;fillColor=#676767;strokeWidth=2;aspect=fixed;sketch=0;html=1;fontSize=16;" parent="T2hXwhUKycL6EEmZBs5m-2" vertex="1">
          <mxGeometry x="434" y="345.5" width="16" height="16" as="geometry" />
        </mxCell>
        <mxCell id="QF5cHpw0z7j5zHjeyXLH-12" value="&lt;font style=&quot;color: rgb(119, 119, 119);&quot; face=&quot;Helvetica&quot;&gt;Friday&lt;/font&gt;" style="dashed=0;labelPosition=right;align=left;shape=mxgraph.gmdl.checkbox;strokeColor=none;fillColor=#676767;strokeWidth=2;aspect=fixed;sketch=0;html=1;fontSize=16;" parent="T2hXwhUKycL6EEmZBs5m-2" vertex="1">
          <mxGeometry x="527" y="345.5" width="16" height="16" as="geometry" />
        </mxCell>
        <mxCell id="QF5cHpw0z7j5zHjeyXLH-15" value="&lt;font style=&quot;font-size: 16px;&quot;&gt;Classroom / Room No&lt;/font&gt;" style="html=1;shadow=0;dashed=0;shape=mxgraph.bootstrap.rrect;rSize=5;strokeColor=#777777;strokeWidth=0;fillColor=#ffffff;fontColor=#777777;whiteSpace=wrap;align=left;verticalAlign=middle;fontStyle=0;fontSize=18;spacing=20;" parent="T2hXwhUKycL6EEmZBs5m-2" vertex="1">
          <mxGeometry x="20" y="298.5" width="590" height="30" as="geometry" />
        </mxCell>
        <mxCell id="QF5cHpw0z7j5zHjeyXLH-16" value="" style="shape=triangle;direction=south;fillColor=#495057;strokeColor=none;perimeter=none;" parent="QF5cHpw0z7j5zHjeyXLH-15" vertex="1">
          <mxGeometry x="1" y="0.5" width="10" height="5" relative="1" as="geometry">
            <mxPoint x="-17" y="-2.5" as="offset" />
          </mxGeometry>
        </mxCell>
        <mxCell id="QF5cHpw0z7j5zHjeyXLH-17" value="Time Slot From (09:00 AM)" style="text;fontSize=16;verticalAlign=middle;strokeColor=none;fillColor=none;whiteSpace=wrap;html=1;fontColor=#777777;" parent="T2hXwhUKycL6EEmZBs5m-2" vertex="1">
          <mxGeometry x="20" y="375" width="280" height="30" as="geometry" />
        </mxCell>
        <mxCell id="QF5cHpw0z7j5zHjeyXLH-18" value="" style="dashed=0;shape=line;strokeWidth=1;noLabel=1;strokeColor=#eeeeee;" parent="T2hXwhUKycL6EEmZBs5m-2" vertex="1">
          <mxGeometry x="20" y="400" width="280" height="10" as="geometry" />
        </mxCell>
        <mxCell id="QF5cHpw0z7j5zHjeyXLH-20" value="Time Slot To (09:30 AM)" style="text;fontSize=16;verticalAlign=middle;strokeColor=none;fillColor=none;whiteSpace=wrap;html=1;fontColor=#777777;" parent="T2hXwhUKycL6EEmZBs5m-2" vertex="1">
          <mxGeometry x="330" y="375" width="280" height="30" as="geometry" />
        </mxCell>
        <mxCell id="QF5cHpw0z7j5zHjeyXLH-21" value="" style="dashed=0;shape=line;strokeWidth=1;noLabel=1;strokeColor=#eeeeee;" parent="T2hXwhUKycL6EEmZBs5m-2" vertex="1">
          <mxGeometry x="330" y="400" width="280" height="10" as="geometry" />
        </mxCell>
        <mxCell id="QF5cHpw0z7j5zHjeyXLH-23" value="" style="sketch=0;pointerEvents=1;shadow=0;dashed=0;html=1;strokeColor=none;fillColor=#505050;labelPosition=center;verticalLabelPosition=bottom;verticalAlign=top;outlineConnect=0;align=center;shape=mxgraph.office.concepts.clock;" parent="T2hXwhUKycL6EEmZBs5m-2" vertex="1">
          <mxGeometry x="270" y="381" width="18" height="18" as="geometry" />
        </mxCell>
        <mxCell id="QF5cHpw0z7j5zHjeyXLH-24" value="" style="sketch=0;pointerEvents=1;shadow=0;dashed=0;html=1;strokeColor=none;fillColor=#505050;labelPosition=center;verticalLabelPosition=bottom;verticalAlign=top;outlineConnect=0;align=center;shape=mxgraph.office.concepts.clock;" parent="T2hXwhUKycL6EEmZBs5m-2" vertex="1">
          <mxGeometry x="580" y="381" width="18" height="18" as="geometry" />
        </mxCell>
      </root>
    </mxGraphModel>
  </diagram>
  <diagram name="Content Delivery and Interaction" id="b9QYeq-oWVGoTrVNb5vF">
    <mxGraphModel dx="1428" dy="841" grid="1" gridSize="10" guides="1" tooltips="1" connect="1" arrows="1" fold="1" page="1" pageScale="1" pageWidth="1100" pageHeight="850" background="none" math="0" shadow="0">
      <root>
        <mxCell id="BblcwQt_c4mbjG9nSBui-0" />
        <mxCell id="BblcwQt_c4mbjG9nSBui-1" parent="BblcwQt_c4mbjG9nSBui-0" />
        <mxCell id="BblcwQt_c4mbjG9nSBui-2" value="" style="strokeWidth=1;shadow=0;dashed=0;align=center;html=1;shape=mxgraph.mockup.containers.browserWindow;rSize=0;strokeColor=#666666;mainText=,;recursiveResize=0;rounded=0;labelBackgroundColor=none;fontFamily=Verdana;fontSize=12" vertex="1" parent="BblcwQt_c4mbjG9nSBui-1">
          <mxGeometry x="25" y="20" width="1050" height="780" as="geometry" />
        </mxCell>
        <mxCell id="BblcwQt_c4mbjG9nSBui-3" value="Course Schedule" style="strokeWidth=1;shadow=0;dashed=0;align=center;html=1;shape=mxgraph.mockup.containers.anchor;fontSize=17;fontColor=#666666;align=left;" vertex="1" parent="BblcwQt_c4mbjG9nSBui-2">
          <mxGeometry x="60" y="12" width="170" height="26" as="geometry" />
        </mxCell>
        <mxCell id="BblcwQt_c4mbjG9nSBui-4" value="https://www.default.com" style="strokeWidth=1;shadow=0;dashed=0;align=center;html=1;shape=mxgraph.mockup.containers.anchor;rSize=0;fontSize=17;fontColor=#666666;align=left;" vertex="1" parent="BblcwQt_c4mbjG9nSBui-2">
          <mxGeometry x="130" y="60" width="250" height="26" as="geometry" />
        </mxCell>
        <mxCell id="BblcwQt_c4mbjG9nSBui-5" value="&lt;font style=&quot;font-size: 20px;&quot;&gt;Modules and Assignment Information&lt;/font&gt;" style="text;html=1;points=[];align=left;verticalAlign=middle;spacingTop=-4;fontSize=30;fontFamily=Verdana;fontColor=#777777;" vertex="1" parent="BblcwQt_c4mbjG9nSBui-2">
          <mxGeometry x="13.5" y="130" width="206.5" height="30" as="geometry" />
        </mxCell>
        <mxCell id="BblcwQt_c4mbjG9nSBui-6" value="" style="dashed=0;shape=line;strokeWidth=1;noLabel=1;strokeColor=#cccccc;opacity=50;fontSize=14;" vertex="1" parent="BblcwQt_c4mbjG9nSBui-2">
          <mxGeometry x="400" y="146" width="210" height="10" as="geometry" />
        </mxCell>
        <mxCell id="BblcwQt_c4mbjG9nSBui-7" value="&lt;font style=&quot;font-size: 16px;&quot;&gt;Select Course (ENG 101 / TBA 201 / ....)&lt;/font&gt;" style="html=1;shadow=0;dashed=0;shape=mxgraph.bootstrap.rrect;rSize=5;strokeColor=#777777;strokeWidth=0;fillColor=#ffffff;fontColor=#777777;whiteSpace=wrap;align=left;verticalAlign=middle;fontStyle=0;fontSize=18;spacing=20;" vertex="1" parent="BblcwQt_c4mbjG9nSBui-2">
          <mxGeometry x="20" y="172.5" width="590" height="30" as="geometry" />
        </mxCell>
        <mxCell id="BblcwQt_c4mbjG9nSBui-8" value="" style="shape=triangle;direction=south;fillColor=#495057;strokeColor=none;perimeter=none;" vertex="1" parent="BblcwQt_c4mbjG9nSBui-7">
          <mxGeometry x="1" y="0.5" width="10" height="5" relative="1" as="geometry">
            <mxPoint x="-17" y="-2.5" as="offset" />
          </mxGeometry>
        </mxCell>
        <mxCell id="BblcwQt_c4mbjG9nSBui-11" value="&lt;h1 style=&quot;margin-top: 0px;&quot;&gt;&lt;span style=&quot;font-size: 18px;&quot;&gt;Course Announcements&lt;/span&gt;&lt;/h1&gt;&lt;div&gt;&lt;span style=&quot;background-color: transparent; color: light-dark(rgb(119, 119, 119), rgb(135, 135, 135)); font-size: 16px;&quot;&gt;Course Announcement - 1&lt;/span&gt;&lt;/div&gt;&lt;p&gt;&lt;span style=&quot;font-size: 16px;&quot;&gt;Course Announcement - 2&lt;/span&gt;&lt;/p&gt;&lt;p&gt;&lt;font style=&quot;font-size: 16px;&quot;&gt;&lt;/font&gt;&lt;/p&gt;&lt;p&gt;&lt;span style=&quot;font-size: 16px;&quot;&gt;Course Announcement - 3&lt;/span&gt;&lt;/p&gt;&lt;p&gt;&lt;span style=&quot;font-size: 16px;&quot;&gt;Course Announcement - 4&lt;/span&gt;&lt;/p&gt;&lt;p&gt;&lt;span style=&quot;font-size: 16px;&quot;&gt;Course Announcement - 5&lt;/span&gt;&lt;/p&gt;&lt;p&gt;&lt;br&gt;&lt;/p&gt;" style="text;html=1;whiteSpace=wrap;overflow=hidden;rounded=0;fontColor=#777777;" vertex="1" parent="BblcwQt_c4mbjG9nSBui-2">
          <mxGeometry x="680" y="119" width="360" height="201" as="geometry" />
        </mxCell>
        <mxCell id="BblcwQt_c4mbjG9nSBui-20" value="" style="dashed=0;shape=line;strokeWidth=1;noLabel=1;strokeColor=#cccccc;opacity=50;fontSize=14;" vertex="1" parent="BblcwQt_c4mbjG9nSBui-2">
          <mxGeometry x="680" y="189" width="357" height="1" as="geometry" />
        </mxCell>
        <mxCell id="BblcwQt_c4mbjG9nSBui-21" value="" style="dashed=0;shape=line;strokeWidth=1;noLabel=1;strokeColor=#cccccc;opacity=50;fontSize=14;" vertex="1" parent="BblcwQt_c4mbjG9nSBui-2">
          <mxGeometry x="680" y="221" width="357" height="1" as="geometry" />
        </mxCell>
        <mxCell id="BblcwQt_c4mbjG9nSBui-22" value="" style="dashed=0;shape=line;strokeWidth=1;noLabel=1;strokeColor=#cccccc;opacity=50;fontSize=14;" vertex="1" parent="BblcwQt_c4mbjG9nSBui-2">
          <mxGeometry x="680" y="252" width="357" height="1" as="geometry" />
        </mxCell>
        <mxCell id="BblcwQt_c4mbjG9nSBui-23" value="" style="dashed=0;shape=line;strokeWidth=1;noLabel=1;strokeColor=#cccccc;opacity=50;fontSize=14;" vertex="1" parent="BblcwQt_c4mbjG9nSBui-2">
          <mxGeometry x="680" y="285" width="357" height="1" as="geometry" />
        </mxCell>
        <mxCell id="BblcwQt_c4mbjG9nSBui-24" value="&lt;font style=&quot;font-size: 16px;&quot;&gt;Check for Conflicts&lt;/font&gt;" style="rounded=1;fillColor=#f0a30a;strokeColor=#BD7000;html=1;whiteSpace=wrap;fontColor=#000000;align=center;verticalAlign=middle;fontStyle=0;fontSize=12;sketch=0;" vertex="1" parent="BblcwQt_c4mbjG9nSBui-2">
          <mxGeometry x="417" y="690" width="590" height="33" as="geometry" />
        </mxCell>
        <mxCell id="BblcwQt_c4mbjG9nSBui-25" value="&lt;font style=&quot;font-size: 16px;&quot;&gt;Create Schedule&lt;/font&gt;" style="rounded=1;fillColor=#008a00;strokeColor=#005700;html=1;whiteSpace=wrap;fontColor=#ffffff;align=center;verticalAlign=middle;fontStyle=0;fontSize=12;sketch=0;" vertex="1" parent="BblcwQt_c4mbjG9nSBui-2">
          <mxGeometry x="417" y="730" width="590" height="33" as="geometry" />
        </mxCell>
        <mxCell id="BblcwQt_c4mbjG9nSBui-35" value="" style="dashed=0;shape=line;strokeWidth=1;noLabel=1;strokeColor=#cccccc;opacity=50;fontSize=14;" vertex="1" parent="BblcwQt_c4mbjG9nSBui-2">
          <mxGeometry x="680" y="313" width="357" height="1" as="geometry" />
        </mxCell>
        <mxCell id="WwvToMDdxwLQCkkOukl--0" value="&lt;h1 style=&quot;margin-top: 0px;&quot;&gt;&lt;font style=&quot;font-size: 18px; color: rgb(119, 119, 119);&quot;&gt;Assignments Contents&lt;/font&gt;&lt;/h1&gt;&lt;p&gt;&lt;span style=&quot;color: rgb(119, 119, 119); font-size: 16px;&quot;&gt;Module 1 - Assignment 1 Title - Assignment 1 Description&amp;nbsp; &amp;nbsp; &amp;nbsp; &amp;nbsp; &amp;nbsp; &amp;nbsp; (PDF)&amp;nbsp; &amp;nbsp; &amp;nbsp; &amp;nbsp;&lt;/span&gt;&lt;/p&gt;&lt;p&gt;&lt;span style=&quot;color: rgb(119, 119, 119); font-size: 16px;&quot;&gt;Module 1 - Assignment 2 Title - Assignment 2 Description&amp;nbsp; &amp;nbsp; &amp;nbsp; &amp;nbsp; &amp;nbsp; &amp;nbsp; (DOCX)&amp;nbsp; &amp;nbsp; &amp;nbsp; &amp;nbsp;&lt;/span&gt;&lt;/p&gt;&lt;p&gt;&lt;span style=&quot;color: rgb(119, 119, 119); font-size: 16px;&quot;&gt;Module 1 - Assignment 3 Title - Assignment 3 Description&amp;nbsp; &amp;nbsp; &amp;nbsp; &amp;nbsp; &amp;nbsp; &amp;nbsp; (MP4)&amp;nbsp; &amp;nbsp; &amp;nbsp; &amp;nbsp;&lt;/span&gt;&lt;/p&gt;" style="text;html=1;whiteSpace=wrap;overflow=hidden;rounded=0;fillColor=#f5f5f5;strokeColor=none;fontColor=#333333;" vertex="1" parent="BblcwQt_c4mbjG9nSBui-2">
          <mxGeometry x="20" y="289" width="590" height="140" as="geometry" />
        </mxCell>
        <mxCell id="PpsDFWFRE_IeBzggRTNF-0" value="&lt;span style=&quot;font-size: 16px;&quot;&gt;Select Module&lt;/span&gt;" style="html=1;shadow=0;dashed=0;shape=mxgraph.bootstrap.rrect;rSize=5;strokeColor=#777777;strokeWidth=0;fillColor=#ffffff;fontColor=#777777;whiteSpace=wrap;align=left;verticalAlign=middle;fontStyle=0;fontSize=18;spacing=20;" vertex="1" parent="BblcwQt_c4mbjG9nSBui-2">
          <mxGeometry x="20" y="210.5" width="590" height="30" as="geometry" />
        </mxCell>
        <mxCell id="PpsDFWFRE_IeBzggRTNF-1" value="" style="shape=triangle;direction=south;fillColor=#495057;strokeColor=none;perimeter=none;" vertex="1" parent="PpsDFWFRE_IeBzggRTNF-0">
          <mxGeometry x="1" y="0.5" width="10" height="5" relative="1" as="geometry">
            <mxPoint x="-17" y="-2.5" as="offset" />
          </mxGeometry>
        </mxCell>
        <mxCell id="STubenlVk2Y_xuEs2Rhs-0" value="" style="dashed=0;shape=line;strokeWidth=1;noLabel=1;strokeColor=#cccccc;opacity=50;fontSize=14;" vertex="1" parent="BblcwQt_c4mbjG9nSBui-2">
          <mxGeometry x="23" y="362.5" width="567" height="1" as="geometry" />
        </mxCell>
        <mxCell id="STubenlVk2Y_xuEs2Rhs-1" value="" style="dashed=0;shape=line;strokeWidth=1;noLabel=1;strokeColor=#cccccc;opacity=50;fontSize=14;" vertex="1" parent="BblcwQt_c4mbjG9nSBui-2">
          <mxGeometry x="20" y="392.5" width="567" height="1" as="geometry" />
        </mxCell>
        <mxCell id="STubenlVk2Y_xuEs2Rhs-2" value="" style="dashed=0;shape=line;strokeWidth=1;noLabel=1;strokeColor=#cccccc;opacity=50;fontSize=14;" vertex="1" parent="BblcwQt_c4mbjG9nSBui-2">
          <mxGeometry x="23" y="423.5" width="567" height="1" as="geometry" />
        </mxCell>
        <mxCell id="v-0gby08TBnnIL87EEBT-0" value="&lt;span style=&quot;font-size: 16px;&quot;&gt;Select Assignment&lt;/span&gt;" style="html=1;shadow=0;dashed=0;shape=mxgraph.bootstrap.rrect;rSize=5;strokeColor=#777777;strokeWidth=0;fillColor=#ffffff;fontColor=#777777;whiteSpace=wrap;align=left;verticalAlign=middle;fontStyle=0;fontSize=18;spacing=20;" vertex="1" parent="BblcwQt_c4mbjG9nSBui-2">
          <mxGeometry x="20" y="250.5" width="590" height="30" as="geometry" />
        </mxCell>
        <mxCell id="v-0gby08TBnnIL87EEBT-1" value="" style="shape=triangle;direction=south;fillColor=#495057;strokeColor=none;perimeter=none;" vertex="1" parent="v-0gby08TBnnIL87EEBT-0">
          <mxGeometry x="1" y="0.5" width="10" height="5" relative="1" as="geometry">
            <mxPoint x="-17" y="-2.5" as="offset" />
          </mxGeometry>
        </mxCell>
        <mxCell id="lBHmxmIuSp78mK28ZgTm-0" value="" style="sketch=0;pointerEvents=1;shadow=0;dashed=0;html=1;strokeColor=none;fillColor=#505050;labelPosition=center;verticalLabelPosition=bottom;verticalAlign=top;outlineConnect=0;align=center;shape=mxgraph.office.concepts.download;" vertex="1" parent="BblcwQt_c4mbjG9nSBui-2">
          <mxGeometry x="567" y="340" width="20" height="20" as="geometry" />
        </mxCell>
        <mxCell id="KEBdrK60ISojnJ77AozC-0" value="" style="sketch=0;pointerEvents=1;shadow=0;dashed=0;html=1;strokeColor=none;fillColor=#505050;labelPosition=center;verticalLabelPosition=bottom;verticalAlign=top;outlineConnect=0;align=center;shape=mxgraph.office.concepts.download;" vertex="1" parent="BblcwQt_c4mbjG9nSBui-2">
          <mxGeometry x="567" y="369.5" width="20" height="20" as="geometry" />
        </mxCell>
        <mxCell id="KEBdrK60ISojnJ77AozC-1" value="" style="sketch=0;pointerEvents=1;shadow=0;dashed=0;html=1;strokeColor=none;fillColor=#505050;labelPosition=center;verticalLabelPosition=bottom;verticalAlign=top;outlineConnect=0;align=center;shape=mxgraph.office.concepts.download;" vertex="1" parent="BblcwQt_c4mbjG9nSBui-2">
          <mxGeometry x="567" y="401" width="20" height="20" as="geometry" />
        </mxCell>
        <mxCell id="1mC97PR7PSgfLnkZElEi-0" value="" style="shape=mxgraph.signs.healthcare.eye;html=1;pointerEvents=1;fillColor=#777777;strokeColor=none;verticalLabelPosition=bottom;verticalAlign=top;align=center;" vertex="1" parent="BblcwQt_c4mbjG9nSBui-2">
          <mxGeometry x="1013" y="170" width="20" height="15" as="geometry" />
        </mxCell>
        <mxCell id="1mC97PR7PSgfLnkZElEi-2" value="" style="shape=mxgraph.signs.healthcare.eye;html=1;pointerEvents=1;fillColor=#777777;strokeColor=none;verticalLabelPosition=bottom;verticalAlign=top;align=center;" vertex="1" parent="BblcwQt_c4mbjG9nSBui-2">
          <mxGeometry x="1013" y="202.5" width="20" height="15" as="geometry" />
        </mxCell>
        <mxCell id="1mC97PR7PSgfLnkZElEi-3" value="" style="shape=mxgraph.signs.healthcare.eye;html=1;pointerEvents=1;fillColor=#777777;strokeColor=none;verticalLabelPosition=bottom;verticalAlign=top;align=center;" vertex="1" parent="BblcwQt_c4mbjG9nSBui-2">
          <mxGeometry x="1013" y="234.5" width="20" height="15" as="geometry" />
        </mxCell>
        <mxCell id="1mC97PR7PSgfLnkZElEi-4" value="" style="shape=mxgraph.signs.healthcare.eye;html=1;pointerEvents=1;fillColor=#777777;strokeColor=none;verticalLabelPosition=bottom;verticalAlign=top;align=center;" vertex="1" parent="BblcwQt_c4mbjG9nSBui-2">
          <mxGeometry x="1013" y="265.5" width="20" height="15" as="geometry" />
        </mxCell>
        <mxCell id="1mC97PR7PSgfLnkZElEi-5" value="" style="shape=mxgraph.signs.healthcare.eye;html=1;pointerEvents=1;fillColor=#777777;strokeColor=none;verticalLabelPosition=bottom;verticalAlign=top;align=center;" vertex="1" parent="BblcwQt_c4mbjG9nSBui-2">
          <mxGeometry x="1013" y="295" width="20" height="15" as="geometry" />
        </mxCell>
      </root>
    </mxGraphModel>
  </diagram>
</mxfile>
